<ttFont>
<head>
    <!-- Most of this table will be recalculated by the compiler -->
    <tableVersion value="1.0"/>
    <fontRevision value="2.202"/>
    <checkSumAdjustment value="0x3530d758"/>
    <magicNumber value="0x5f0f3cf5"/>
    <flags value="00000000 00011011"/>
    <unitsPerEm value="1000"/>
    <created value="Sat Jan 23 04:30:20 2016"/>
    <modified value="Thu Mar 10 20:56:51 2016"/>
    <xMin value="-91"/>
    <yMin value="-271"/>
    <xMax value="1015"/>
    <yMax value="1059"/>
    <macStyle value="00000000 00000000"/>
    <lowestRecPPEM value="5"/>
    <fontDirectionHint value="2"/>
    <indexToLocFormat value="0"/>
    <glyphDataFormat value="0"/>
  </head>
    <TTGlyph name=".notdef" xMin="0" yMin="-200" xMax="500" yMax="800">
      <contour>
        <pt x="0" y="800" on="1"/>
        <pt x="500" y="800" on="1"/>
        <pt x="500" y="-200" on="1"/>
        <pt x="0" y="-200" on="1"/>
      </contour>
      <contour>
        <pt x="250" y="360" on="1"/>
        <pt x="429" y="750" on="1"/>
        <pt x="71" y="750" on="1"/>
      </contour>
      <contour>
        <pt x="222" y="300" on="1"/>
        <pt x="50" y="676" on="1"/>
        <pt x="50" y="-76" on="1"/>
      </contour>
      <contour>
        <pt x="278" y="300" on="1"/>
        <pt x="450" y="-76" on="1"/>
        <pt x="450" y="676" on="1"/>
      </contour>
      <contour>
        <pt x="71" y="-150" on="1"/>
        <pt x="429" y="-150" on="1"/>
        <pt x="250" y="240" on="1"/>
      </contour>
    </TTGlyph>
    <TTGlyph name="A" xMin="23" yMin="-8" xMax="627" yMax="727">
      <contour>
        <pt x="253" y="727" on="1"/>
        <pt x="402" y="727" on="1"/>
        <pt x="627" y="17" on="1"/>
        <pt x="492" y="-8" on="1"/>
        <pt x="434" y="184" on="1"/>
        <pt x="212" y="184" on="1"/>
        <pt x="158" y="0" on="1"/>
        <pt x="23" y="0" on="1"/>
      </contour>
      <contour>
        <pt x="243" y="296" on="1"/>
        <pt x="403" y="296" on="1"/>
        <pt x="322" y="574" on="1"/>
      </contour>
    </TTGlyph>
    <TTGlyph name="A.flat" xMin="23" yMin="0" xMax="632" yMax="727">
      <contour>
        <pt x="253" y="727" on="1"/>
        <pt x="402" y="727" on="1"/>
        <pt x="632" y="0" on="1"/>
        <pt x="489" y="0" on="1"/>
        <pt x="434" y="184" on="1"/>
        <pt x="212" y="184" on="1"/>
        <pt x="158" y="0" on="1"/>
        <pt x="23" y="0" on="1"/>
      </contour>
      <contour>
        <pt x="243" y="296" on="1"/>
        <pt x="403" y="296" on="1"/>
        <pt x="322" y="574" on="1"/>
      </contour>
    </TTGlyph>
    <TTGlyph name="AE" xMin="8" yMin="0" xMax="817" yMax="725">
      <contour>
        <pt x="343" y="725" on="1"/>
        <pt x="808" y="725" on="1"/>
        <pt x="808" y="609" on="1"/>
        <pt x="557" y="609" on="1"/>
        <pt x="557" y="434" on="1"/>
        <pt x="747" y="434" on="1"/>
        <pt x="766" y="318" on="1"/>
        <pt x="557" y="318" on="1"/>
        <pt x="557" y="116" on="1"/>
        <pt x="817" y="116" on="1"/>
        <pt x="817" y="0" on="1"/>
        <pt x="425" y="0" on="1"/>
        <pt x="425" y="185" on="1"/>
        <pt x="232" y="185" on="1"/>
        <pt x="149" y="0" on="1"/>
        <pt x="8" y="0" on="1"/>
      </contour>
      <contour>
        <pt x="425" y="296" on="1"/>
        <pt x="425" y="625" on="1"/>
        <pt x="281" y="296" on="1"/>
      </contour>
    </TTGlyph>
    <TTGlyph name="AE.flat" xMin="8" yMin="0" xMax="817" yMax="725">
      <contour>
        <pt x="343" y="725" on="1"/>
        <pt x="808" y="725" on="1"/>
        <pt x="808" y="609" on="1"/>
        <pt x="557" y="609" on="1"/>
        <pt x="557" y="434" on="1"/>
        <pt x="756" y="434" on="1"/>
        <pt x="756" y="318" on="1"/>
        <pt x="557" y="318" on="1"/>
        <pt x="557" y="116" on="1"/>
        <pt x="817" y="116" on="1"/>
        <pt x="817" y="0" on="1"/>
        <pt x="425" y="0" on="1"/>
        <pt x="425" y="185" on="1"/>
        <pt x="232" y="185" on="1"/>
        <pt x="149" y="0" on="1"/>
        <pt x="8" y="0" on="1"/>
      </contour>
      <contour>
        <pt x="425" y="296" on="1"/>
        <pt x="425" y="625" on="1"/>
        <pt x="281" y="296" on="1"/>
      </contour>
    </TTGlyph>
    <TTGlyph name="AEacute" xMin="8" yMin="0" xMax="817" yMax="933">
      <component glyphName="acute.cap" x="319" y="208" flags="0x4"/>
      <component glyphName="AE" x="0" y="0" flags="0x4"/>
    </TTGlyph>
    <TTGlyph name="AEacute.flat" xMin="8" yMin="0" xMax="817" yMax="933">
      <component glyphName="acute.cap" x="319" y="208" flags="0x4"/>
      <component glyphName="AE.flat" x="0" y="0" flags="0x4"/>
    </TTGlyph>
    <TTGlyph name="Aacute" xMin="23" yMin="-8" xMax="627" yMax="941">
      <component glyphName="A" x="0" y="0" flags="0x204"/>
      <component glyphName="acute.cap" x="159" y="216" flags="0x4"/>
    </TTGlyph>
    <TTGlyph name="Aacute.flat" xMin="23" yMin="0" xMax="632" yMax="941">
      <component glyphName="acute.cap" x="159" y="216" flags="0x4"/>
      <component glyphName="A.flat" x="0" y="0" flags="0x4"/>
    </TTGlyph>
    <TTGlyph name="Abreve" xMin="23" yMin="-8" xMax="627" yMax="928">
      <component glyphName="A" x="0" y="0" flags="0x204"/>
      <component glyphName="breve.cap" x="106" y="216" flags="0x4"/>
    </TTGlyph>
    <TTGlyph name="Abreve.flat" xMin="23" yMin="0" xMax="632" yMax="928">
      <component glyphName="breve.cap" x="106" y="216" flags="0x4"/>
      <component glyphName="A.flat" x="0" y="0" flags="0x4"/>
    </TTGlyph>
    <TTGlyph name="Acircumflex" xMin="23" yMin="-8" xMax="627" yMax="934">
      <component glyphName="A" x="0" y="0" flags="0x4"/>
      <component glyphName="circumflex.cap" x="107" y="215" flags="0x4"/>
    </TTGlyph>
    <TTGlyph name="Acircumflex.flat" xMin="23" yMin="0" xMax="632" yMax="934">
      <component glyphName="A.flat" x="0" y="0" flags="0x4"/>
      <component glyphName="circumflex.cap" x="107" y="215" flags="0x4"/>
    </TTGlyph>
    <TTGlyph name="Adieresis" xMin="23" yMin="-8" xMax="627" yMax="908">
      <component glyphName="A" x="0" y="0" flags="0x204"/>
      <component glyphName="dieresis.cap" x="106" y="216" flags="0x4"/>
    </TTGlyph>
    <TTGlyph name="Adieresis.flat" xMin="23" yMin="0" xMax="632" yMax="908">
      <component glyphName="dieresis.cap" x="106" y="216" flags="0x4"/>
      <component glyphName="A.flat" x="0" y="0" flags="0x4"/>
    </TTGlyph>
    <TTGlyph name="Agrave" xMin="23" yMin="-8" xMax="627" yMax="941">
      <component glyphName="A" x="0" y="0" flags="0x204"/>
      <component glyphName="grave.cap" x="52" y="216" flags="0x4"/>
    </TTGlyph>
    <TTGlyph name="Agrave.flat" xMin="23" yMin="0" xMax="632" yMax="941">
      <component glyphName="grave.cap" x="52" y="216" flags="0x4"/>
      <component glyphName="A.flat" x="0" y="0" flags="0x4"/>
    </TTGlyph>
    <TTGlyph name="Amacron" xMin="23" yMin="-8" xMax="627" yMax="892">
      <component glyphName="A" x="0" y="0" flags="0x204"/>
      <component glyphName="macron.cap" x="106" y="216" flags="0x4"/>
    </TTGlyph>
    <TTGlyph name="Amacron.flat" xMin="23" yMin="0" xMax="632" yMax="892">
      <component glyphName="macron.cap" x="106" y="216" flags="0x4"/>
      <component glyphName="A.flat" x="0" y="0" flags="0x4"/>
    </TTGlyph>
    <TTGlyph name="Aogonek" xMin="23" yMin="-199" xMax="627" yMax="727">
      <contour>
        <pt x="253" y="727" on="1"/>
        <pt x="402" y="727" on="1"/>
        <pt x="627" y="17" on="1"/>
        <pt x="577" y="8" on="1"/>
        <pt x="560" y="-18" on="1"/>
        <pt x="546" y="-41" on="0"/>
        <pt x="529" y="-74" on="0"/>
        <pt x="529" y="-90" on="1"/>
        <pt x="529" y="-122" on="0"/>
        <pt x="569" y="-122" on="1"/>
        <pt x="580" y="-122" on="0"/>
        <pt x="600" y="-119" on="0"/>
        <pt x="612" y="-117" on="1"/>
        <pt x="612" y="-182" on="1"/>
        <pt x="591" y="-190" on="0"/>
        <pt x="549" y="-199" on="0"/>
        <pt x="526" y="-199" on="1"/>
        <pt x="482" y="-199" on="0"/>
        <pt x="434" y="-159" on="0"/>
        <pt x="434" y="-119" on="1"/>
        <pt x="434" y="-91" on="0"/>
        <pt x="463" y="-34" on="0"/>
        <pt x="490" y="-2" on="1"/>
        <pt x="434" y="184" on="1"/>
        <pt x="212" y="184" on="1"/>
        <pt x="158" y="0" on="1"/>
        <pt x="23" y="0" on="1"/>
      </contour>
      <contour>
        <pt x="243" y="296" on="1"/>
        <pt x="403" y="296" on="1"/>
        <pt x="322" y="574" on="1"/>
      </contour>
    </TTGlyph>
    <TTGlyph name="Aogonek.flat" xMin="23" yMin="-199" xMax="632" yMax="727">
      <contour>
        <pt x="609" y="-182" on="1"/>
        <pt x="588" y="-190" on="0"/>
        <pt x="546" y="-199" on="0"/>
        <pt x="523" y="-199" on="1"/>
        <pt x="479" y="-199" on="0"/>
        <pt x="431" y="-159" on="0"/>
        <pt x="431" y="-119" on="1"/>
        <pt x="431" y="-91" on="0"/>
        <pt x="460" y="-33" on="0"/>
        <pt x="489" y="0" on="1"/>
        <pt x="434" y="184" on="1"/>
        <pt x="212" y="184" on="1"/>
        <pt x="158" y="0" on="1"/>
        <pt x="23" y="0" on="1"/>
        <pt x="253" y="727" on="1"/>
        <pt x="402" y="727" on="1"/>
        <pt x="632" y="0" on="1"/>
        <pt x="569" y="0" on="1"/>
        <pt x="557" y="-18" on="1"/>
        <pt x="542" y="-41" on="0"/>
        <pt x="526" y="-74" on="0"/>
        <pt x="526" y="-90" on="1"/>
        <pt x="526" y="-122" on="0"/>
        <pt x="566" y="-122" on="1"/>
        <pt x="577" y="-122" on="0"/>
        <pt x="597" y="-119" on="0"/>
        <pt x="609" y="-117" on="1"/>
      </contour>
      <contour>
        <pt x="243" y="296" on="1"/>
        <pt x="403" y="296" on="1"/>
        <pt x="322" y="574" on="1"/>
      </contour>
    </TTGlyph>
    <TTGlyph name="Aring" xMin="23" yMin="-8" xMax="630" yMax="881">
      <contour>
        <pt x="448" y="772" on="1"/>
        <pt x="448" y="723" on="0"/>
        <pt x="415" y="693" on="1"/>
        <pt x="630" y="17" on="1"/>
        <pt x="495" y="-8" on="1"/>
        <pt x="437" y="184" on="1"/>
        <pt x="211" y="184" on="1"/>
        <pt x="157" y="0" on="1"/>
        <pt x="23" y="0" on="1"/>
        <pt x="243" y="690" on="1"/>
        <pt x="207" y="721" on="0"/>
        <pt x="207" y="772" on="1"/>
        <pt x="207" y="820" on="0"/>
        <pt x="274" y="881" on="0"/>
        <pt x="328" y="881" on="1"/>
        <pt x="382" y="881" on="0"/>
        <pt x="448" y="820" on="0"/>
      </contour>
      <contour>
        <pt x="243" y="296" on="1"/>
        <pt x="405" y="296" on="1"/>
        <pt x="324" y="573" on="1"/>
      </contour>
      <contour>
        <pt x="381" y="772" on="1"/>
        <pt x="381" y="797" on="0"/>
        <pt x="352" y="830" on="0"/>
        <pt x="328" y="830" on="1"/>
        <pt x="303" y="830" on="0"/>
        <pt x="274" y="797" on="0"/>
        <pt x="274" y="772" on="1"/>
        <pt x="274" y="746" on="0"/>
        <pt x="303" y="714" on="0"/>
        <pt x="328" y="714" on="1"/>
        <pt x="352" y="714" on="0"/>
        <pt x="381" y="746" on="0"/>
      </contour>
    </TTGlyph>
    <TTGlyph name="Aring.flat" xMin="23" yMin="0" xMax="635" yMax="881">
      <contour>
        <pt x="448" y="772" on="1"/>
        <pt x="448" y="723" on="0"/>
        <pt x="415" y="692" on="1"/>
        <pt x="635" y="0" on="1"/>
        <pt x="493" y="0" on="1"/>
        <pt x="437" y="184" on="1"/>
        <pt x="211" y="184" on="1"/>
        <pt x="157" y="0" on="1"/>
        <pt x="23" y="0" on="1"/>
        <pt x="243" y="690" on="1"/>
        <pt x="207" y="721" on="0"/>
        <pt x="207" y="772" on="1"/>
        <pt x="207" y="820" on="0"/>
        <pt x="274" y="881" on="0"/>
        <pt x="328" y="881" on="1"/>
        <pt x="382" y="881" on="0"/>
        <pt x="448" y="820" on="0"/>
      </contour>
      <contour>
        <pt x="243" y="296" on="1"/>
        <pt x="405" y="296" on="1"/>
        <pt x="324" y="573" on="1"/>
      </contour>
      <contour>
        <pt x="381" y="772" on="1"/>
        <pt x="381" y="797" on="0"/>
        <pt x="352" y="830" on="0"/>
        <pt x="328" y="830" on="1"/>
        <pt x="303" y="830" on="0"/>
        <pt x="274" y="797" on="0"/>
        <pt x="274" y="772" on="1"/>
        <pt x="274" y="746" on="0"/>
        <pt x="303" y="714" on="0"/>
        <pt x="328" y="714" on="1"/>
        <pt x="352" y="714" on="0"/>
        <pt x="381" y="746" on="0"/>
      </contour>
    </TTGlyph>
    <TTGlyph name="Aringacute" xMin="23" yMin="-8" xMax="630" yMax="1059">
      <contour>
        <pt x="448" y="772" on="1"/>
        <pt x="448" y="723" on="0"/>
        <pt x="415" y="693" on="1"/>
        <pt x="630" y="17" on="1"/>
        <pt x="495" y="-8" on="1"/>
        <pt x="437" y="184" on="1"/>
        <pt x="211" y="184" on="1"/>
        <pt x="157" y="0" on="1"/>
        <pt x="23" y="0" on="1"/>
        <pt x="243" y="690" on="1"/>
        <pt x="207" y="721" on="0"/>
        <pt x="207" y="772" on="1"/>
        <pt x="207" y="820" on="0"/>
        <pt x="274" y="881" on="0"/>
        <pt x="328" y="881" on="1"/>
        <pt x="382" y="881" on="0"/>
        <pt x="448" y="820" on="0"/>
      </contour>
      <contour>
        <pt x="243" y="296" on="1"/>
        <pt x="405" y="296" on="1"/>
        <pt x="324" y="573" on="1"/>
      </contour>
      <contour>
        <pt x="381" y="772" on="1"/>
        <pt x="381" y="797" on="0"/>
        <pt x="352" y="830" on="0"/>
        <pt x="328" y="830" on="1"/>
        <pt x="303" y="830" on="0"/>
        <pt x="274" y="797" on="0"/>
        <pt x="274" y="772" on="1"/>
        <pt x="274" y="746" on="0"/>
        <pt x="303" y="714" on="0"/>
        <pt x="328" y="714" on="1"/>
        <pt x="352" y="714" on="0"/>
        <pt x="381" y="746" on="0"/>
      </contour>
      <contour>
        <pt x="365" y="903" on="1"/>
        <pt x="283" y="903" on="1"/>
        <pt x="352" y="1059" on="1"/>
        <pt x="498" y="1030" on="1"/>
      </contour>
    </TTGlyph>
    <TTGlyph name="Aringacute.flat" xMin="23" yMin="0" xMax="635" yMax="1059">
      <contour>
        <pt x="448" y="772" on="1"/>
        <pt x="448" y="723" on="0"/>
        <pt x="415" y="692" on="1"/>
        <pt x="635" y="0" on="1"/>
        <pt x="493" y="0" on="1"/>
        <pt x="437" y="184" on="1"/>
        <pt x="211" y="184" on="1"/>
        <pt x="157" y="0" on="1"/>
        <pt x="23" y="0" on="1"/>
        <pt x="243" y="690" on="1"/>
        <pt x="207" y="721" on="0"/>
        <pt x="207" y="772" on="1"/>
        <pt x="207" y="820" on="0"/>
        <pt x="274" y="881" on="0"/>
        <pt x="328" y="881" on="1"/>
        <pt x="382" y="881" on="0"/>
        <pt x="448" y="820" on="0"/>
      </contour>
      <contour>
        <pt x="243" y="296" on="1"/>
        <pt x="405" y="296" on="1"/>
        <pt x="324" y="573" on="1"/>
      </contour>
      <contour>
        <pt x="381" y="772" on="1"/>
        <pt x="381" y="797" on="0"/>
        <pt x="352" y="830" on="0"/>
        <pt x="328" y="830" on="1"/>
        <pt x="303" y="830" on="0"/>
        <pt x="274" y="797" on="0"/>
        <pt x="274" y="772" on="1"/>
        <pt x="274" y="746" on="0"/>
        <pt x="303" y="714" on="0"/>
        <pt x="328" y="714" on="1"/>
        <pt x="352" y="714" on="0"/>
        <pt x="381" y="746" on="0"/>
      </contour>
      <contour>
        <pt x="365" y="903" on="1"/>
        <pt x="283" y="903" on="1"/>
        <pt x="352" y="1059" on="1"/>
        <pt x="498" y="1030" on="1"/>
      </contour>
    </TTGlyph>
    <TTGlyph name="Atilde" xMin="23" yMin="-8" xMax="627" yMax="932">
      <component glyphName="A" x="0" y="0" flags="0x204"/>
      <component glyphName="tilde.cap" x="109" y="216" flags="0x4"/>
    </TTGlyph>
    <TTGlyph name="Atilde.flat" xMin="23" yMin="0" xMax="632" yMax="932">
      <component glyphName="tilde.cap" x="109" y="216" flags="0x4"/>
      <component glyphName="A.flat" x="0" y="0" flags="0x4"/>
    </TTGlyph>
    <TTGlyph name="B" xMin="71" yMin="0" xMax="526" yMax="725">
      <contour>
        <pt x="526" y="209" on="1"/>
        <pt x="526" y="156" on="0"/>
        <pt x="488" y="78" on="0"/>
        <pt x="419" y="26" on="0"/>
        <pt x="320" y="0" on="0"/>
        <pt x="259" y="0" on="1"/>
        <pt x="71" y="0" on="1"/>
        <pt x="71" y="725" on="1"/>
        <pt x="263" y="725" on="1"/>
        <pt x="383" y="725" on="0"/>
        <pt x="501" y="624" on="0"/>
        <pt x="501" y="539" on="1"/>
        <pt x="501" y="482" on="0"/>
        <pt x="445" y="405" on="0"/>
        <pt x="399" y="385" on="1"/>
        <pt x="457" y="365" on="0"/>
        <pt x="526" y="281" on="0"/>
      </contour>
      <contour>
        <pt x="372" y="525" on="1"/>
        <pt x="372" y="567" on="0"/>
        <pt x="320" y="620" on="0"/>
        <pt x="258" y="620" on="1"/>
        <pt x="203" y="620" on="1"/>
        <pt x="203" y="426" on="1"/>
        <pt x="254" y="426" on="1"/>
        <pt x="313" y="426" on="0"/>
        <pt x="372" y="480" on="0"/>
      </contour>
      <contour>
        <pt x="393" y="214" on="1"/>
        <pt x="393" y="269" on="0"/>
        <pt x="325" y="327" on="0"/>
        <pt x="257" y="327" on="1"/>
        <pt x="203" y="327" on="1"/>
        <pt x="203" y="106" on="1"/>
        <pt x="260" y="106" on="1"/>
        <pt x="324" y="106" on="0"/>
        <pt x="393" y="160" on="0"/>
      </contour>
    </TTGlyph>
    <TTGlyph name="C" xMin="46" yMin="-12" xMax="534" yMax="737">
      <contour>
        <pt x="534" y="46" on="1"/>
        <pt x="494" y="20" on="0"/>
        <pt x="403" y="-12" on="0"/>
        <pt x="347" y="-12" on="1"/>
        <pt x="275" y="-12" on="0"/>
        <pt x="163" y="40" on="0"/>
        <pt x="86" y="138" on="0"/>
        <pt x="46" y="275" on="0"/>
        <pt x="46" y="361" on="1"/>
        <pt x="46" y="446" on="0"/>
        <pt x="87" y="585" on="0"/>
        <pt x="166" y="684" on="0"/>
        <pt x="280" y="737" on="0"/>
        <pt x="353" y="737" on="1"/>
        <pt x="407" y="737" on="0"/>
        <pt x="488" y="711" on="0"/>
        <pt x="525" y="688" on="1"/>
        <pt x="505" y="560" on="1"/>
        <pt x="470" y="586" on="0"/>
        <pt x="403" y="617" on="0"/>
        <pt x="359" y="617" on="1"/>
        <pt x="276" y="617" on="0"/>
        <pt x="184" y="482" on="0"/>
        <pt x="184" y="362" on="1"/>
        <pt x="184" y="241" on="0"/>
        <pt x="277" y="108" on="0"/>
        <pt x="359" y="108" on="1"/>
        <pt x="401" y="108" on="0"/>
        <pt x="477" y="139" on="0"/>
        <pt x="515" y="168" on="1"/>
      </contour>
    </TTGlyph>
    <TTGlyph name="Cacute" xMin="46" yMin="-12" xMax="534" yMax="941">
      <component glyphName="C" x="0" y="0" flags="0x204"/>
      <component glyphName="acute.cap" x="170" y="216" flags="0x4"/>
    </TTGlyph>
    <TTGlyph name="Ccaron" xMin="46" yMin="-12" xMax="534" yMax="935">
      <component glyphName="C" x="0" y="0" flags="0x204"/>
      <component glyphName="caron.cap" x="116" y="216" flags="0x4"/>
    </TTGlyph>
    <TTGlyph name="Ccedilla" xMin="46" yMin="-198" xMax="534" yMax="737">
      <component glyphName="C" x="0" y="0" flags="0x204"/>
      <component glyphName="cedilla.cap" x="97" y="-4" flags="0x4"/>
    </TTGlyph>
    <TTGlyph name="Cdotaccent" xMin="46" yMin="-12" xMax="534" yMax="908">
      <component glyphName="dotaccent.cap" x="116" y="216" flags="0x4"/>
      <component glyphName="C" x="0" y="0" flags="0x4"/>
    </TTGlyph>
    <TTGlyph name="D" xMin="71" yMin="0" xMax="610" yMax="725">
      <contour>
        <pt x="610" y="363" on="1"/>
        <pt x="610" y="280" on="0"/>
        <pt x="565" y="146" on="0"/>
        <pt x="476" y="51" on="0"/>
        <pt x="344" y="0" on="0"/>
        <pt x="257" y="0" on="1"/>
        <pt x="71" y="0" on="1"/>
        <pt x="71" y="725" on="1"/>
        <pt x="261" y="725" on="1"/>
        <pt x="349" y="725" on="0"/>
        <pt x="480" y="673" on="0"/>
        <pt x="567" y="579" on="0"/>
        <pt x="610" y="445" on="0"/>
      </contour>
      <contour>
        <pt x="471" y="362" on="1"/>
        <pt x="471" y="490" on="0"/>
        <pt x="359" y="611" on="0"/>
        <pt x="264" y="611" on="1"/>
        <pt x="207" y="611" on="1"/>
        <pt x="207" y="115" on="1"/>
        <pt x="262" y="115" on="1"/>
        <pt x="360" y="115" on="0"/>
        <pt x="471" y="233" on="0"/>
      </contour>
    </TTGlyph>
    <TTGlyph name="Dcaron" xMin="71" yMin="0" xMax="610" yMax="927">
      <component glyphName="caron.cap" x="93" y="208" flags="0x4"/>
      <component glyphName="D" x="0" y="0" flags="0x4"/>
    </TTGlyph>
    <TTGlyph name="Dcroat" xMin="15" yMin="0" xMax="627" yMax="725">
      <component glyphName="Eth" x="0" y="0" flags="0x4"/>
    </TTGlyph>
    <TTGlyph name="Dcroat.flat" xMin="23" yMin="0" xMax="627" yMax="725">
      <component glyphName="Eth.flat" x="0" y="0" flags="0x4"/>
    </TTGlyph>
    <TTGlyph name="E" xMin="71" yMin="0" xMax="466" yMax="725">
      <contour>
        <pt x="71" y="0" on="1"/>
        <pt x="71" y="725" on="1"/>
        <pt x="457" y="725" on="1"/>
        <pt x="457" y="609" on="1"/>
        <pt x="206" y="609" on="1"/>
        <pt x="206" y="434" on="1"/>
        <pt x="396" y="434" on="1"/>
        <pt x="415" y="318" on="1"/>
        <pt x="206" y="318" on="1"/>
        <pt x="206" y="116" on="1"/>
        <pt x="466" y="116" on="1"/>
        <pt x="466" y="0" on="1"/>
      </contour>
    </TTGlyph>
    <TTGlyph name="E.flat" xMin="71" yMin="0" xMax="466" yMax="725">
      <contour>
        <pt x="71" y="0" on="1"/>
        <pt x="71" y="725" on="1"/>
        <pt x="457" y="725" on="1"/>
        <pt x="457" y="609" on="1"/>
        <pt x="206" y="609" on="1"/>
        <pt x="206" y="434" on="1"/>
        <pt x="406" y="434" on="1"/>
        <pt x="406" y="318" on="1"/>
        <pt x="206" y="318" on="1"/>
        <pt x="206" y="116" on="1"/>
        <pt x="466" y="116" on="1"/>
        <pt x="466" y="0" on="1"/>
      </contour>
    </TTGlyph>
    <TTGlyph name="Eacute" xMin="71" yMin="0" xMax="466" yMax="933">
      <component glyphName="acute.cap" x="99" y="208" flags="0x4"/>
      <component glyphName="E" x="0" y="0" flags="0x4"/>
    </TTGlyph>
    <TTGlyph name="Eacute.flat" xMin="71" yMin="0" xMax="466" yMax="933">
      <component glyphName="E.flat" x="0" y="0" flags="0x204"/>
      <component glyphName="acute.cap" x="99" y="208" flags="0x4"/>
    </TTGlyph>
    <TTGlyph name="Ebreve" xMin="71" yMin="0" xMax="466" yMax="920">
      <component glyphName="breve.cap" x="45" y="208" flags="0x4"/>
      <component glyphName="E" x="0" y="0" flags="0x4"/>
    </TTGlyph>
    <TTGlyph name="Ebreve.flat" xMin="71" yMin="0" xMax="466" yMax="920">
      <component glyphName="breve.cap" x="45" y="208" flags="0x4"/>
      <component glyphName="E.flat" x="0" y="0" flags="0x4"/>
    </TTGlyph>
    <TTGlyph name="Ecaron" xMin="71" yMin="0" xMax="466" yMax="927">
      <component glyphName="caron.cap" x="46" y="208" flags="0x4"/>
      <component glyphName="E" x="0" y="0" flags="0x4"/>
    </TTGlyph>
    <TTGlyph name="Ecaron.flat" xMin="71" yMin="0" xMax="466" yMax="927">
      <component glyphName="E.flat" x="0" y="0" flags="0x204"/>
      <component glyphName="caron.cap" x="46" y="208" flags="0x4"/>
    </TTGlyph>
    <TTGlyph name="Ecircumflex" xMin="71" yMin="0" xMax="466" yMax="927">
      <component glyphName="E" x="0" y="0" flags="0x204"/>
      <component glyphName="circumflex.cap" x="46" y="208" flags="0x4"/>
    </TTGlyph>
    <TTGlyph name="Ecircumflex.flat" xMin="71" yMin="0" xMax="466" yMax="927">
      <component glyphName="E.flat" x="0" y="0" flags="0x204"/>
      <component glyphName="circumflex.cap" x="46" y="208" flags="0x4"/>
    </TTGlyph>
    <TTGlyph name="Edieresis" xMin="71" yMin="0" xMax="466" yMax="900">
      <component glyphName="dieresis.cap" x="45" y="208" flags="0x4"/>
      <component glyphName="E" x="0" y="0" flags="0x4"/>
    </TTGlyph>
    <TTGlyph name="Edieresis.flat" xMin="71" yMin="0" xMax="466" yMax="900">
      <component glyphName="E.flat" x="0" y="0" flags="0x204"/>
      <component glyphName="dieresis.cap" x="45" y="208" flags="0x4"/>
    </TTGlyph>
    <TTGlyph name="Edotaccent" xMin="71" yMin="0" xMax="466" yMax="900">
      <component glyphName="dotaccent.cap" x="45" y="208" flags="0x4"/>
      <component glyphName="E" x="0" y="0" flags="0x4"/>
    </TTGlyph>
    <TTGlyph name="Edotaccent.flat" xMin="71" yMin="0" xMax="466" yMax="900">
      <component glyphName="dotaccent.cap" x="45" y="208" flags="0x4"/>
      <component glyphName="E.flat" x="0" y="0" flags="0x4"/>
    </TTGlyph>
    <TTGlyph name="Egrave" xMin="71" yMin="0" xMax="466" yMax="933">
      <component glyphName="grave.cap" x="-8" y="208" flags="0x4"/>
      <component glyphName="E" x="0" y="0" flags="0x4"/>
    </TTGlyph>
    <TTGlyph name="Egrave.flat" xMin="71" yMin="0" xMax="466" yMax="933">
      <component glyphName="grave.cap" x="-8" y="208" flags="0x4"/>
      <component glyphName="E.flat" x="0" y="0" flags="0x4"/>
    </TTGlyph>
    <TTGlyph name="Emacron" xMin="71" yMin="0" xMax="466" yMax="884">
      <component glyphName="macron.cap" x="45" y="208" flags="0x4"/>
      <component glyphName="E" x="0" y="0" flags="0x4"/>
    </TTGlyph>
    <TTGlyph name="Emacron.flat" xMin="71" yMin="0" xMax="466" yMax="884">
      <component glyphName="E.flat" x="0" y="0" flags="0x204"/>
      <component glyphName="macron.cap" x="45" y="208" flags="0x4"/>
    </TTGlyph>
    <TTGlyph name="Eogonek" xMin="71" yMin="-199" xMax="469" yMax="725">
      <contour>
        <pt x="469" y="-182" on="1"/>
        <pt x="448" y="-190" on="0"/>
        <pt x="406" y="-199" on="0"/>
        <pt x="383" y="-199" on="1"/>
        <pt x="339" y="-199" on="0"/>
        <pt x="291" y="-159" on="0"/>
        <pt x="291" y="-119" on="1"/>
        <pt x="291" y="-91" on="0"/>
        <pt x="320" y="-33" on="0"/>
        <pt x="349" y="0" on="1"/>
        <pt x="71" y="0" on="1"/>
        <pt x="71" y="725" on="1"/>
        <pt x="457" y="725" on="1"/>
        <pt x="457" y="609" on="1"/>
        <pt x="206" y="609" on="1"/>
        <pt x="206" y="434" on="1"/>
        <pt x="396" y="434" on="1"/>
        <pt x="415" y="318" on="1"/>
        <pt x="206" y="318" on="1"/>
        <pt x="206" y="116" on="1"/>
        <pt x="466" y="116" on="1"/>
        <pt x="466" y="0" on="1"/>
        <pt x="429" y="0" on="1"/>
        <pt x="417" y="-18" on="1"/>
        <pt x="403" y="-41" on="0"/>
        <pt x="386" y="-74" on="0"/>
        <pt x="386" y="-90" on="1"/>
        <pt x="386" y="-122" on="0"/>
        <pt x="426" y="-122" on="1"/>
        <pt x="437" y="-122" on="0"/>
        <pt x="457" y="-119" on="0"/>
        <pt x="469" y="-117" on="1"/>
        <pt x="469" y="-182" on="1"/>
      </contour>
    </TTGlyph>
    <TTGlyph name="Eogonek.flat" xMin="71" yMin="-199" xMax="469" yMax="725">
      <contour>
        <pt x="469" y="-182" on="1"/>
        <pt x="448" y="-190" on="0"/>
        <pt x="406" y="-199" on="0"/>
        <pt x="383" y="-199" on="1"/>
        <pt x="339" y="-199" on="0"/>
        <pt x="291" y="-159" on="0"/>
        <pt x="291" y="-119" on="1"/>
        <pt x="291" y="-91" on="0"/>
        <pt x="320" y="-33" on="0"/>
        <pt x="349" y="0" on="1"/>
        <pt x="71" y="0" on="1"/>
        <pt x="71" y="725" on="1"/>
        <pt x="457" y="725" on="1"/>
        <pt x="457" y="609" on="1"/>
        <pt x="206" y="609" on="1"/>
        <pt x="206" y="434" on="1"/>
        <pt x="406" y="434" on="1"/>
        <pt x="406" y="318" on="1"/>
        <pt x="206" y="318" on="1"/>
        <pt x="206" y="116" on="1"/>
        <pt x="466" y="116" on="1"/>
        <pt x="466" y="0" on="1"/>
        <pt x="429" y="0" on="1"/>
        <pt x="417" y="-18" on="1"/>
        <pt x="403" y="-41" on="0"/>
        <pt x="386" y="-74" on="0"/>
        <pt x="386" y="-90" on="1"/>
        <pt x="386" y="-122" on="0"/>
        <pt x="426" y="-122" on="1"/>
        <pt x="437" y="-122" on="0"/>
        <pt x="457" y="-119" on="0"/>
        <pt x="469" y="-117" on="1"/>
        <pt x="469" y="-182" on="1"/>
      </contour>
    </TTGlyph>
    <TTGlyph name="Eth" xMin="15" yMin="0" xMax="627" yMax="725">
      <contour>
        <pt x="627" y="363" on="1"/>
        <pt x="627" y="280" on="0"/>
        <pt x="582" y="146" on="0"/>
        <pt x="493" y="51" on="0"/>
        <pt x="361" y="0" on="0"/>
        <pt x="274" y="0" on="1"/>
        <pt x="88" y="0" on="1"/>
        <pt x="88" y="317" on="1"/>
        <pt x="33" y="317" on="1"/>
        <pt x="15" y="432" on="1"/>
        <pt x="88" y="432" on="1"/>
        <pt x="88" y="725" on="1"/>
        <pt x="278" y="725" on="1"/>
        <pt x="366" y="725" on="0"/>
        <pt x="497" y="673" on="0"/>
        <pt x="584" y="579" on="0"/>
        <pt x="627" y="445" on="0"/>
      </contour>
      <contour>
        <pt x="487" y="362" on="1"/>
        <pt x="487" y="490" on="0"/>
        <pt x="375" y="611" on="0"/>
        <pt x="280" y="611" on="1"/>
        <pt x="223" y="611" on="1"/>
        <pt x="223" y="431" on="1"/>
        <pt x="354" y="431" on="1"/>
        <pt x="354" y="319" on="1"/>
        <pt x="223" y="319" on="1"/>
        <pt x="223" y="115" on="1"/>
        <pt x="279" y="115" on="1"/>
        <pt x="376" y="115" on="0"/>
        <pt x="487" y="233" on="0"/>
      </contour>
    </TTGlyph>
    <TTGlyph name="Eth.flat" xMin="23" yMin="0" xMax="627" yMax="725">
      <contour>
        <pt x="627" y="363" on="1"/>
        <pt x="627" y="280" on="0"/>
        <pt x="582" y="146" on="0"/>
        <pt x="493" y="51" on="0"/>
        <pt x="361" y="0" on="0"/>
        <pt x="274" y="0" on="1"/>
        <pt x="88" y="0" on="1"/>
        <pt x="88" y="317" on="1"/>
        <pt x="23" y="317" on="1"/>
        <pt x="23" y="432" on="1"/>
        <pt x="88" y="432" on="1"/>
        <pt x="88" y="725" on="1"/>
        <pt x="278" y="725" on="1"/>
        <pt x="366" y="725" on="0"/>
        <pt x="497" y="673" on="0"/>
        <pt x="584" y="579" on="0"/>
        <pt x="627" y="445" on="0"/>
      </contour>
      <contour>
        <pt x="487" y="362" on="1"/>
        <pt x="487" y="490" on="0"/>
        <pt x="375" y="611" on="0"/>
        <pt x="280" y="611" on="1"/>
        <pt x="223" y="611" on="1"/>
        <pt x="223" y="431" on="1"/>
        <pt x="354" y="431" on="1"/>
        <pt x="354" y="319" on="1"/>
        <pt x="223" y="319" on="1"/>
        <pt x="223" y="115" on="1"/>
        <pt x="279" y="115" on="1"/>
        <pt x="376" y="115" on="0"/>
        <pt x="487" y="233" on="0"/>
      </contour>
    </TTGlyph>
    <TTGlyph name="Euro" xMin="24" yMin="-13" xMax="565" yMax="730">
      <contour>
        <pt x="30" y="485" on="1"/>
        <pt x="117" y="485" on="1"/>
        <pt x="129" y="540" on="0"/>
        <pt x="174" y="630" on="0"/>
        <pt x="242" y="695" on="0"/>
        <pt x="333" y="730" on="0"/>
        <pt x="389" y="730" on="1"/>
        <pt x="441" y="730" on="0"/>
        <pt x="519" y="707" on="0"/>
        <pt x="554" y="687" on="1"/>
        <pt x="534" y="573" on="1"/>
        <pt x="499" y="596" on="0"/>
        <pt x="437" y="621" on="0"/>
        <pt x="398" y="621" on="1"/>
        <pt x="338" y="621" on="0"/>
        <pt x="262" y="548" on="0"/>
        <pt x="245" y="485" on="1"/>
        <pt x="453" y="485" on="1"/>
        <pt x="465" y="408" on="1"/>
        <pt x="233" y="408" on="1"/>
        <pt x="232" y="396" on="0"/>
        <pt x="231" y="372" on="0"/>
        <pt x="231" y="359" on="1"/>
        <pt x="231" y="348" on="0"/>
        <pt x="231" y="327" on="0"/>
        <pt x="232" y="317" on="1"/>
        <pt x="460" y="317" on="1"/>
        <pt x="460" y="240" on="1"/>
        <pt x="243" y="240" on="1"/>
        <pt x="260" y="173" on="0"/>
        <pt x="339" y="97" on="0"/>
        <pt x="402" y="97" on="1"/>
        <pt x="443" y="97" on="0"/>
        <pt x="510" y="122" on="0"/>
        <pt x="547" y="146" on="1"/>
        <pt x="565" y="38" on="1"/>
        <pt x="527" y="14" on="0"/>
        <pt x="441" y="-13" on="0"/>
        <pt x="388" y="-13" on="1"/>
        <pt x="330" y="-13" on="0"/>
        <pt x="238" y="22" on="0"/>
        <pt x="170" y="88" on="0"/>
        <pt x="125" y="182" on="0"/>
        <pt x="114" y="240" on="1"/>
        <pt x="36" y="240" on="1"/>
        <pt x="24" y="317" on="1"/>
        <pt x="105" y="317" on="1"/>
        <pt x="104" y="327" on="0"/>
        <pt x="104" y="347" on="0"/>
        <pt x="104" y="358" on="1"/>
        <pt x="104" y="371" on="0"/>
        <pt x="105" y="396" on="0"/>
        <pt x="106" y="408" on="1"/>
        <pt x="30" y="408" on="1"/>
      </contour>
    </TTGlyph>
    <TTGlyph name="Euro.flat" xMin="30" yMin="-13" xMax="565" yMax="730">
      <contour>
        <pt x="30" y="485" on="1"/>
        <pt x="117" y="485" on="1"/>
        <pt x="129" y="540" on="0"/>
        <pt x="174" y="630" on="0"/>
        <pt x="242" y="695" on="0"/>
        <pt x="333" y="730" on="0"/>
        <pt x="389" y="730" on="1"/>
        <pt x="441" y="730" on="0"/>
        <pt x="519" y="707" on="0"/>
        <pt x="554" y="687" on="1"/>
        <pt x="534" y="573" on="1"/>
        <pt x="499" y="596" on="0"/>
        <pt x="437" y="621" on="0"/>
        <pt x="398" y="621" on="1"/>
        <pt x="338" y="621" on="0"/>
        <pt x="262" y="548" on="0"/>
        <pt x="245" y="485" on="1"/>
        <pt x="460" y="485" on="1"/>
        <pt x="460" y="408" on="1"/>
        <pt x="233" y="408" on="1"/>
        <pt x="232" y="396" on="0"/>
        <pt x="231" y="372" on="0"/>
        <pt x="231" y="359" on="1"/>
        <pt x="231" y="348" on="0"/>
        <pt x="231" y="327" on="0"/>
        <pt x="232" y="317" on="1"/>
        <pt x="460" y="317" on="1"/>
        <pt x="460" y="240" on="1"/>
        <pt x="243" y="240" on="1"/>
        <pt x="260" y="173" on="0"/>
        <pt x="339" y="97" on="0"/>
        <pt x="402" y="97" on="1"/>
        <pt x="443" y="97" on="0"/>
        <pt x="510" y="122" on="0"/>
        <pt x="547" y="146" on="1"/>
        <pt x="565" y="38" on="1"/>
        <pt x="527" y="14" on="0"/>
        <pt x="441" y="-13" on="0"/>
        <pt x="388" y="-13" on="1"/>
        <pt x="330" y="-13" on="0"/>
        <pt x="238" y="22" on="0"/>
        <pt x="170" y="88" on="0"/>
        <pt x="125" y="182" on="0"/>
        <pt x="114" y="240" on="1"/>
        <pt x="30" y="240" on="1"/>
        <pt x="30" y="317" on="1"/>
        <pt x="105" y="317" on="1"/>
        <pt x="104" y="327" on="0"/>
        <pt x="104" y="347" on="0"/>
        <pt x="104" y="358" on="1"/>
        <pt x="104" y="371" on="0"/>
        <pt x="105" y="396" on="0"/>
        <pt x="106" y="408" on="1"/>
        <pt x="30" y="408" on="1"/>
      </contour>
    </TTGlyph>
    <TTGlyph name="Euro.tab" xMin="24" yMin="-12" xMax="506" yMax="731">
      <contour>
        <pt x="30" y="484" on="1"/>
        <pt x="104" y="484" on="1"/>
        <pt x="114" y="539" on="0"/>
        <pt x="153" y="630" on="0"/>
        <pt x="213" y="695" on="0"/>
        <pt x="294" y="731" on="0"/>
        <pt x="347" y="731" on="1"/>
        <pt x="394" y="731" on="0"/>
        <pt x="466" y="709" on="0"/>
        <pt x="496" y="690" on="1"/>
        <pt x="478" y="581" on="1"/>
        <pt x="446" y="604" on="0"/>
        <pt x="390" y="627" on="0"/>
        <pt x="351" y="627" on="1"/>
        <pt x="296" y="627" on="0"/>
        <pt x="234" y="548" on="0"/>
        <pt x="220" y="484" on="1"/>
        <pt x="406" y="484" on="1"/>
        <pt x="417" y="408" on="1"/>
        <pt x="210" y="408" on="1"/>
        <pt x="209" y="396" on="0"/>
        <pt x="209" y="372" on="0"/>
        <pt x="209" y="360" on="1"/>
        <pt x="209" y="349" on="0"/>
        <pt x="209" y="328" on="0"/>
        <pt x="210" y="317" on="1"/>
        <pt x="412" y="317" on="1"/>
        <pt x="412" y="242" on="1"/>
        <pt x="219" y="242" on="1"/>
        <pt x="233" y="170" on="0"/>
        <pt x="300" y="92" on="0"/>
        <pt x="359" y="92" on="1"/>
        <pt x="398" y="92" on="0"/>
        <pt x="454" y="114" on="0"/>
        <pt x="488" y="139" on="1"/>
        <pt x="506" y="37" on="1"/>
        <pt x="472" y="14" on="0"/>
        <pt x="394" y="-12" on="0"/>
        <pt x="343" y="-12" on="1"/>
        <pt x="235" y="-12" on="0"/>
        <pt x="119" y="125" on="0"/>
        <pt x="102" y="242" on="1"/>
        <pt x="35" y="242" on="1"/>
        <pt x="24" y="317" on="1"/>
        <pt x="95" y="317" on="1"/>
        <pt x="94" y="327" on="0"/>
        <pt x="94" y="347" on="0"/>
        <pt x="94" y="358" on="1"/>
        <pt x="94" y="371" on="0"/>
        <pt x="94" y="396" on="0"/>
        <pt x="95" y="408" on="1"/>
        <pt x="30" y="408" on="1"/>
      </contour>
    </TTGlyph>
    <TTGlyph name="Euro.tab_flat" xMin="30" yMin="-12" xMax="506" yMax="731">
      <contour>
        <pt x="30" y="484" on="1"/>
        <pt x="104" y="484" on="1"/>
        <pt x="114" y="539" on="0"/>
        <pt x="153" y="630" on="0"/>
        <pt x="213" y="695" on="0"/>
        <pt x="294" y="731" on="0"/>
        <pt x="347" y="731" on="1"/>
        <pt x="394" y="731" on="0"/>
        <pt x="466" y="709" on="0"/>
        <pt x="496" y="690" on="1"/>
        <pt x="478" y="581" on="1"/>
        <pt x="446" y="604" on="0"/>
        <pt x="390" y="627" on="0"/>
        <pt x="351" y="627" on="1"/>
        <pt x="296" y="627" on="0"/>
        <pt x="234" y="548" on="0"/>
        <pt x="220" y="484" on="1"/>
        <pt x="412" y="484" on="1"/>
        <pt x="412" y="408" on="1"/>
        <pt x="210" y="408" on="1"/>
        <pt x="209" y="396" on="0"/>
        <pt x="209" y="372" on="0"/>
        <pt x="209" y="360" on="1"/>
        <pt x="209" y="349" on="0"/>
        <pt x="209" y="328" on="0"/>
        <pt x="210" y="317" on="1"/>
        <pt x="412" y="317" on="1"/>
        <pt x="412" y="242" on="1"/>
        <pt x="219" y="242" on="1"/>
        <pt x="233" y="170" on="0"/>
        <pt x="300" y="92" on="0"/>
        <pt x="359" y="92" on="1"/>
        <pt x="398" y="92" on="0"/>
        <pt x="454" y="114" on="0"/>
        <pt x="488" y="139" on="1"/>
        <pt x="506" y="37" on="1"/>
        <pt x="472" y="14" on="0"/>
        <pt x="394" y="-12" on="0"/>
        <pt x="343" y="-12" on="1"/>
        <pt x="235" y="-12" on="0"/>
        <pt x="119" y="125" on="0"/>
        <pt x="102" y="242" on="1"/>
        <pt x="30" y="242" on="1"/>
        <pt x="30" y="317" on="1"/>
        <pt x="95" y="317" on="1"/>
        <pt x="94" y="327" on="0"/>
        <pt x="94" y="347" on="0"/>
        <pt x="94" y="358" on="1"/>
        <pt x="94" y="371" on="0"/>
        <pt x="94" y="396" on="0"/>
        <pt x="95" y="408" on="1"/>
        <pt x="30" y="408" on="1"/>
      </contour>
    </TTGlyph>
    <TTGlyph name="F" xMin="71" yMin="0" xMax="443" yMax="725">
      <contour>
        <pt x="207" y="606" on="1"/>
        <pt x="207" y="420" on="1"/>
        <pt x="384" y="420" on="1"/>
        <pt x="403" y="300" on="1"/>
        <pt x="207" y="300" on="1"/>
        <pt x="207" y="0" on="1"/>
        <pt x="71" y="0" on="1"/>
        <pt x="71" y="725" on="1"/>
        <pt x="443" y="725" on="1"/>
        <pt x="443" y="606" on="1"/>
      </contour>
    </TTGlyph>
    <TTGlyph name="F.flat" xMin="71" yMin="0" xMax="443" yMax="725">
      <contour>
        <pt x="207" y="606" on="1"/>
        <pt x="207" y="420" on="1"/>
        <pt x="394" y="420" on="1"/>
        <pt x="394" y="300" on="1"/>
        <pt x="207" y="300" on="1"/>
        <pt x="207" y="0" on="1"/>
        <pt x="71" y="0" on="1"/>
        <pt x="71" y="725" on="1"/>
        <pt x="443" y="725" on="1"/>
        <pt x="443" y="606" on="1"/>
      </contour>
    </TTGlyph>
    <TTGlyph name="G" xMin="46" yMin="-14" xMax="578" yMax="738">
      <contour>
        <pt x="578" y="52" on="1"/>
        <pt x="532" y="23" on="0"/>
        <pt x="422" y="-14" on="0"/>
        <pt x="356" y="-14" on="1"/>
        <pt x="279" y="-14" on="0"/>
        <pt x="163" y="40" on="0"/>
        <pt x="85" y="138" on="0"/>
        <pt x="46" y="276" on="0"/>
        <pt x="46" y="360" on="1"/>
        <pt x="46" y="444" on="0"/>
        <pt x="87" y="584" on="0"/>
        <pt x="168" y="683" on="0"/>
        <pt x="288" y="738" on="0"/>
        <pt x="366" y="738" on="1"/>
        <pt x="423" y="738" on="0"/>
        <pt x="516" y="712" on="0"/>
        <pt x="554" y="689" on="1"/>
        <pt x="534" y="561" on="1"/>
        <pt x="496" y="587" on="0"/>
        <pt x="417" y="618" on="0"/>
        <pt x="369" y="618" on="1"/>
        <pt x="276" y="618" on="0"/>
        <pt x="184" y="482" on="0"/>
        <pt x="184" y="362" on="1"/>
        <pt x="184" y="305" on="0"/>
        <pt x="205" y="210" on="0"/>
        <pt x="249" y="142" on="0"/>
        <pt x="317" y="104" on="0"/>
        <pt x="363" y="104" on="1"/>
        <pt x="392" y="104" on="0"/>
        <pt x="434" y="115" on="0"/>
        <pt x="453" y="126" on="1"/>
        <pt x="453" y="295" on="1"/>
        <pt x="338" y="295" on="1"/>
        <pt x="321" y="405" on="1"/>
        <pt x="578" y="405" on="1"/>
      </contour>
    </TTGlyph>
    <TTGlyph name="G.flat" xMin="46" yMin="-14" xMax="578" yMax="738">
      <contour>
        <pt x="578" y="52" on="1"/>
        <pt x="532" y="23" on="0"/>
        <pt x="422" y="-14" on="0"/>
        <pt x="356" y="-14" on="1"/>
        <pt x="279" y="-14" on="0"/>
        <pt x="163" y="40" on="0"/>
        <pt x="85" y="138" on="0"/>
        <pt x="46" y="276" on="0"/>
        <pt x="46" y="360" on="1"/>
        <pt x="46" y="444" on="0"/>
        <pt x="87" y="584" on="0"/>
        <pt x="168" y="683" on="0"/>
        <pt x="288" y="738" on="0"/>
        <pt x="366" y="738" on="1"/>
        <pt x="423" y="738" on="0"/>
        <pt x="516" y="712" on="0"/>
        <pt x="554" y="689" on="1"/>
        <pt x="534" y="561" on="1"/>
        <pt x="496" y="587" on="0"/>
        <pt x="417" y="618" on="0"/>
        <pt x="369" y="618" on="1"/>
        <pt x="276" y="618" on="0"/>
        <pt x="184" y="482" on="0"/>
        <pt x="184" y="362" on="1"/>
        <pt x="184" y="305" on="0"/>
        <pt x="205" y="210" on="0"/>
        <pt x="249" y="142" on="0"/>
        <pt x="317" y="104" on="0"/>
        <pt x="363" y="104" on="1"/>
        <pt x="392" y="104" on="0"/>
        <pt x="434" y="115" on="0"/>
        <pt x="453" y="126" on="1"/>
        <pt x="453" y="295" on="1"/>
        <pt x="330" y="295" on="1"/>
        <pt x="330" y="405" on="1"/>
        <pt x="578" y="405" on="1"/>
      </contour>
    </TTGlyph>
    <TTGlyph name="Gbreve" xMin="46" yMin="-14" xMax="578" yMax="928">
      <component glyphName="breve.cap" x="126" y="216" flags="0x4"/>
      <component glyphName="G" x="0" y="0" flags="0x4"/>
    </TTGlyph>
    <TTGlyph name="Gbreve.flat" xMin="46" yMin="-14" xMax="578" yMax="928">
      <component glyphName="breve.cap" x="126" y="216" flags="0x4"/>
      <component glyphName="G.flat" x="0" y="0" flags="0x4"/>
    </TTGlyph>
    <TTGlyph name="Gcommaaccent" xMin="46" yMin="-261" xMax="578" yMax="738">
      <component glyphName="G" x="0" y="0" flags="0x204"/>
      <component glyphName="commaaccent.cap" x="126" y="-8" flags="0x4"/>
    </TTGlyph>
    <TTGlyph name="Gcommaaccent.flat" xMin="46" yMin="-261" xMax="578" yMax="738">
      <component glyphName="G.flat" x="0" y="0" flags="0x204"/>
      <component glyphName="commaaccent.cap" x="126" y="-8" flags="0x4"/>
    </TTGlyph>
    <TTGlyph name="Gdotaccent" xMin="46" yMin="-14" xMax="578" yMax="908">
      <component glyphName="dotaccent.cap" x="126" y="216" flags="0x4"/>
      <component glyphName="G" x="0" y="0" flags="0x4"/>
    </TTGlyph>
    <TTGlyph name="Gdotaccent.flat" xMin="46" yMin="-14" xMax="578" yMax="908">
      <component glyphName="dotaccent.cap" x="126" y="216" flags="0x4"/>
      <component glyphName="G.flat" x="0" y="0" flags="0x4"/>
    </TTGlyph>
    <TTGlyph name="H" xMin="71" yMin="0" xMax="593" yMax="725">
      <contour>
        <pt x="456" y="0" on="1"/>
        <pt x="456" y="314" on="1"/>
        <pt x="208" y="314" on="1"/>
        <pt x="208" y="0" on="1"/>
        <pt x="71" y="0" on="1"/>
        <pt x="71" y="725" on="1"/>
        <pt x="208" y="725" on="1"/>
        <pt x="208" y="437" on="1"/>
        <pt x="456" y="437" on="1"/>
        <pt x="456" y="725" on="1"/>
        <pt x="593" y="725" on="1"/>
        <pt x="593" y="0" on="1"/>
      </contour>
    </TTGlyph>
    <TTGlyph name="Hbar" xMin="13" yMin="0" xMax="689" yMax="725">
      <contour>
        <pt x="479" y="0" on="1"/>
        <pt x="479" y="308" on="1"/>
        <pt x="230" y="308" on="1"/>
        <pt x="230" y="0" on="1"/>
        <pt x="93" y="0" on="1"/>
        <pt x="93" y="536" on="1"/>
        <pt x="28" y="536" on="1"/>
        <pt x="13" y="634" on="1"/>
        <pt x="93" y="634" on="1"/>
        <pt x="93" y="725" on="1"/>
        <pt x="230" y="725" on="1"/>
        <pt x="230" y="634" on="1"/>
        <pt x="479" y="634" on="1"/>
        <pt x="479" y="725" on="1"/>
        <pt x="616" y="725" on="1"/>
        <pt x="616" y="634" on="1"/>
        <pt x="689" y="634" on="1"/>
        <pt x="689" y="536" on="1"/>
        <pt x="616" y="536" on="1"/>
        <pt x="616" y="0" on="1"/>
      </contour>
      <contour>
        <pt x="479" y="427" on="1"/>
        <pt x="479" y="542" on="1"/>
        <pt x="230" y="542" on="1"/>
        <pt x="230" y="427" on="1"/>
      </contour>
    </TTGlyph>
    <TTGlyph name="Hbar.flat" xMin="19" yMin="0" xMax="689" yMax="725">
      <contour>
        <pt x="479" y="0" on="1"/>
        <pt x="479" y="308" on="1"/>
        <pt x="230" y="308" on="1"/>
        <pt x="230" y="0" on="1"/>
        <pt x="93" y="0" on="1"/>
        <pt x="93" y="536" on="1"/>
        <pt x="19" y="536" on="1"/>
        <pt x="19" y="634" on="1"/>
        <pt x="93" y="634" on="1"/>
        <pt x="93" y="725" on="1"/>
        <pt x="230" y="725" on="1"/>
        <pt x="230" y="634" on="1"/>
        <pt x="479" y="634" on="1"/>
        <pt x="479" y="725" on="1"/>
        <pt x="616" y="725" on="1"/>
        <pt x="616" y="634" on="1"/>
        <pt x="689" y="634" on="1"/>
        <pt x="689" y="536" on="1"/>
        <pt x="616" y="536" on="1"/>
        <pt x="616" y="0" on="1"/>
      </contour>
      <contour>
        <pt x="479" y="427" on="1"/>
        <pt x="479" y="542" on="1"/>
        <pt x="230" y="542" on="1"/>
        <pt x="230" y="427" on="1"/>
      </contour>
    </TTGlyph>
    <TTGlyph name="I" xMin="75" yMin="0" xMax="212" yMax="725">
      <contour>
        <pt x="75" y="0" on="1"/>
        <pt x="75" y="725" on="1"/>
        <pt x="212" y="725" on="1"/>
        <pt x="212" y="0" on="1"/>
      </contour>
    </TTGlyph>
    <TTGlyph name="Iacute" xMin="75" yMin="0" xMax="311" yMax="933">
      <component glyphName="I" x="0" y="0" flags="0x204"/>
      <component glyphName="acute.cap" x="-24" y="208" flags="0x4"/>
    </TTGlyph>
    <TTGlyph name="Ibreve" xMin="-1" yMin="0" xMax="289" yMax="920">
      <component glyphName="I" x="0" y="0" flags="0x204"/>
      <component glyphName="breve.cap" x="-77" y="208" flags="0x4"/>
    </TTGlyph>
    <TTGlyph name="Icircumflex" xMin="-7" yMin="0" xMax="295" yMax="927">
      <component glyphName="I" x="0" y="0" flags="0x204"/>
      <component glyphName="circumflex.cap" x="-77" y="208" flags="0x4"/>
    </TTGlyph>
    <TTGlyph name="Idieresis" xMin="-3" yMin="0" xMax="291" yMax="900">
      <component glyphName="I" x="0" y="0" flags="0x204"/>
      <component glyphName="dieresis.cap" x="-77" y="208" flags="0x4"/>
    </TTGlyph>
    <TTGlyph name="Idotaccent" xMin="75" yMin="0" xMax="212" yMax="900">
      <component glyphName="I" x="0" y="0" flags="0x204"/>
      <component glyphName="dotaccent.cap" x="-77" y="208" flags="0x4"/>
    </TTGlyph>
    <TTGlyph name="Igrave" xMin="-24" yMin="0" xMax="212" yMax="933">
      <component glyphName="I" x="0" y="0" flags="0x204"/>
      <component glyphName="grave.cap" x="-130" y="208" flags="0x4"/>
    </TTGlyph>
    <TTGlyph name="Imacron" xMin="3" yMin="0" xMax="286" yMax="884">
      <component glyphName="I" x="0" y="0" flags="0x204"/>
      <component glyphName="macron.cap" x="-77" y="208" flags="0x4"/>
    </TTGlyph>
    <TTGlyph name="Iogonek" xMin="47" yMin="-199" xMax="225" yMax="725">
      <contour>
        <pt x="225" y="-182" on="1"/>
        <pt x="204" y="-190" on="0"/>
        <pt x="162" y="-199" on="0"/>
        <pt x="139" y="-199" on="1"/>
        <pt x="95" y="-199" on="0"/>
        <pt x="47" y="-159" on="0"/>
        <pt x="47" y="-119" on="1"/>
        <pt x="47" y="-91" on="0"/>
        <pt x="76" y="-33" on="0"/>
        <pt x="105" y="0" on="1"/>
        <pt x="75" y="0" on="1"/>
        <pt x="75" y="725" on="1"/>
        <pt x="212" y="725" on="1"/>
        <pt x="212" y="0" on="1"/>
        <pt x="185" y="0" on="1"/>
        <pt x="173" y="-18" on="1"/>
        <pt x="159" y="-41" on="0"/>
        <pt x="142" y="-74" on="0"/>
        <pt x="142" y="-90" on="1"/>
        <pt x="142" y="-122" on="0"/>
        <pt x="182" y="-122" on="1"/>
        <pt x="193" y="-122" on="0"/>
        <pt x="213" y="-119" on="0"/>
        <pt x="225" y="-117" on="1"/>
        <pt x="225" y="-182" on="1"/>
      </contour>
    </TTGlyph>
    <TTGlyph name="J" xMin="23" yMin="-7" xMax="321" yMax="725">
      <contour>
        <pt x="321" y="190" on="1"/>
        <pt x="321" y="85" on="0"/>
        <pt x="210" y="-7" on="0"/>
        <pt x="117" y="-7" on="1"/>
        <pt x="97" y="-7" on="0"/>
        <pt x="55" y="-4" on="0"/>
        <pt x="42" y="-1" on="1"/>
        <pt x="23" y="119" on="1"/>
        <pt x="39" y="115" on="0"/>
        <pt x="70" y="111" on="0"/>
        <pt x="93" y="111" on="1"/>
        <pt x="136" y="111" on="0"/>
        <pt x="184" y="153" on="0"/>
        <pt x="184" y="206" on="1"/>
        <pt x="184" y="725" on="1"/>
        <pt x="321" y="725" on="1"/>
      </contour>
    </TTGlyph>
    <TTGlyph name="K" xMin="71" yMin="-8" xMax="590" yMax="725">
      <contour>
        <pt x="446" y="-8" on="1"/>
        <pt x="208" y="351" on="1"/>
        <pt x="208" y="0" on="1"/>
        <pt x="71" y="0" on="1"/>
        <pt x="71" y="725" on="1"/>
        <pt x="208" y="725" on="1"/>
        <pt x="208" y="408" on="1"/>
        <pt x="423" y="725" on="1"/>
        <pt x="577" y="725" on="1"/>
        <pt x="338" y="387" on="1"/>
        <pt x="590" y="18" on="1"/>
      </contour>
    </TTGlyph>
    <TTGlyph name="K.flat" xMin="71" yMin="0" xMax="601" yMax="725">
      <contour>
        <pt x="440" y="0" on="1"/>
        <pt x="208" y="351" on="1"/>
        <pt x="208" y="0" on="1"/>
        <pt x="71" y="0" on="1"/>
        <pt x="71" y="725" on="1"/>
        <pt x="208" y="725" on="1"/>
        <pt x="208" y="408" on="1"/>
        <pt x="423" y="725" on="1"/>
        <pt x="577" y="725" on="1"/>
        <pt x="338" y="387" on="1"/>
        <pt x="601" y="0" on="1"/>
      </contour>
    </TTGlyph>
    <TTGlyph name="Kcommaaccent" xMin="71" yMin="-246" xMax="590" yMax="725">
      <component glyphName="K" x="0" y="0" flags="0x204"/>
      <component glyphName="commaaccent.cap" x="91" y="7" flags="0x4"/>
    </TTGlyph>
    <TTGlyph name="Kcommaaccent.flat" xMin="71" yMin="-246" xMax="601" yMax="725">
      <component glyphName="K.flat" x="0" y="0" flags="0x204"/>
      <component glyphName="commaaccent.cap" x="91" y="7" flags="0x4"/>
    </TTGlyph>
    <TTGlyph name="L" xMin="71" yMin="0" xMax="440" yMax="725">
      <contour>
        <pt x="71" y="0" on="1"/>
        <pt x="71" y="725" on="1"/>
        <pt x="208" y="725" on="1"/>
        <pt x="208" y="123" on="1"/>
        <pt x="421" y="123" on="1"/>
        <pt x="440" y="0" on="1"/>
      </contour>
    </TTGlyph>
    <TTGlyph name="L.flat" xMin="71" yMin="0" xMax="432" yMax="725">
      <contour>
        <pt x="71" y="0" on="1"/>
        <pt x="71" y="725" on="1"/>
        <pt x="208" y="725" on="1"/>
        <pt x="208" y="123" on="1"/>
        <pt x="432" y="123" on="1"/>
        <pt x="432" y="0" on="1"/>
      </contour>
    </TTGlyph>
    <TTGlyph name="Lacute" xMin="71" yMin="0" xMax="440" yMax="933">
      <component glyphName="acute.cap" x="-8" y="208" flags="0x4"/>
      <component glyphName="L" x="0" y="0" flags="0x4"/>
    </TTGlyph>
    <TTGlyph name="Lacute.flat" xMin="71" yMin="0" xMax="432" yMax="933">
      <component glyphName="acute.cap" x="-8" y="208" flags="0x4"/>
      <component glyphName="L.flat" x="0" y="0" flags="0x4"/>
    </TTGlyph>
    <TTGlyph name="Lcaron" xMin="71" yMin="0" xMax="440" yMax="734">
      <component glyphName="L" x="0" y="0" flags="0x204"/>
      <component glyphName="caron.alt.cap" x="102" y="-17" flags="0x4"/>
    </TTGlyph>
    <TTGlyph name="Lcaron.flat" xMin="71" yMin="0" xMax="432" yMax="734">
      <component glyphName="L.flat" x="0" y="0" flags="0x204"/>
      <component glyphName="caron.alt.cap" x="102" y="-17" flags="0x4"/>
    </TTGlyph>
    <TTGlyph name="Lcommaaccent" xMin="71" yMin="-255" xMax="440" yMax="725">
      <component glyphName="L" x="0" y="0" flags="0x204"/>
      <component glyphName="commaaccent.cap" x="33" y="-2" flags="0x4"/>
    </TTGlyph>
    <TTGlyph name="Lcommaaccent.flat" xMin="71" yMin="-255" xMax="432" yMax="725">
      <component glyphName="L.flat" x="0" y="0" flags="0x204"/>
      <component glyphName="commaaccent.cap" x="33" y="-2" flags="0x4"/>
    </TTGlyph>
    <TTGlyph name="Ldot" xMin="71" yMin="0" xMax="440" yMax="725">
      <contour>
        <pt x="310" y="320" on="1"/>
        <pt x="310" y="442" on="1"/>
        <pt x="423" y="442" on="1"/>
        <pt x="423" y="320" on="1"/>
      </contour>
      <contour>
        <pt x="71" y="0" on="1"/>
        <pt x="71" y="725" on="1"/>
        <pt x="208" y="725" on="1"/>
        <pt x="208" y="123" on="1"/>
        <pt x="421" y="123" on="1"/>
        <pt x="440" y="0" on="1"/>
      </contour>
    </TTGlyph>
    <TTGlyph name="Ldot.flat" xMin="71" yMin="0" xMax="432" yMax="725">
      <contour>
        <pt x="310" y="320" on="1"/>
        <pt x="310" y="442" on="1"/>
        <pt x="423" y="442" on="1"/>
        <pt x="423" y="320" on="1"/>
      </contour>
      <contour>
        <pt x="71" y="0" on="1"/>
        <pt x="71" y="725" on="1"/>
        <pt x="208" y="725" on="1"/>
        <pt x="208" y="123" on="1"/>
        <pt x="432" y="123" on="1"/>
        <pt x="432" y="0" on="1"/>
      </contour>
    </TTGlyph>
    <TTGlyph name="Lslash" xMin="15" yMin="0" xMax="463" yMax="725">
      <contour>
        <pt x="231" y="335" on="1"/>
        <pt x="231" y="123" on="1"/>
        <pt x="444" y="123" on="1"/>
        <pt x="463" y="0" on="1"/>
        <pt x="95" y="0" on="1"/>
        <pt x="95" y="266" on="1"/>
        <pt x="33" y="234" on="1"/>
        <pt x="15" y="344" on="1"/>
        <pt x="95" y="384" on="1"/>
        <pt x="95" y="725" on="1"/>
        <pt x="231" y="725" on="1"/>
        <pt x="231" y="452" on="1"/>
        <pt x="357" y="517" on="1"/>
        <pt x="357" y="398" on="1"/>
      </contour>
    </TTGlyph>
    <TTGlyph name="Lslash.flat" xMin="23" yMin="0" xMax="458" yMax="725">
      <contour>
        <pt x="231" y="335" on="1"/>
        <pt x="231" y="123" on="1"/>
        <pt x="454" y="123" on="1"/>
        <pt x="458" y="0" on="1"/>
        <pt x="95" y="0" on="1"/>
        <pt x="95" y="266" on="1"/>
        <pt x="23" y="229" on="1"/>
        <pt x="23" y="349" on="1"/>
        <pt x="95" y="385" on="1"/>
        <pt x="95" y="725" on="1"/>
        <pt x="231" y="725" on="1"/>
        <pt x="231" y="452" on="1"/>
        <pt x="357" y="517" on="1"/>
        <pt x="357" y="398" on="1"/>
      </contour>
    </TTGlyph>
    <TTGlyph name="M" xMin="54" yMin="-2" xMax="800" yMax="725">
      <contour>
        <pt x="667" y="0" on="1"/>
        <pt x="637" y="541" on="1"/>
        <pt x="483" y="-2" on="1"/>
        <pt x="358" y="-2" on="1"/>
        <pt x="205" y="541" on="1"/>
        <pt x="175" y="0" on="1"/>
        <pt x="54" y="0" on="1"/>
        <pt x="97" y="725" on="1"/>
        <pt x="274" y="725" on="1"/>
        <pt x="428" y="179" on="1"/>
        <pt x="583" y="725" on="1"/>
        <pt x="756" y="725" on="1"/>
        <pt x="800" y="0" on="1"/>
      </contour>
    </TTGlyph>
    <TTGlyph name="M.alt" xMin="71" yMin="-4" xMax="781" yMax="725">
      <contour>
        <pt x="650" y="0" on="1"/>
        <pt x="651" y="541" on="1"/>
        <pt x="480" y="-4" on="1"/>
        <pt x="361" y="-4" on="1"/>
        <pt x="190" y="541" on="1"/>
        <pt x="191" y="0" on="1"/>
        <pt x="71" y="0" on="1"/>
        <pt x="71" y="725" on="1"/>
        <pt x="256" y="725" on="1"/>
        <pt x="427" y="183" on="1"/>
        <pt x="599" y="725" on="1"/>
        <pt x="781" y="725" on="1"/>
        <pt x="781" y="0" on="1"/>
      </contour>
    </TTGlyph>
    <TTGlyph name="N" xMin="71" yMin="0" xMax="593" yMax="725">
      <contour>
        <pt x="475" y="0" on="1"/>
        <pt x="196" y="489" on="1"/>
        <pt x="198" y="0" on="1"/>
        <pt x="71" y="0" on="1"/>
        <pt x="71" y="725" on="1"/>
        <pt x="203" y="725" on="1"/>
        <pt x="468" y="259" on="1"/>
        <pt x="467" y="725" on="1"/>
        <pt x="593" y="725" on="1"/>
        <pt x="593" y="0" on="1"/>
      </contour>
    </TTGlyph>
    <TTGlyph name="Nacute" xMin="71" yMin="0" xMax="593" yMax="927">
      <component glyphName="acute.cap" x="166" y="202" flags="0x4"/>
      <component glyphName="N" x="0" y="0" flags="0x4"/>
    </TTGlyph>
    <TTGlyph name="Ncaron" xMin="71" yMin="0" xMax="593" yMax="921">
      <component glyphName="caron.cap" x="112" y="202" flags="0x4"/>
      <component glyphName="N" x="0" y="0" flags="0x4"/>
    </TTGlyph>
    <TTGlyph name="Ncommaaccent" xMin="71" yMin="-246" xMax="593" yMax="725">
      <component glyphName="commaaccent.cap" x="112" y="7" flags="0x4"/>
      <component glyphName="N" x="0" y="0" flags="0x4"/>
    </TTGlyph>
    <TTGlyph name="Ntilde" xMin="71" yMin="0" xMax="593" yMax="918">
      <component glyphName="tilde.cap" x="116" y="202" flags="0x4"/>
      <component glyphName="N" x="0" y="0" flags="0x4"/>
    </TTGlyph>
    <TTGlyph name="O" xMin="46" yMin="-14" xMax="643" yMax="738">
      <contour>
        <pt x="643" y="363" on="1"/>
        <pt x="643" y="278" on="0"/>
        <pt x="602" y="139" on="0"/>
        <pt x="524" y="40" on="0"/>
        <pt x="413" y="-14" on="0"/>
        <pt x="343" y="-14" on="1"/>
        <pt x="273" y="-14" on="0"/>
        <pt x="163" y="40" on="0"/>
        <pt x="86" y="138" on="0"/>
        <pt x="46" y="276" on="0"/>
        <pt x="46" y="361" on="1"/>
        <pt x="46" y="446" on="0"/>
        <pt x="87" y="586" on="0"/>
        <pt x="164" y="684" on="0"/>
        <pt x="275" y="738" on="0"/>
        <pt x="345" y="738" on="1"/>
        <pt x="415" y="738" on="0"/>
        <pt x="525" y="685" on="0"/>
        <pt x="602" y="587" on="0"/>
        <pt x="643" y="448" on="0"/>
      </contour>
      <contour>
        <pt x="503" y="362" on="1"/>
        <pt x="503" y="422" on="0"/>
        <pt x="481" y="519" on="0"/>
        <pt x="441" y="587" on="0"/>
        <pt x="381" y="624" on="0"/>
        <pt x="344" y="624" on="1"/>
        <pt x="268" y="624" on="0"/>
        <pt x="185" y="483" on="0"/>
        <pt x="185" y="362" on="1"/>
        <pt x="185" y="302" on="0"/>
        <pt x="207" y="205" on="0"/>
        <pt x="247" y="138" on="0"/>
        <pt x="306" y="101" on="0"/>
        <pt x="344" y="101" on="1"/>
        <pt x="382" y="101" on="0"/>
        <pt x="441" y="138" on="0"/>
        <pt x="482" y="205" on="0"/>
        <pt x="503" y="302" on="0"/>
      </contour>
    </TTGlyph>
    <TTGlyph name="OE" xMin="46" yMin="0" xMax="814" yMax="725">
      <contour>
        <pt x="394" y="0" on="1"/>
        <pt x="307" y="0" on="0"/>
        <pt x="176" y="51" on="0"/>
        <pt x="89" y="146" on="0"/>
        <pt x="46" y="279" on="0"/>
        <pt x="46" y="361" on="1"/>
        <pt x="46" y="444" on="0"/>
        <pt x="91" y="578" on="0"/>
        <pt x="180" y="673" on="0"/>
        <pt x="311" y="725" on="0"/>
        <pt x="398" y="725" on="1"/>
        <pt x="804" y="725" on="1"/>
        <pt x="804" y="609" on="1"/>
        <pt x="555" y="609" on="1"/>
        <pt x="555" y="434" on="1"/>
        <pt x="744" y="434" on="1"/>
        <pt x="763" y="318" on="1"/>
        <pt x="555" y="318" on="1"/>
        <pt x="555" y="116" on="1"/>
        <pt x="814" y="116" on="1"/>
        <pt x="814" y="0" on="1"/>
      </contour>
      <contour>
        <pt x="421" y="611" on="1"/>
        <pt x="393" y="611" on="1"/>
        <pt x="296" y="611" on="0"/>
        <pt x="185" y="492" on="0"/>
        <pt x="185" y="362" on="1"/>
        <pt x="185" y="235" on="0"/>
        <pt x="297" y="114" on="0"/>
        <pt x="392" y="114" on="1"/>
        <pt x="421" y="114" on="1"/>
      </contour>
    </TTGlyph>
    <TTGlyph name="OE.flat" xMin="46" yMin="0" xMax="814" yMax="725">
      <contour>
        <pt x="394" y="0" on="1"/>
        <pt x="307" y="0" on="0"/>
        <pt x="176" y="51" on="0"/>
        <pt x="89" y="146" on="0"/>
        <pt x="46" y="279" on="0"/>
        <pt x="46" y="361" on="1"/>
        <pt x="46" y="444" on="0"/>
        <pt x="91" y="578" on="0"/>
        <pt x="180" y="673" on="0"/>
        <pt x="311" y="725" on="0"/>
        <pt x="398" y="725" on="1"/>
        <pt x="804" y="725" on="1"/>
        <pt x="804" y="609" on="1"/>
        <pt x="555" y="609" on="1"/>
        <pt x="555" y="434" on="1"/>
        <pt x="754" y="434" on="1"/>
        <pt x="754" y="318" on="1"/>
        <pt x="555" y="318" on="1"/>
        <pt x="555" y="116" on="1"/>
        <pt x="814" y="116" on="1"/>
        <pt x="814" y="0" on="1"/>
      </contour>
      <contour>
        <pt x="421" y="611" on="1"/>
        <pt x="393" y="611" on="1"/>
        <pt x="296" y="611" on="0"/>
        <pt x="185" y="492" on="0"/>
        <pt x="185" y="362" on="1"/>
        <pt x="185" y="235" on="0"/>
        <pt x="297" y="114" on="0"/>
        <pt x="392" y="114" on="1"/>
        <pt x="421" y="114" on="1"/>
      </contour>
    </TTGlyph>
    <TTGlyph name="Oacute" xMin="46" yMin="-14" xMax="643" yMax="941">
      <component glyphName="acute.cap" x="176" y="216" flags="0x4"/>
      <component glyphName="O" x="0" y="0" flags="0x4"/>
    </TTGlyph>
    <TTGlyph name="Obreve" xMin="46" yMin="-14" xMax="643" yMax="928">
      <component glyphName="breve.cap" x="123" y="216" flags="0x4"/>
      <component glyphName="O" x="0" y="0" flags="0x4"/>
    </TTGlyph>
    <TTGlyph name="Ocircumflex" xMin="46" yMin="-14" xMax="643" yMax="935">
      <component glyphName="O" x="0" y="0" flags="0x204"/>
      <component glyphName="circumflex.cap" x="123" y="216" flags="0x4"/>
    </TTGlyph>
    <TTGlyph name="Odieresis" xMin="46" yMin="-14" xMax="643" yMax="908">
      <component glyphName="dieresis.cap" x="123" y="216" flags="0x4"/>
      <component glyphName="O" x="0" y="0" flags="0x4"/>
    </TTGlyph>
    <TTGlyph name="Ograve" xMin="46" yMin="-14" xMax="643" yMax="941">
      <component glyphName="grave.cap" x="70" y="216" flags="0x4"/>
      <component glyphName="O" x="0" y="0" flags="0x4"/>
    </TTGlyph>
    <TTGlyph name="Ohungarumlaut" xMin="46" yMin="-14" xMax="643" yMax="941">
      <component glyphName="O" x="0" y="0" flags="0x204"/>
      <component glyphName="hungarumlaut.cap" x="174" y="216" flags="0x4"/>
    </TTGlyph>
    <TTGlyph name="Omacron" xMin="46" yMin="-14" xMax="643" yMax="892">
      <component glyphName="macron.cap" x="123" y="216" flags="0x4"/>
      <component glyphName="O" x="0" y="0" flags="0x4"/>
    </TTGlyph>
    <TTGlyph name="Oslash" xMin="34" yMin="-14" xMax="653" yMax="738">
      <contour>
        <pt x="643" y="363" on="1"/>
        <pt x="643" y="278" on="0"/>
        <pt x="601" y="139" on="0"/>
        <pt x="523" y="40" on="0"/>
        <pt x="412" y="-14" on="0"/>
        <pt x="343" y="-14" on="1"/>
        <pt x="292" y="-14" on="0"/>
        <pt x="205" y="16" on="0"/>
        <pt x="170" y="44" on="1"/>
        <pt x="131" y="-10" on="1"/>
        <pt x="34" y="13" on="1"/>
        <pt x="108" y="115" on="1"/>
        <pt x="78" y="163" on="0"/>
        <pt x="46" y="287" on="0"/>
        <pt x="46" y="362" on="1"/>
        <pt x="46" y="447" on="0"/>
        <pt x="87" y="586" on="0"/>
        <pt x="164" y="685" on="0"/>
        <pt x="275" y="738" on="0"/>
        <pt x="344" y="738" on="1"/>
        <pt x="395" y="738" on="0"/>
        <pt x="483" y="708" on="0"/>
        <pt x="518" y="680" on="1"/>
        <pt x="557" y="734" on="1"/>
        <pt x="653" y="712" on="1"/>
        <pt x="580" y="611" on="1"/>
        <pt x="643" y="513" on="0"/>
      </contour>
      <contour>
        <pt x="344" y="626" on="1"/>
        <pt x="267" y="626" on="0"/>
        <pt x="182" y="486" on="0"/>
        <pt x="182" y="362" on="1"/>
        <pt x="182" y="322" on="0"/>
        <pt x="192" y="253" on="0"/>
        <pt x="201" y="224" on="1"/>
        <pt x="447" y="577" on="1"/>
        <pt x="406" y="626" on="0"/>
      </contour>
      <contour>
        <pt x="506" y="362" on="1"/>
        <pt x="506" y="403" on="0"/>
        <pt x="496" y="473" on="0"/>
        <pt x="487" y="502" on="1"/>
        <pt x="241" y="148" on="1"/>
        <pt x="281" y="99" on="0"/>
        <pt x="344" y="99" on="1"/>
        <pt x="382" y="99" on="0"/>
        <pt x="442" y="135" on="0"/>
        <pt x="484" y="203" on="0"/>
        <pt x="506" y="301" on="0"/>
      </contour>
    </TTGlyph>
    <TTGlyph name="Oslashacute" xMin="34" yMin="-14" xMax="653" yMax="941">
      <component glyphName="Oslash" x="0" y="0" flags="0x204"/>
      <component glyphName="acute.cap" x="180" y="216" flags="0x4"/>
    </TTGlyph>
    <TTGlyph name="Otilde" xMin="46" yMin="-14" xMax="643" yMax="932">
      <component glyphName="tilde.cap" x="126" y="216" flags="0x4"/>
      <component glyphName="O" x="0" y="0" flags="0x4"/>
    </TTGlyph>
    <TTGlyph name="P" xMin="71" yMin="0" xMax="515" yMax="725">
      <contour>
        <pt x="515" y="496" on="1"/>
        <pt x="515" y="437" on="0"/>
        <pt x="477" y="348" on="0"/>
        <pt x="407" y="289" on="0"/>
        <pt x="309" y="259" on="0"/>
        <pt x="249" y="259" on="1"/>
        <pt x="207" y="259" on="1"/>
        <pt x="207" y="0" on="1"/>
        <pt x="71" y="0" on="1"/>
        <pt x="71" y="725" on="1"/>
        <pt x="258" y="725" on="1"/>
        <pt x="379" y="725" on="0"/>
        <pt x="515" y="611" on="0"/>
      </contour>
      <contour>
        <pt x="381" y="494" on="1"/>
        <pt x="381" y="614" on="0"/>
        <pt x="250" y="614" on="1"/>
        <pt x="207" y="614" on="1"/>
        <pt x="207" y="370" on="1"/>
        <pt x="247" y="370" on="1"/>
        <pt x="313" y="370" on="0"/>
        <pt x="381" y="430" on="0"/>
      </contour>
    </TTGlyph>
    <TTGlyph name="Q" xMin="46" yMin="-141" xMax="643" yMax="738">
      <contour>
        <pt x="643" y="369" on="1"/>
        <pt x="643" y="239" on="0"/>
        <pt x="552" y="71" on="0"/>
        <pt x="471" y="32" on="1"/>
        <pt x="634" y="-22" on="1"/>
        <pt x="607" y="-141" on="1"/>
        <pt x="276" y="-11" on="1"/>
        <pt x="217" y="12" on="0"/>
        <pt x="131" y="77" on="0"/>
        <pt x="74" y="167" on="0"/>
        <pt x="46" y="285" on="0"/>
        <pt x="46" y="361" on="1"/>
        <pt x="46" y="446" on="0"/>
        <pt x="87" y="586" on="0"/>
        <pt x="164" y="684" on="0"/>
        <pt x="275" y="738" on="0"/>
        <pt x="345" y="738" on="1"/>
        <pt x="415" y="738" on="0"/>
        <pt x="525" y="685" on="0"/>
        <pt x="602" y="588" on="0"/>
        <pt x="643" y="452" on="0"/>
      </contour>
      <contour>
        <pt x="503" y="362" on="1"/>
        <pt x="503" y="422" on="0"/>
        <pt x="481" y="518" on="0"/>
        <pt x="441" y="587" on="0"/>
        <pt x="381" y="624" on="0"/>
        <pt x="344" y="624" on="1"/>
        <pt x="306" y="624" on="0"/>
        <pt x="247" y="587" on="0"/>
        <pt x="206" y="518" on="0"/>
        <pt x="185" y="422" on="0"/>
        <pt x="185" y="362" on="1"/>
        <pt x="185" y="303" on="0"/>
        <pt x="206" y="206" on="0"/>
        <pt x="247" y="136" on="0"/>
        <pt x="306" y="97" on="0"/>
        <pt x="344" y="97" on="1"/>
        <pt x="382" y="97" on="0"/>
        <pt x="441" y="136" on="0"/>
        <pt x="482" y="206" on="0"/>
        <pt x="503" y="303" on="0"/>
      </contour>
    </TTGlyph>
    <TTGlyph name="Q.alt" xMin="45" yMin="-15" xMax="660" yMax="738">
      <contour>
        <pt x="636" y="-15" on="1"/>
        <pt x="540" y="69" on="1"/>
        <pt x="502" y="30" on="0"/>
        <pt x="403" y="-13" on="0"/>
        <pt x="343" y="-13" on="1"/>
        <pt x="273" y="-13" on="0"/>
        <pt x="163" y="40" on="0"/>
        <pt x="86" y="138" on="0"/>
        <pt x="45" y="277" on="0"/>
        <pt x="45" y="362" on="1"/>
        <pt x="45" y="447" on="0"/>
        <pt x="86" y="586" on="0"/>
        <pt x="164" y="684" on="0"/>
        <pt x="275" y="738" on="0"/>
        <pt x="345" y="738" on="1"/>
        <pt x="415" y="738" on="0"/>
        <pt x="526" y="684" on="0"/>
        <pt x="602" y="587" on="0"/>
        <pt x="642" y="449" on="0"/>
        <pt x="642" y="365" on="1"/>
        <pt x="642" y="251" on="0"/>
        <pt x="602" y="162" on="1"/>
        <pt x="660" y="117" on="1"/>
      </contour>
      <contour>
        <pt x="505" y="363" on="1"/>
        <pt x="505" y="484" on="0"/>
        <pt x="420" y="624" on="0"/>
        <pt x="345" y="624" on="1"/>
        <pt x="268" y="624" on="0"/>
        <pt x="184" y="484" on="0"/>
        <pt x="184" y="362" on="1"/>
        <pt x="184" y="240" on="0"/>
        <pt x="269" y="100" on="0"/>
        <pt x="345" y="100" on="1"/>
        <pt x="406" y="100" on="0"/>
        <pt x="448" y="148" on="1"/>
        <pt x="311" y="261" on="1"/>
        <pt x="440" y="298" on="1"/>
        <pt x="494" y="252" on="1"/>
        <pt x="505" y="302" on="0"/>
      </contour>
    </TTGlyph>
    <TTGlyph name="Q.alt_flat" xMin="45" yMin="-17" xMax="652" yMax="738">
      <contour>
        <pt x="652" y="-17" on="1"/>
        <pt x="538" y="69" on="1"/>
        <pt x="500" y="30" on="0"/>
        <pt x="403" y="-13" on="0"/>
        <pt x="343" y="-13" on="1"/>
        <pt x="273" y="-13" on="0"/>
        <pt x="163" y="40" on="0"/>
        <pt x="86" y="138" on="0"/>
        <pt x="45" y="277" on="0"/>
        <pt x="45" y="362" on="1"/>
        <pt x="45" y="447" on="0"/>
        <pt x="86" y="586" on="0"/>
        <pt x="164" y="684" on="0"/>
        <pt x="275" y="738" on="0"/>
        <pt x="345" y="738" on="1"/>
        <pt x="415" y="738" on="0"/>
        <pt x="526" y="684" on="0"/>
        <pt x="602" y="587" on="0"/>
        <pt x="642" y="449" on="0"/>
        <pt x="642" y="365" on="1"/>
        <pt x="642" y="306" on="0"/>
        <pt x="621" y="204" on="0"/>
        <pt x="601" y="160" on="1"/>
        <pt x="652" y="124" on="1"/>
      </contour>
      <contour>
        <pt x="505" y="363" on="1"/>
        <pt x="505" y="484" on="0"/>
        <pt x="420" y="624" on="0"/>
        <pt x="345" y="624" on="1"/>
        <pt x="268" y="624" on="0"/>
        <pt x="184" y="484" on="0"/>
        <pt x="184" y="362" on="1"/>
        <pt x="184" y="240" on="0"/>
        <pt x="269" y="100" on="0"/>
        <pt x="345" y="100" on="1"/>
        <pt x="404" y="100" on="0"/>
        <pt x="442" y="141" on="1"/>
        <pt x="351" y="208" on="1"/>
        <pt x="351" y="344" on="1"/>
        <pt x="491" y="239" on="1"/>
        <pt x="505" y="293" on="0"/>
      </contour>
    </TTGlyph>
    <TTGlyph name="R" xMin="71" yMin="-8" xMax="565" yMax="725">
      <contour>
        <pt x="424" y="-8" on="1"/>
        <pt x="252" y="282" on="1"/>
        <pt x="207" y="282" on="1"/>
        <pt x="207" y="0" on="1"/>
        <pt x="71" y="0" on="1"/>
        <pt x="71" y="725" on="1"/>
        <pt x="272" y="725" on="1"/>
        <pt x="390" y="725" on="0"/>
        <pt x="523" y="614" on="0"/>
        <pt x="523" y="509" on="1"/>
        <pt x="523" y="432" on="0"/>
        <pt x="448" y="333" on="0"/>
        <pt x="385" y="310" on="1"/>
        <pt x="565" y="18" on="1"/>
      </contour>
      <contour>
        <pt x="388" y="501" on="1"/>
        <pt x="388" y="557" on="0"/>
        <pt x="325" y="615" on="0"/>
        <pt x="262" y="615" on="1"/>
        <pt x="206" y="615" on="1"/>
        <pt x="206" y="386" on="1"/>
        <pt x="257" y="386" on="1"/>
        <pt x="320" y="386" on="0"/>
        <pt x="388" y="445" on="0"/>
      </contour>
    </TTGlyph>
    <TTGlyph name="R.flat" xMin="71" yMin="0" xMax="574" yMax="725">
      <contour>
        <pt x="418" y="0" on="1"/>
        <pt x="252" y="282" on="1"/>
        <pt x="207" y="282" on="1"/>
        <pt x="207" y="0" on="1"/>
        <pt x="71" y="0" on="1"/>
        <pt x="71" y="725" on="1"/>
        <pt x="272" y="725" on="1"/>
        <pt x="390" y="725" on="0"/>
        <pt x="523" y="614" on="0"/>
        <pt x="523" y="509" on="1"/>
        <pt x="523" y="432" on="0"/>
        <pt x="448" y="333" on="0"/>
        <pt x="385" y="310" on="1"/>
        <pt x="574" y="0" on="1"/>
      </contour>
      <contour>
        <pt x="388" y="501" on="1"/>
        <pt x="388" y="557" on="0"/>
        <pt x="325" y="615" on="0"/>
        <pt x="262" y="615" on="1"/>
        <pt x="206" y="615" on="1"/>
        <pt x="206" y="386" on="1"/>
        <pt x="257" y="386" on="1"/>
        <pt x="320" y="386" on="0"/>
        <pt x="388" y="445" on="0"/>
      </contour>
    </TTGlyph>
    <TTGlyph name="R_p" xMin="78" yMin="-192" xMax="1015" yMax="717">
      <contour>
        <pt x="256" y="280" on="1"/>
        <pt x="206" y="280" on="1"/>
        <pt x="206" y="0" on="1"/>
        <pt x="78" y="0" on="1"/>
        <pt x="78" y="717" on="1"/>
        <pt x="269" y="717" on="1"/>
        <pt x="387" y="717" on="0"/>
        <pt x="520" y="607" on="0"/>
        <pt x="520" y="504" on="1"/>
        <pt x="520" y="428" on="0"/>
        <pt x="444" y="329" on="0"/>
        <pt x="381" y="306" on="1"/>
        <pt x="556" y="18" on="1"/>
        <pt x="424" y="-8" on="1"/>
      </contour>
      <contour>
        <pt x="1015" y="270" on="1"/>
        <pt x="1015" y="198" on="0"/>
        <pt x="981" y="94" on="0"/>
        <pt x="923" y="26" on="0"/>
        <pt x="847" y="-6" on="0"/>
        <pt x="805" y="-6" on="1"/>
        <pt x="779" y="-6" on="0"/>
        <pt x="736" y="4" on="0"/>
        <pt x="717" y="11" on="1"/>
        <pt x="717" y="-173" on="1"/>
        <pt x="594" y="-192" on="1"/>
        <pt x="594" y="511" on="1"/>
        <pt x="696" y="511" on="1"/>
        <pt x="707" y="449" on="1"/>
        <pt x="732" y="478" on="0"/>
        <pt x="798" y="521" on="0"/>
        <pt x="843" y="521" on="1"/>
        <pt x="879" y="521" on="0"/>
        <pt x="942" y="490" on="0"/>
        <pt x="989" y="428" on="0"/>
        <pt x="1015" y="334" on="0"/>
      </contour>
      <contour>
        <pt x="893" y="262" on="1"/>
        <pt x="893" y="340" on="0"/>
        <pt x="844" y="410" on="0"/>
        <pt x="807" y="410" on="1"/>
        <pt x="781" y="410" on="0"/>
        <pt x="738" y="381" on="0"/>
        <pt x="716" y="355" on="1"/>
        <pt x="716" y="113" on="1"/>
        <pt x="734" y="104" on="0"/>
        <pt x="765" y="96" on="0"/>
        <pt x="787" y="96" on="1"/>
        <pt x="833" y="96" on="0"/>
        <pt x="893" y="176" on="0"/>
      </contour>
      <contour>
        <pt x="259" y="381" on="1"/>
        <pt x="322" y="381" on="0"/>
        <pt x="391" y="440" on="0"/>
        <pt x="391" y="496" on="1"/>
        <pt x="391" y="552" on="0"/>
        <pt x="327" y="610" on="0"/>
        <pt x="264" y="610" on="1"/>
        <pt x="205" y="610" on="1"/>
        <pt x="205" y="381" on="1"/>
      </contour>
    </TTGlyph>
    <TTGlyph name="R_p.flat" xMin="78" yMin="-192" xMax="1015" yMax="717">
      <contour>
        <pt x="256" y="280" on="1"/>
        <pt x="206" y="280" on="1"/>
        <pt x="206" y="0" on="1"/>
        <pt x="78" y="0" on="1"/>
        <pt x="78" y="717" on="1"/>
        <pt x="269" y="717" on="1"/>
        <pt x="387" y="717" on="0"/>
        <pt x="520" y="607" on="0"/>
        <pt x="520" y="504" on="1"/>
        <pt x="520" y="428" on="0"/>
        <pt x="444" y="329" on="0"/>
        <pt x="381" y="306" on="1"/>
        <pt x="566" y="0" on="1"/>
        <pt x="419" y="0" on="1"/>
      </contour>
      <contour>
        <pt x="1015" y="270" on="1"/>
        <pt x="1015" y="198" on="0"/>
        <pt x="981" y="94" on="0"/>
        <pt x="923" y="26" on="0"/>
        <pt x="847" y="-6" on="0"/>
        <pt x="805" y="-6" on="1"/>
        <pt x="779" y="-6" on="0"/>
        <pt x="736" y="4" on="0"/>
        <pt x="717" y="11" on="1"/>
        <pt x="717" y="-173" on="1"/>
        <pt x="594" y="-192" on="1"/>
        <pt x="594" y="511" on="1"/>
        <pt x="696" y="511" on="1"/>
        <pt x="707" y="449" on="1"/>
        <pt x="732" y="478" on="0"/>
        <pt x="798" y="521" on="0"/>
        <pt x="843" y="521" on="1"/>
        <pt x="879" y="521" on="0"/>
        <pt x="942" y="490" on="0"/>
        <pt x="989" y="428" on="0"/>
        <pt x="1015" y="334" on="0"/>
      </contour>
      <contour>
        <pt x="893" y="262" on="1"/>
        <pt x="893" y="340" on="0"/>
        <pt x="844" y="410" on="0"/>
        <pt x="807" y="410" on="1"/>
        <pt x="781" y="410" on="0"/>
        <pt x="738" y="381" on="0"/>
        <pt x="716" y="355" on="1"/>
        <pt x="716" y="113" on="1"/>
        <pt x="734" y="104" on="0"/>
        <pt x="765" y="96" on="0"/>
        <pt x="787" y="96" on="1"/>
        <pt x="833" y="96" on="0"/>
        <pt x="893" y="176" on="0"/>
      </contour>
      <contour>
        <pt x="259" y="381" on="1"/>
        <pt x="322" y="381" on="0"/>
        <pt x="391" y="440" on="0"/>
        <pt x="391" y="496" on="1"/>
        <pt x="391" y="552" on="0"/>
        <pt x="327" y="610" on="0"/>
        <pt x="264" y="610" on="1"/>
        <pt x="205" y="610" on="1"/>
        <pt x="205" y="381" on="1"/>
      </contour>
    </TTGlyph>
    <TTGlyph name="Racute" xMin="71" yMin="-8" xMax="565" yMax="933">
      <component glyphName="R" x="0" y="0" flags="0x204"/>
      <component glyphName="acute.cap" x="114" y="208" flags="0x4"/>
    </TTGlyph>
    <TTGlyph name="Racute.flat" xMin="71" yMin="0" xMax="574" yMax="933">
      <component glyphName="acute.cap" x="114" y="208" flags="0x4"/>
      <component glyphName="R.flat" x="0" y="0" flags="0x4"/>
    </TTGlyph>
    <TTGlyph name="Rcaron" xMin="71" yMin="-8" xMax="565" yMax="927">
      <component glyphName="caron.cap" x="60" y="208" flags="0x4"/>
      <component glyphName="R" x="0" y="0" flags="0x4"/>
    </TTGlyph>
    <TTGlyph name="Rcaron.flat" xMin="71" yMin="0" xMax="574" yMax="927">
      <component glyphName="caron.cap" x="60" y="208" flags="0x4"/>
      <component glyphName="R.flat" x="0" y="0" flags="0x4"/>
    </TTGlyph>
    <TTGlyph name="Rcommaaccent" xMin="71" yMin="-246" xMax="565" yMax="725">
      <component glyphName="R" x="0" y="0" flags="0x204"/>
      <component glyphName="commaaccent.cap" x="76" y="7" flags="0x4"/>
    </TTGlyph>
    <TTGlyph name="Rcommaaccent.flat" xMin="71" yMin="-246" xMax="574" yMax="725">
      <component glyphName="R.flat" x="0" y="0" flags="0x204"/>
      <component glyphName="commaaccent.cap" x="76" y="7" flags="0x4"/>
    </TTGlyph>
    <TTGlyph name="S" xMin="41" yMin="-9" xMax="476" yMax="734">
      <contour>
        <pt x="476" y="201" on="1"/>
        <pt x="476" y="152" on="0"/>
        <pt x="442" y="74" on="0"/>
        <pt x="381" y="20" on="0"/>
        <pt x="295" y="-9" on="0"/>
        <pt x="244" y="-9" on="1"/>
        <pt x="186" y="-9" on="0"/>
        <pt x="86" y="16" on="0"/>
        <pt x="41" y="39" on="1"/>
        <pt x="61" y="163" on="1"/>
        <pt x="105" y="138" on="0"/>
        <pt x="196" y="105" on="0"/>
        <pt x="243" y="105" on="1"/>
        <pt x="288" y="105" on="0"/>
        <pt x="343" y="149" on="0"/>
        <pt x="343" y="189" on="1"/>
        <pt x="343" y="208" on="0"/>
        <pt x="332" y="240" on="0"/>
        <pt x="305" y="269" on="0"/>
        <pt x="260" y="299" on="0"/>
        <pt x="226" y="318" on="1"/>
        <pt x="182" y="342" on="0"/>
        <pt x="117" y="386" on="0"/>
        <pt x="75" y="437" on="0"/>
        <pt x="54" y="497" on="0"/>
        <pt x="54" y="537" on="1"/>
        <pt x="54" y="582" on="0"/>
        <pt x="86" y="655" on="0"/>
        <pt x="144" y="706" on="0"/>
        <pt x="225" y="734" on="0"/>
        <pt x="274" y="734" on="1"/>
        <pt x="327" y="734" on="0"/>
        <pt x="408" y="713" on="0"/>
        <pt x="445" y="693" on="1"/>
        <pt x="424" y="570" on="1"/>
        <pt x="388" y="594" on="0"/>
        <pt x="312" y="620" on="0"/>
        <pt x="276" y="620" on="1"/>
        <pt x="232" y="620" on="0"/>
        <pt x="187" y="578" on="0"/>
        <pt x="187" y="546" on="1"/>
        <pt x="187" y="528" on="0"/>
        <pt x="198" y="501" on="0"/>
        <pt x="224" y="474" on="0"/>
        <pt x="267" y="446" on="0"/>
        <pt x="300" y="428" on="1"/>
        <pt x="347" y="402" on="0"/>
        <pt x="414" y="355" on="0"/>
        <pt x="456" y="302" on="0"/>
        <pt x="476" y="241" on="0"/>
      </contour>
    </TTGlyph>
    <TTGlyph name="Sacute" xMin="41" yMin="-9" xMax="476" yMax="941">
      <component glyphName="S" x="0" y="0" flags="0x204"/>
      <component glyphName="acute.cap" x="101" y="216" flags="0x4"/>
    </TTGlyph>
    <TTGlyph name="Scaron" xMin="41" yMin="-9" xMax="476" yMax="935">
      <component glyphName="S" x="0" y="0" flags="0x204"/>
      <component glyphName="caron.cap" x="48" y="216" flags="0x4"/>
    </TTGlyph>
    <TTGlyph name="Scedilla" xMin="41" yMin="-198" xMax="476" yMax="734">
      <component glyphName="S" x="0" y="0" flags="0x204"/>
      <component glyphName="cedilla.cap" x="26" y="-4" flags="0x4"/>
    </TTGlyph>
    <TTGlyph name="Scommaaccent" xMin="41" yMin="-259" xMax="476" yMax="734">
      <component glyphName="S" x="0" y="0" flags="0x204"/>
      <component glyphName="commaaccent.cap" x="41" y="-6" flags="0x4"/>
    </TTGlyph>
    <TTGlyph name="T" xMin="29" yMin="0" xMax="544" yMax="725">
      <contour>
        <pt x="351" y="605" on="1"/>
        <pt x="351" y="0" on="1"/>
        <pt x="214" y="0" on="1"/>
        <pt x="214" y="605" on="1"/>
        <pt x="29" y="605" on="1"/>
        <pt x="29" y="725" on="1"/>
        <pt x="524" y="725" on="1"/>
        <pt x="544" y="605" on="1"/>
      </contour>
    </TTGlyph>
    <TTGlyph name="T.flat" xMin="29" yMin="0" xMax="537" yMax="725">
      <contour>
        <pt x="351" y="605" on="1"/>
        <pt x="351" y="0" on="1"/>
        <pt x="214" y="0" on="1"/>
        <pt x="214" y="605" on="1"/>
        <pt x="29" y="605" on="1"/>
        <pt x="29" y="725" on="1"/>
        <pt x="537" y="725" on="1"/>
        <pt x="537" y="605" on="1"/>
      </contour>
    </TTGlyph>
    <TTGlyph name="Tcaron" xMin="29" yMin="0" xMax="544" yMax="927">
      <component glyphName="caron.cap" x="64" y="208" flags="0x4"/>
      <component glyphName="T" x="0" y="0" flags="0x4"/>
    </TTGlyph>
    <TTGlyph name="Tcaron.flat" xMin="29" yMin="0" xMax="537" yMax="927">
      <component glyphName="caron.cap" x="63" y="208" flags="0x4"/>
      <component glyphName="T.flat" x="0" y="0" flags="0x4"/>
    </TTGlyph>
    <TTGlyph name="Tcommaaccent" xMin="29" yMin="-255" xMax="544" yMax="725">
      <component glyphName="T" x="0" y="0" flags="0x204"/>
      <component glyphName="commaaccent.cap" x="64" y="-2" flags="0x4"/>
    </TTGlyph>
    <TTGlyph name="Tcommaaccent.flat" xMin="29" yMin="-255" xMax="537" yMax="725">
      <component glyphName="T.flat" x="0" y="0" flags="0x204"/>
      <component glyphName="commaaccent.cap" x="63" y="-2" flags="0x4"/>
    </TTGlyph>
    <TTGlyph name="Thorn" xMin="71" yMin="0" xMax="515" yMax="725">
      <contour>
        <pt x="515" y="376" on="1"/>
        <pt x="515" y="317" on="0"/>
        <pt x="477" y="228" on="0"/>
        <pt x="407" y="169" on="0"/>
        <pt x="308" y="139" on="0"/>
        <pt x="248" y="139" on="1"/>
        <pt x="207" y="139" on="1"/>
        <pt x="207" y="0" on="1"/>
        <pt x="71" y="0" on="1"/>
        <pt x="71" y="725" on="1"/>
        <pt x="207" y="725" on="1"/>
        <pt x="207" y="604" on="1"/>
        <pt x="257" y="604" on="1"/>
        <pt x="378" y="604" on="0"/>
        <pt x="515" y="490" on="0"/>
      </contour>
      <contour>
        <pt x="381" y="374" on="1"/>
        <pt x="381" y="493" on="0"/>
        <pt x="250" y="493" on="1"/>
        <pt x="207" y="493" on="1"/>
        <pt x="207" y="250" on="1"/>
        <pt x="247" y="250" on="1"/>
        <pt x="313" y="250" on="0"/>
        <pt x="381" y="310" on="0"/>
      </contour>
    </TTGlyph>
    <TTGlyph name="U" xMin="65" yMin="-13" xMax="586" yMax="725">
      <contour>
        <pt x="586" y="256" on="1"/>
        <pt x="586" y="126" on="0"/>
        <pt x="448" y="-13" on="0"/>
        <pt x="325" y="-13" on="1"/>
        <pt x="200" y="-13" on="0"/>
        <pt x="65" y="124" on="0"/>
        <pt x="65" y="253" on="1"/>
        <pt x="65" y="725" on="1"/>
        <pt x="203" y="725" on="1"/>
        <pt x="203" y="256" on="1"/>
        <pt x="203" y="187" on="0"/>
        <pt x="261" y="106" on="0"/>
        <pt x="325" y="106" on="1"/>
        <pt x="389" y="106" on="0"/>
        <pt x="449" y="184" on="0"/>
        <pt x="449" y="254" on="1"/>
        <pt x="449" y="725" on="1"/>
        <pt x="586" y="725" on="1"/>
      </contour>
    </TTGlyph>
    <TTGlyph name="U.alt" xMin="67" yMin="-8" xMax="585" yMax="725">
      <contour>
        <pt x="461" y="65" on="1"/>
        <pt x="415" y="32" on="0"/>
        <pt x="321" y="-8" on="0"/>
        <pt x="265" y="-8" on="1"/>
        <pt x="221" y="-8" on="0"/>
        <pt x="148" y="16" on="0"/>
        <pt x="96" y="68" on="0"/>
        <pt x="67" y="147" on="0"/>
        <pt x="67" y="203" on="1"/>
        <pt x="67" y="725" on="1"/>
        <pt x="203" y="725" on="1"/>
        <pt x="203" y="221" on="1"/>
        <pt x="203" y="113" on="0"/>
        <pt x="299" y="113" on="1"/>
        <pt x="336" y="113" on="0"/>
        <pt x="408" y="147" on="0"/>
        <pt x="448" y="176" on="1"/>
        <pt x="448" y="725" on="1"/>
        <pt x="585" y="725" on="1"/>
        <pt x="585" y="0" on="1"/>
        <pt x="471" y="0" on="1"/>
      </contour>
    </TTGlyph>
    <TTGlyph name="Uacute" xMin="65" yMin="-13" xMax="586" yMax="927">
      <component glyphName="acute.cap" x="158" y="202" flags="0x4"/>
      <component glyphName="U" x="0" y="0" flags="0x4"/>
    </TTGlyph>
    <TTGlyph name="Uacute.alt" xMin="67" yMin="-8" xMax="585" yMax="927">
      <component glyphName="acute.cap" x="159" y="202" flags="0x4"/>
      <component glyphName="U.alt" x="0" y="0" flags="0x4"/>
    </TTGlyph>
    <TTGlyph name="Ubreve" xMin="65" yMin="-13" xMax="586" yMax="910">
      <component glyphName="breve.cap" x="105" y="198" flags="0x4"/>
      <component glyphName="U" x="0" y="0" flags="0x4"/>
    </TTGlyph>
    <TTGlyph name="Ubreve.alt" xMin="67" yMin="-8" xMax="585" yMax="910">
      <component glyphName="breve.cap" x="105" y="198" flags="0x4"/>
      <component glyphName="U.alt" x="0" y="0" flags="0x4"/>
    </TTGlyph>
    <TTGlyph name="Ucircumflex" xMin="65" yMin="-13" xMax="586" yMax="921">
      <component glyphName="U" x="0" y="0" flags="0x204"/>
      <component glyphName="circumflex.cap" x="105" y="202" flags="0x4"/>
    </TTGlyph>
    <TTGlyph name="Ucircumflex.alt" xMin="67" yMin="-8" xMax="585" yMax="921">
      <component glyphName="circumflex.cap" x="105" y="202" flags="0x4"/>
      <component glyphName="U.alt" x="0" y="0" flags="0x4"/>
    </TTGlyph>
    <TTGlyph name="Udieresis" xMin="65" yMin="-13" xMax="586" yMax="894">
      <component glyphName="dieresis.cap" x="105" y="202" flags="0x4"/>
      <component glyphName="U" x="0" y="0" flags="0x4"/>
    </TTGlyph>
    <TTGlyph name="Udieresis.alt" xMin="67" yMin="-8" xMax="585" yMax="894">
      <component glyphName="dieresis.cap" x="105" y="202" flags="0x4"/>
      <component glyphName="U.alt" x="0" y="0" flags="0x4"/>
    </TTGlyph>
    <TTGlyph name="Ugrave" xMin="65" yMin="-13" xMax="586" yMax="927">
      <component glyphName="grave.cap" x="51" y="202" flags="0x4"/>
      <component glyphName="U" x="0" y="0" flags="0x4"/>
    </TTGlyph>
    <TTGlyph name="Ugrave.alt" xMin="67" yMin="-8" xMax="585" yMax="927">
      <component glyphName="grave.cap" x="52" y="202" flags="0x4"/>
      <component glyphName="U.alt" x="0" y="0" flags="0x4"/>
    </TTGlyph>
    <TTGlyph name="Uhungarumlaut" xMin="65" yMin="-13" xMax="586" yMax="927">
      <component glyphName="U" x="0" y="0" flags="0x204"/>
      <component glyphName="hungarumlaut.cap" x="155" y="202" flags="0x4"/>
    </TTGlyph>
    <TTGlyph name="Uhungarumlaut.alt" xMin="67" yMin="-8" xMax="585" yMax="927">
      <component glyphName="U.alt" x="0" y="0" flags="0x204"/>
      <component glyphName="hungarumlaut.cap" x="156" y="202" flags="0x4"/>
    </TTGlyph>
    <TTGlyph name="Umacron" xMin="65" yMin="-13" xMax="586" yMax="878">
      <component glyphName="macron.cap" x="105" y="202" flags="0x4"/>
      <component glyphName="U" x="0" y="0" flags="0x4"/>
    </TTGlyph>
    <TTGlyph name="Umacron.alt" xMin="67" yMin="-8" xMax="585" yMax="878">
      <component glyphName="macron.cap" x="105" y="202" flags="0x4"/>
      <component glyphName="U.alt" x="0" y="0" flags="0x4"/>
    </TTGlyph>
    <TTGlyph name="Uogonek" xMin="65" yMin="-199" xMax="586" yMax="725">
      <contour>
        <pt x="329" y="-199" on="1"/>
        <pt x="285" y="-199" on="0"/>
        <pt x="237" y="-159" on="0"/>
        <pt x="237" y="-119" on="1"/>
        <pt x="237" y="-70" on="0"/>
        <pt x="286" y="-11" on="1"/>
        <pt x="180" y="0" on="0"/>
        <pt x="65" y="135" on="0"/>
        <pt x="65" y="253" on="1"/>
        <pt x="65" y="725" on="1"/>
        <pt x="203" y="725" on="1"/>
        <pt x="203" y="256" on="1"/>
        <pt x="203" y="187" on="0"/>
        <pt x="261" y="106" on="0"/>
        <pt x="325" y="106" on="1"/>
        <pt x="389" y="106" on="0"/>
        <pt x="449" y="184" on="0"/>
        <pt x="449" y="254" on="1"/>
        <pt x="449" y="725" on="1"/>
        <pt x="586" y="725" on="1"/>
        <pt x="586" y="256" on="1"/>
        <pt x="586" y="138" on="0"/>
        <pt x="471" y="1" on="0"/>
        <pt x="368" y="-11" on="1"/>
        <pt x="363" y="-18" on="1"/>
        <pt x="349" y="-41" on="0"/>
        <pt x="332" y="-74" on="0"/>
        <pt x="332" y="-90" on="1"/>
        <pt x="332" y="-122" on="0"/>
        <pt x="372" y="-122" on="1"/>
        <pt x="383" y="-122" on="0"/>
        <pt x="403" y="-119" on="0"/>
        <pt x="415" y="-117" on="1"/>
        <pt x="415" y="-182" on="1"/>
        <pt x="394" y="-190" on="0"/>
        <pt x="352" y="-199" on="0"/>
      </contour>
    </TTGlyph>
    <TTGlyph name="Uogonek.alt" xMin="67" yMin="-199" xMax="585" yMax="725">
      <contour>
        <pt x="585" y="-182" on="1"/>
        <pt x="564" y="-190" on="0"/>
        <pt x="522" y="-199" on="0"/>
        <pt x="499" y="-199" on="1"/>
        <pt x="455" y="-199" on="0"/>
        <pt x="407" y="-159" on="0"/>
        <pt x="407" y="-119" on="1"/>
        <pt x="407" y="-91" on="0"/>
        <pt x="437" y="-33" on="0"/>
        <pt x="467" y="2" on="1"/>
        <pt x="470" y="6" on="1"/>
        <pt x="461" y="65" on="1"/>
        <pt x="415" y="32" on="0"/>
        <pt x="321" y="-8" on="0"/>
        <pt x="265" y="-8" on="1"/>
        <pt x="221" y="-8" on="0"/>
        <pt x="148" y="16" on="0"/>
        <pt x="96" y="68" on="0"/>
        <pt x="67" y="147" on="0"/>
        <pt x="67" y="203" on="1"/>
        <pt x="67" y="725" on="1"/>
        <pt x="203" y="725" on="1"/>
        <pt x="203" y="221" on="1"/>
        <pt x="203" y="113" on="0"/>
        <pt x="299" y="113" on="1"/>
        <pt x="336" y="113" on="0"/>
        <pt x="408" y="147" on="0"/>
        <pt x="448" y="176" on="1"/>
        <pt x="448" y="725" on="1"/>
        <pt x="585" y="725" on="1"/>
        <pt x="585" y="0" on="1"/>
        <pt x="545" y="0" on="1"/>
        <pt x="533" y="-18" on="1"/>
        <pt x="519" y="-41" on="0"/>
        <pt x="502" y="-74" on="0"/>
        <pt x="502" y="-90" on="1"/>
        <pt x="502" y="-122" on="0"/>
        <pt x="542" y="-122" on="1"/>
        <pt x="553" y="-122" on="0"/>
        <pt x="573" y="-119" on="0"/>
        <pt x="585" y="-117" on="1"/>
        <pt x="585" y="-182" on="1"/>
      </contour>
    </TTGlyph>
    <TTGlyph name="Uring" xMin="65" yMin="-13" xMax="586" yMax="977">
      <component glyphName="U" x="0" y="0" flags="0x204"/>
      <component glyphName="ring.cap" x="105" y="193" flags="0x4"/>
    </TTGlyph>
    <TTGlyph name="Uring.alt" xMin="67" yMin="-8" xMax="585" yMax="977">
      <component glyphName="ring.cap" x="105" y="193" flags="0x4"/>
      <component glyphName="U.alt" x="0" y="0" flags="0x4"/>
    </TTGlyph>
    <TTGlyph name="V" xMin="24" yMin="-3" xMax="619" yMax="733">
      <contour>
        <pt x="392" y="-3" on="1"/>
        <pt x="248" y="-3" on="1"/>
        <pt x="24" y="707" on="1"/>
        <pt x="167" y="733" on="1"/>
        <pt x="325" y="174" on="1"/>
        <pt x="478" y="725" on="1"/>
        <pt x="619" y="725" on="1"/>
      </contour>
    </TTGlyph>
    <TTGlyph name="V.flat" xMin="23" yMin="-3" xMax="622" yMax="725">
      <contour>
        <pt x="394" y="-3" on="1"/>
        <pt x="251" y="-3" on="1"/>
        <pt x="23" y="725" on="1"/>
        <pt x="173" y="725" on="1"/>
        <pt x="328" y="174" on="1"/>
        <pt x="481" y="725" on="1"/>
        <pt x="622" y="725" on="1"/>
      </contour>
    </TTGlyph>
    <TTGlyph name="W" xMin="29" yMin="-1" xMax="922" yMax="733">
      <contour>
        <pt x="743" y="-1" on="1"/>
        <pt x="609" y="-1" on="1"/>
        <pt x="472" y="532" on="1"/>
        <pt x="338" y="-1" on="1"/>
        <pt x="205" y="-1" on="1"/>
        <pt x="29" y="708" on="1"/>
        <pt x="171" y="733" on="1"/>
        <pt x="283" y="211" on="1"/>
        <pt x="409" y="725" on="1"/>
        <pt x="550" y="725" on="1"/>
        <pt x="678" y="211" on="1"/>
        <pt x="787" y="725" on="1"/>
        <pt x="922" y="725" on="1"/>
      </contour>
    </TTGlyph>
    <TTGlyph name="W.alt" xMin="26" yMin="-3" xMax="921" yMax="733">
      <contour>
        <pt x="710" y="-3" on="1"/>
        <pt x="576" y="-3" on="1"/>
        <pt x="472" y="352" on="1"/>
        <pt x="365" y="-3" on="1"/>
        <pt x="234" y="-3" on="1"/>
        <pt x="26" y="708" on="1"/>
        <pt x="166" y="733" on="1"/>
        <pt x="313" y="185" on="1"/>
        <pt x="416" y="526" on="1"/>
        <pt x="363" y="709" on="1"/>
        <pt x="503" y="733" on="1"/>
        <pt x="646" y="185" on="1"/>
        <pt x="783" y="725" on="1"/>
        <pt x="921" y="725" on="1"/>
      </contour>
    </TTGlyph>
    <TTGlyph name="W.alt_flat" xMin="24" yMin="-3" xMax="924" yMax="725">
      <contour>
        <pt x="712" y="-3" on="1"/>
        <pt x="579" y="-3" on="1"/>
        <pt x="475" y="352" on="1"/>
        <pt x="369" y="-3" on="1"/>
        <pt x="236" y="-3" on="1"/>
        <pt x="24" y="725" on="1"/>
        <pt x="171" y="725" on="1"/>
        <pt x="316" y="185" on="1"/>
        <pt x="420" y="528" on="1"/>
        <pt x="362" y="725" on="1"/>
        <pt x="508" y="725" on="1"/>
        <pt x="650" y="185" on="1"/>
        <pt x="786" y="725" on="1"/>
        <pt x="924" y="725" on="1"/>
      </contour>
    </TTGlyph>
    <TTGlyph name="W.flat" xMin="27" yMin="-1" xMax="923" yMax="725">
      <contour>
        <pt x="744" y="-1" on="1"/>
        <pt x="610" y="-1" on="1"/>
        <pt x="474" y="532" on="1"/>
        <pt x="339" y="-1" on="1"/>
        <pt x="206" y="-1" on="1"/>
        <pt x="27" y="725" on="1"/>
        <pt x="174" y="725" on="1"/>
        <pt x="285" y="211" on="1"/>
        <pt x="410" y="725" on="1"/>
        <pt x="551" y="725" on="1"/>
        <pt x="680" y="211" on="1"/>
        <pt x="789" y="725" on="1"/>
        <pt x="923" y="725" on="1"/>
      </contour>
    </TTGlyph>
    <TTGlyph name="Wacute" xMin="29" yMin="-1" xMax="922" yMax="933">
      <component glyphName="acute.cap" x="311" y="208" flags="0x4"/>
      <component glyphName="W" x="0" y="0" flags="0x4"/>
    </TTGlyph>
    <TTGlyph name="Wacute.alt" xMin="26" yMin="-3" xMax="921" yMax="933">
      <component glyphName="acute.cap" x="301" y="208" flags="0x4"/>
      <component glyphName="W.alt" x="0" y="0" flags="0x4"/>
    </TTGlyph>
    <TTGlyph name="Wacute.alt_flat" xMin="24" yMin="-3" xMax="924" yMax="933">
      <component glyphName="acute.cap" x="302" y="208" flags="0x4"/>
      <component glyphName="W.alt_flat" x="0" y="0" flags="0x4"/>
    </TTGlyph>
    <TTGlyph name="Wacute.flat" xMin="27" yMin="-1" xMax="923" yMax="933">
      <component glyphName="acute.cap" x="313" y="208" flags="0x4"/>
      <component glyphName="W.flat" x="0" y="0" flags="0x4"/>
    </TTGlyph>
    <TTGlyph name="Wcircumflex" xMin="29" yMin="-1" xMax="922" yMax="927">
      <component glyphName="W" x="0" y="0" flags="0x204"/>
      <component glyphName="circumflex.cap" x="258" y="208" flags="0x4"/>
    </TTGlyph>
    <TTGlyph name="Wcircumflex.alt" xMin="26" yMin="-3" xMax="921" yMax="927">
      <component glyphName="W.alt" x="0" y="0" flags="0x204"/>
      <component glyphName="circumflex.cap" x="248" y="208" flags="0x4"/>
    </TTGlyph>
    <TTGlyph name="Wcircumflex.alt_flat" xMin="24" yMin="-3" xMax="924" yMax="927">
      <component glyphName="W.alt_flat" x="0" y="0" flags="0x204"/>
      <component glyphName="circumflex.cap" x="249" y="208" flags="0x4"/>
    </TTGlyph>
    <TTGlyph name="Wcircumflex.flat" xMin="27" yMin="-1" xMax="923" yMax="927">
      <component glyphName="W.flat" x="0" y="0" flags="0x204"/>
      <component glyphName="circumflex.cap" x="259" y="208" flags="0x4"/>
    </TTGlyph>
    <TTGlyph name="Wdieresis" xMin="29" yMin="-1" xMax="922" yMax="900">
      <component glyphName="dieresis.cap" x="258" y="208" flags="0x4"/>
      <component glyphName="W" x="0" y="0" flags="0x4"/>
    </TTGlyph>
    <TTGlyph name="Wdieresis.alt" xMin="26" yMin="-3" xMax="921" yMax="900">
      <component glyphName="dieresis.cap" x="248" y="208" flags="0x4"/>
      <component glyphName="W.alt" x="0" y="0" flags="0x4"/>
    </TTGlyph>
    <TTGlyph name="Wdieresis.alt_flat" xMin="24" yMin="-3" xMax="924" yMax="900">
      <component glyphName="dieresis.cap" x="250" y="208" flags="0x4"/>
      <component glyphName="W.alt_flat" x="0" y="0" flags="0x4"/>
    </TTGlyph>
    <TTGlyph name="Wdieresis.flat" xMin="27" yMin="-1" xMax="923" yMax="900">
      <component glyphName="dieresis.cap" x="259" y="208" flags="0x4"/>
      <component glyphName="W.flat" x="0" y="0" flags="0x4"/>
    </TTGlyph>
    <TTGlyph name="Wgrave" xMin="29" yMin="-1" xMax="922" yMax="933">
      <component glyphName="grave.cap" x="204" y="208" flags="0x4"/>
      <component glyphName="W" x="0" y="0" flags="0x4"/>
    </TTGlyph>
    <TTGlyph name="Wgrave.alt" xMin="26" yMin="-3" xMax="921" yMax="933">
      <component glyphName="grave.cap" x="194" y="208" flags="0x4"/>
      <component glyphName="W.alt" x="0" y="0" flags="0x4"/>
    </TTGlyph>
    <TTGlyph name="Wgrave.alt_flat" xMin="24" yMin="-3" xMax="924" yMax="933">
      <component glyphName="grave.cap" x="196" y="208" flags="0x4"/>
      <component glyphName="W.alt_flat" x="0" y="0" flags="0x4"/>
    </TTGlyph>
    <TTGlyph name="Wgrave.flat" xMin="27" yMin="-1" xMax="923" yMax="933">
      <component glyphName="grave.cap" x="206" y="208" flags="0x4"/>
      <component glyphName="W.flat" x="0" y="0" flags="0x4"/>
    </TTGlyph>
    <TTGlyph name="X" xMin="19" yMin="-8" xMax="590" yMax="733">
      <contour>
        <pt x="449" y="-8" on="1"/>
        <pt x="302" y="274" on="1"/>
        <pt x="162" y="0" on="1"/>
        <pt x="19" y="0" on="1"/>
        <pt x="226" y="371" on="1"/>
        <pt x="37" y="709" on="1"/>
        <pt x="177" y="733" on="1"/>
        <pt x="308" y="480" on="1"/>
        <pt x="431" y="725" on="1"/>
        <pt x="574" y="725" on="1"/>
        <pt x="384" y="381" on="1"/>
        <pt x="590" y="17" on="1"/>
      </contour>
    </TTGlyph>
    <TTGlyph name="X.flat" xMin="19" yMin="0" xMax="589" yMax="725">
      <contour>
        <pt x="435" y="0" on="1"/>
        <pt x="300" y="269" on="1"/>
        <pt x="162" y="0" on="1"/>
        <pt x="19" y="0" on="1"/>
        <pt x="224" y="368" on="1"/>
        <pt x="31" y="725" on="1"/>
        <pt x="185" y="725" on="1"/>
        <pt x="308" y="478" on="1"/>
        <pt x="432" y="725" on="1"/>
        <pt x="575" y="725" on="1"/>
        <pt x="383" y="378" on="1"/>
        <pt x="589" y="0" on="1"/>
      </contour>
    </TTGlyph>
    <TTGlyph name="Y" xMin="16" yMin="0" xMax="600" yMax="733">
      <contour>
        <pt x="374" y="276" on="1"/>
        <pt x="374" y="0" on="1"/>
        <pt x="237" y="0" on="1"/>
        <pt x="237" y="274" on="1"/>
        <pt x="16" y="710" on="1"/>
        <pt x="158" y="733" on="1"/>
        <pt x="309" y="410" on="1"/>
        <pt x="453" y="725" on="1"/>
        <pt x="600" y="725" on="1"/>
      </contour>
    </TTGlyph>
    <TTGlyph name="Y.flat" xMin="12" yMin="0" xMax="601" yMax="725">
      <contour>
        <pt x="375" y="276" on="1"/>
        <pt x="375" y="0" on="1"/>
        <pt x="238" y="0" on="1"/>
        <pt x="238" y="274" on="1"/>
        <pt x="12" y="725" on="1"/>
        <pt x="166" y="725" on="1"/>
        <pt x="312" y="410" on="1"/>
        <pt x="455" y="725" on="1"/>
        <pt x="601" y="725" on="1"/>
      </contour>
    </TTGlyph>
    <TTGlyph name="Yacute" xMin="16" yMin="0" xMax="600" yMax="927">
      <component glyphName="Y" x="0" y="0" flags="0x204"/>
      <component glyphName="acute.cap" x="144" y="202" flags="0x4"/>
    </TTGlyph>
    <TTGlyph name="Yacute.flat" xMin="12" yMin="0" xMax="601" yMax="927">
      <component glyphName="acute.cap" x="144" y="202" flags="0x4"/>
      <component glyphName="Y.flat" x="0" y="0" flags="0x4"/>
    </TTGlyph>
    <TTGlyph name="Ycircumflex" xMin="16" yMin="0" xMax="600" yMax="921">
      <component glyphName="Y" x="0" y="0" flags="0x204"/>
      <component glyphName="circumflex.cap" x="90" y="202" flags="0x4"/>
    </TTGlyph>
    <TTGlyph name="Ycircumflex.flat" xMin="12" yMin="0" xMax="601" yMax="921">
      <component glyphName="Y.flat" x="0" y="0" flags="0x204"/>
      <component glyphName="circumflex.cap" x="90" y="202" flags="0x4"/>
    </TTGlyph>
    <TTGlyph name="Ydieresis" xMin="16" yMin="0" xMax="600" yMax="894">
      <component glyphName="Y" x="0" y="0" flags="0x204"/>
      <component glyphName="dieresis.cap" x="90" y="202" flags="0x4"/>
    </TTGlyph>
    <TTGlyph name="Ydieresis.flat" xMin="12" yMin="0" xMax="601" yMax="894">
      <component glyphName="dieresis.cap" x="90" y="202" flags="0x4"/>
      <component glyphName="Y.flat" x="0" y="0" flags="0x4"/>
    </TTGlyph>
    <TTGlyph name="Ygrave" xMin="16" yMin="0" xMax="600" yMax="927">
      <component glyphName="Y" x="0" y="0" flags="0x204"/>
      <component glyphName="grave.cap" x="37" y="202" flags="0x4"/>
    </TTGlyph>
    <TTGlyph name="Ygrave.flat" xMin="12" yMin="0" xMax="601" yMax="927">
      <component glyphName="grave.cap" x="37" y="202" flags="0x4"/>
      <component glyphName="Y.flat" x="0" y="0" flags="0x4"/>
    </TTGlyph>
    <TTGlyph name="Z" xMin="42" yMin="0" xMax="528" yMax="725">
      <contour>
        <pt x="42" y="0" on="1"/>
        <pt x="42" y="102" on="1"/>
        <pt x="360" y="611" on="1"/>
        <pt x="73" y="611" on="1"/>
        <pt x="55" y="725" on="1"/>
        <pt x="521" y="725" on="1"/>
        <pt x="521" y="623" on="1"/>
        <pt x="203" y="114" on="1"/>
        <pt x="510" y="114" on="1"/>
        <pt x="528" y="0" on="1"/>
      </contour>
    </TTGlyph>
    <TTGlyph name="Z.flat" xMin="42" yMin="0" xMax="521" yMax="725">
      <contour>
        <pt x="42" y="0" on="1"/>
        <pt x="42" y="102" on="1"/>
        <pt x="360" y="611" on="1"/>
        <pt x="62" y="611" on="1"/>
        <pt x="62" y="725" on="1"/>
        <pt x="521" y="725" on="1"/>
        <pt x="521" y="623" on="1"/>
        <pt x="203" y="114" on="1"/>
        <pt x="520" y="114" on="1"/>
        <pt x="520" y="0" on="1"/>
      </contour>
    </TTGlyph>
    <TTGlyph name="Zacute" xMin="42" yMin="0" xMax="528" yMax="933">
      <component glyphName="Z" x="0" y="0" flags="0x204"/>
      <component glyphName="acute.cap" x="119" y="208" flags="0x4"/>
    </TTGlyph>
    <TTGlyph name="Zacute.flat" xMin="42" yMin="0" xMax="521" yMax="933">
      <component glyphName="acute.cap" x="119" y="208" flags="0x4"/>
      <component glyphName="Z.flat" x="0" y="0" flags="0x4"/>
    </TTGlyph>
    <TTGlyph name="Zcaron" xMin="42" yMin="0" xMax="528" yMax="927">
      <component glyphName="caron.cap" x="65" y="208" flags="0x4"/>
      <component glyphName="Z" x="0" y="0" flags="0x4"/>
    </TTGlyph>
    <TTGlyph name="Zcaron.flat" xMin="42" yMin="0" xMax="521" yMax="927">
      <component glyphName="caron.cap" x="65" y="208" flags="0x4"/>
      <component glyphName="Z.flat" x="0" y="0" flags="0x4"/>
    </TTGlyph>
    <TTGlyph name="Zdotaccent" xMin="42" yMin="0" xMax="528" yMax="900">
      <component glyphName="dotaccent.cap" x="65" y="208" flags="0x4"/>
      <component glyphName="Z" x="0" y="0" flags="0x4"/>
    </TTGlyph>
    <TTGlyph name="Zdotaccent.flat" xMin="42" yMin="0" xMax="521" yMax="900">
      <component glyphName="dotaccent.cap" x="65" y="208" flags="0x4"/>
      <component glyphName="Z.flat" x="0" y="0" flags="0x4"/>
    </TTGlyph>
    <TTGlyph name="a" xMin="38" yMin="-11" xMax="457" yMax="554">
      <contour>
        <pt x="347" y="0" on="1"/>
        <pt x="337" y="64" on="1"/>
        <pt x="303" y="30" on="0"/>
        <pt x="230" y="-11" on="0"/>
        <pt x="179" y="-11" on="1"/>
        <pt x="116" y="-11" on="0"/>
        <pt x="38" y="69" on="0"/>
        <pt x="38" y="141" on="1"/>
        <pt x="38" y="235" on="0"/>
        <pt x="182" y="331" on="0"/>
        <pt x="328" y="349" on="1"/>
        <pt x="328" y="369" on="1"/>
        <pt x="328" y="410" on="0"/>
        <pt x="286" y="447" on="0"/>
        <pt x="246" y="447" on="1"/>
        <pt x="205" y="447" on="0"/>
        <pt x="125" y="424" on="0"/>
        <pt x="85" y="404" on="1"/>
        <pt x="69" y="511" on="1"/>
        <pt x="111" y="529" on="0"/>
        <pt x="208" y="554" on="0"/>
        <pt x="265" y="554" on="1"/>
        <pt x="362" y="554" on="0"/>
        <pt x="457" y="469" on="0"/>
        <pt x="457" y="374" on="1"/>
        <pt x="457" y="0" on="1"/>
      </contour>
      <contour>
        <pt x="328" y="269" on="1"/>
        <pt x="280" y="261" on="0"/>
        <pt x="217" y="239" on="0"/>
        <pt x="179" y="209" on="0"/>
        <pt x="163" y="173" on="0"/>
        <pt x="163" y="153" on="1"/>
        <pt x="163" y="123" on="0"/>
        <pt x="195" y="89" on="0"/>
        <pt x="222" y="89" on="1"/>
        <pt x="249" y="89" on="0"/>
        <pt x="300" y="116" on="0"/>
        <pt x="328" y="141" on="1"/>
      </contour>
    </TTGlyph>
    <TTGlyph name="aacute" xMin="38" yMin="-11" xMax="457" yMax="776">
      <component glyphName="a" x="0" y="0" flags="0x204"/>
      <component glyphName="acute" x="82" y="3" flags="0x4"/>
    </TTGlyph>
    <TTGlyph name="abreve" xMin="38" yMin="-11" xMax="457" yMax="762">
      <component glyphName="a" x="0" y="0" flags="0x204"/>
      <component glyphName="breve" x="25" y="3" flags="0x4"/>
    </TTGlyph>
    <TTGlyph name="acircumflex" xMin="38" yMin="-11" xMax="457" yMax="770">
      <component glyphName="a" x="0" y="0" flags="0x204"/>
      <component glyphName="circumflex" x="25" y="3" flags="0x4"/>
    </TTGlyph>
    <TTGlyph name="acute" xMin="128" yMin="607" xMax="356" yMax="773">
      <contour>
        <pt x="215" y="607" on="1"/>
        <pt x="128" y="607" on="1"/>
        <pt x="202" y="773" on="1"/>
        <pt x="356" y="742" on="1"/>
      </contour>
    </TTGlyph>
    <TTGlyph name="acute.cap" xMin="120" yMin="569" xMax="335" yMax="725">
      <contour>
        <pt x="202" y="569" on="1"/>
        <pt x="120" y="569" on="1"/>
        <pt x="189" y="725" on="1"/>
        <pt x="335" y="696" on="1"/>
      </contour>
    </TTGlyph>
    <TTGlyph name="adieresis" xMin="38" yMin="-11" xMax="457" yMax="740">
      <component glyphName="a" x="0" y="0" flags="0x204"/>
      <component glyphName="dieresis" x="25" y="3" flags="0x4"/>
    </TTGlyph>
    <TTGlyph name="ae" xMin="38" yMin="-11" xMax="762" yMax="556">
      <contour>
        <pt x="762" y="279" on="1"/>
        <pt x="762" y="276" on="0"/>
        <pt x="762" y="265" on="0"/>
        <pt x="762" y="252" on="0"/>
        <pt x="761" y="241" on="0"/>
        <pt x="761" y="240" on="1"/>
        <pt x="452" y="240" on="1"/>
        <pt x="457" y="167" on="0"/>
        <pt x="525" y="94" on="0"/>
        <pt x="582" y="94" on="1"/>
        <pt x="626" y="94" on="0"/>
        <pt x="705" y="125" on="0"/>
        <pt x="745" y="153" on="1"/>
        <pt x="761" y="50" on="1"/>
        <pt x="723" y="24" on="0"/>
        <pt x="626" y="-10" on="0"/>
        <pt x="566" y="-10" on="1"/>
        <pt x="508" y="-10" on="0"/>
        <pt x="414" y="29" on="0"/>
        <pt x="382" y="67" on="1"/>
        <pt x="343" y="32" on="0"/>
        <pt x="254" y="-11" on="0"/>
        <pt x="199" y="-11" on="1"/>
        <pt x="128" y="-11" on="0"/>
        <pt x="38" y="67" on="0"/>
        <pt x="38" y="141" on="1"/>
        <pt x="38" y="233" on="0"/>
        <pt x="179" y="330" on="0"/>
        <pt x="324" y="348" on="1"/>
        <pt x="324" y="369" on="1"/>
        <pt x="324" y="410" on="0"/>
        <pt x="287" y="447" on="0"/>
        <pt x="246" y="447" on="1"/>
        <pt x="205" y="447" on="0"/>
        <pt x="125" y="424" on="0"/>
        <pt x="85" y="404" on="1"/>
        <pt x="69" y="511" on="1"/>
        <pt x="111" y="529" on="0"/>
        <pt x="205" y="554" on="0"/>
        <pt x="259" y="554" on="1"/>
        <pt x="318" y="554" on="0"/>
        <pt x="389" y="522" on="0"/>
        <pt x="409" y="487" on="1"/>
        <pt x="435" y="519" on="0"/>
        <pt x="505" y="556" on="0"/>
        <pt x="553" y="556" on="1"/>
        <pt x="608" y="556" on="0"/>
        <pt x="687" y="513" on="0"/>
        <pt x="738" y="438" on="0"/>
        <pt x="762" y="337" on="0"/>
      </contour>
      <contour>
        <pt x="637" y="327" on="1"/>
        <pt x="632" y="391" on="0"/>
        <pt x="588" y="461" on="0"/>
        <pt x="546" y="461" on="1"/>
        <pt x="510" y="461" on="0"/>
        <pt x="459" y="393" on="0"/>
        <pt x="453" y="327" on="1"/>
      </contour>
      <contour>
        <pt x="341" y="143" on="1"/>
        <pt x="332" y="170" on="0"/>
        <pt x="322" y="232" on="0"/>
        <pt x="322" y="268" on="1"/>
        <pt x="322" y="269" on="1"/>
        <pt x="276" y="261" on="0"/>
        <pt x="215" y="238" on="0"/>
        <pt x="178" y="208" on="0"/>
        <pt x="163" y="173" on="0"/>
        <pt x="163" y="154" on="1"/>
        <pt x="163" y="123" on="0"/>
        <pt x="200" y="90" on="0"/>
        <pt x="229" y="90" on="1"/>
        <pt x="284" y="90" on="0"/>
      </contour>
    </TTGlyph>
    <TTGlyph name="aeacute" xMin="38" yMin="-11" xMax="762" yMax="773">
      <component glyphName="acute" x="231" y="0" flags="0x4"/>
      <component glyphName="ae" x="0" y="0" flags="0x4"/>
    </TTGlyph>
    <TTGlyph name="agrave" xMin="38" yMin="-11" xMax="457" yMax="776">
      <component glyphName="a" x="0" y="0" flags="0x204"/>
      <component glyphName="grave" x="-33" y="3" flags="0x4"/>
    </TTGlyph>
    <TTGlyph name="amacron" xMin="38" yMin="-11" xMax="457" yMax="723">
      <component glyphName="a" x="0" y="0" flags="0x204"/>
      <component glyphName="macron" x="25" y="3" flags="0x4"/>
    </TTGlyph>
    <TTGlyph name="ampersand" xMin="34" yMin="-13" xMax="645" yMax="738">
      <contour>
        <pt x="513" y="-7" on="1"/>
        <pt x="442" y="78" on="1"/>
        <pt x="403" y="34" on="0"/>
        <pt x="307" y="-13" on="0"/>
        <pt x="247" y="-13" on="1"/>
        <pt x="197" y="-13" on="0"/>
        <pt x="118" y="16" on="0"/>
        <pt x="63" y="68" on="0"/>
        <pt x="34" y="141" on="0"/>
        <pt x="34" y="185" on="1"/>
        <pt x="34" y="261" on="0"/>
        <pt x="115" y="369" on="0"/>
        <pt x="177" y="404" on="1"/>
        <pt x="146" y="446" on="0"/>
        <pt x="119" y="516" on="0"/>
        <pt x="119" y="560" on="1"/>
        <pt x="119" y="597" on="0"/>
        <pt x="145" y="662" on="0"/>
        <pt x="195" y="710" on="0"/>
        <pt x="267" y="738" on="0"/>
        <pt x="313" y="738" on="1"/>
        <pt x="362" y="738" on="0"/>
        <pt x="443" y="716" on="0"/>
        <pt x="478" y="697" on="1"/>
        <pt x="457" y="580" on="1"/>
        <pt x="420" y="603" on="0"/>
        <pt x="354" y="627" on="0"/>
        <pt x="323" y="627" on="1"/>
        <pt x="288" y="627" on="0"/>
        <pt x="247" y="589" on="0"/>
        <pt x="247" y="554" on="1"/>
        <pt x="247" y="527" on="0"/>
        <pt x="272" y="479" on="0"/>
        <pt x="300" y="444" on="1"/>
        <pt x="438" y="273" on="1"/>
        <pt x="449" y="305" on="0"/>
        <pt x="468" y="382" on="0"/>
        <pt x="475" y="428" on="1"/>
        <pt x="582" y="402" on="1"/>
        <pt x="561" y="275" on="0"/>
        <pt x="512" y="180" on="1"/>
        <pt x="645" y="16" on="1"/>
      </contour>
      <contour>
        <pt x="261" y="94" on="1"/>
        <pt x="293" y="94" on="0"/>
        <pt x="350" y="125" on="0"/>
        <pt x="376" y="159" on="1"/>
        <pt x="240" y="327" on="1"/>
        <pt x="203" y="301" on="0"/>
        <pt x="160" y="237" on="0"/>
        <pt x="160" y="195" on="1"/>
        <pt x="160" y="149" on="0"/>
        <pt x="216" y="94" on="0"/>
      </contour>
    </TTGlyph>
    <TTGlyph name="ampersand.flat" xMin="34" yMin="-13" xMax="656" yMax="738">
      <contour>
        <pt x="507" y="0" on="1"/>
        <pt x="442" y="78" on="1"/>
        <pt x="403" y="34" on="0"/>
        <pt x="307" y="-13" on="0"/>
        <pt x="247" y="-13" on="1"/>
        <pt x="197" y="-13" on="0"/>
        <pt x="118" y="16" on="0"/>
        <pt x="63" y="68" on="0"/>
        <pt x="34" y="141" on="0"/>
        <pt x="34" y="185" on="1"/>
        <pt x="34" y="261" on="0"/>
        <pt x="115" y="369" on="0"/>
        <pt x="177" y="404" on="1"/>
        <pt x="146" y="446" on="0"/>
        <pt x="119" y="516" on="0"/>
        <pt x="119" y="560" on="1"/>
        <pt x="119" y="597" on="0"/>
        <pt x="145" y="662" on="0"/>
        <pt x="195" y="710" on="0"/>
        <pt x="267" y="738" on="0"/>
        <pt x="313" y="738" on="1"/>
        <pt x="362" y="738" on="0"/>
        <pt x="443" y="716" on="0"/>
        <pt x="478" y="697" on="1"/>
        <pt x="457" y="580" on="1"/>
        <pt x="420" y="603" on="0"/>
        <pt x="354" y="627" on="0"/>
        <pt x="323" y="627" on="1"/>
        <pt x="288" y="627" on="0"/>
        <pt x="247" y="589" on="0"/>
        <pt x="247" y="554" on="1"/>
        <pt x="247" y="527" on="0"/>
        <pt x="272" y="479" on="0"/>
        <pt x="300" y="444" on="1"/>
        <pt x="438" y="272" on="1"/>
        <pt x="449" y="304" on="0"/>
        <pt x="468" y="382" on="0"/>
        <pt x="475" y="428" on="1"/>
        <pt x="582" y="402" on="1"/>
        <pt x="561" y="275" on="0"/>
        <pt x="512" y="180" on="1"/>
        <pt x="656" y="0" on="1"/>
      </contour>
      <contour>
        <pt x="261" y="94" on="1"/>
        <pt x="293" y="94" on="0"/>
        <pt x="350" y="125" on="0"/>
        <pt x="376" y="159" on="1"/>
        <pt x="239" y="327" on="1"/>
        <pt x="203" y="301" on="0"/>
        <pt x="160" y="236" on="0"/>
        <pt x="160" y="195" on="1"/>
        <pt x="160" y="149" on="0"/>
        <pt x="216" y="94" on="0"/>
      </contour>
    </TTGlyph>
    <TTGlyph name="aogonek" xMin="38" yMin="-212" xMax="468" yMax="554">
      <contour>
        <pt x="427" y="0" on="1"/>
        <pt x="413" y="-20" on="1"/>
        <pt x="397" y="-44" on="0"/>
        <pt x="380" y="-80" on="0"/>
        <pt x="380" y="-97" on="1"/>
        <pt x="380" y="-131" on="0"/>
        <pt x="422" y="-131" on="1"/>
        <pt x="433" y="-131" on="0"/>
        <pt x="455" y="-127" on="0"/>
        <pt x="468" y="-125" on="1"/>
        <pt x="468" y="-193" on="1"/>
        <pt x="446" y="-202" on="0"/>
        <pt x="402" y="-212" on="0"/>
        <pt x="377" y="-212" on="1"/>
        <pt x="331" y="-212" on="0"/>
        <pt x="279" y="-169" on="0"/>
        <pt x="279" y="-127" on="1"/>
        <pt x="279" y="-98" on="0"/>
        <pt x="312" y="-35" on="0"/>
        <pt x="344" y="3" on="1"/>
        <pt x="346" y="6" on="1"/>
        <pt x="337" y="64" on="1"/>
        <pt x="303" y="30" on="0"/>
        <pt x="230" y="-11" on="0"/>
        <pt x="179" y="-11" on="1"/>
        <pt x="116" y="-11" on="0"/>
        <pt x="38" y="69" on="0"/>
        <pt x="38" y="141" on="1"/>
        <pt x="38" y="235" on="0"/>
        <pt x="182" y="331" on="0"/>
        <pt x="328" y="349" on="1"/>
        <pt x="328" y="369" on="1"/>
        <pt x="328" y="410" on="0"/>
        <pt x="286" y="447" on="0"/>
        <pt x="246" y="447" on="1"/>
        <pt x="205" y="447" on="0"/>
        <pt x="125" y="424" on="0"/>
        <pt x="85" y="404" on="1"/>
        <pt x="69" y="511" on="1"/>
        <pt x="111" y="529" on="0"/>
        <pt x="208" y="554" on="0"/>
        <pt x="265" y="554" on="1"/>
        <pt x="362" y="554" on="0"/>
        <pt x="457" y="469" on="0"/>
        <pt x="457" y="374" on="1"/>
        <pt x="457" y="0" on="1"/>
      </contour>
      <contour>
        <pt x="328" y="269" on="1"/>
        <pt x="280" y="261" on="0"/>
        <pt x="217" y="239" on="0"/>
        <pt x="179" y="209" on="0"/>
        <pt x="163" y="173" on="0"/>
        <pt x="163" y="153" on="1"/>
        <pt x="163" y="123" on="0"/>
        <pt x="195" y="89" on="0"/>
        <pt x="222" y="89" on="1"/>
        <pt x="249" y="89" on="0"/>
        <pt x="300" y="116" on="0"/>
        <pt x="328" y="141" on="1"/>
      </contour>
    </TTGlyph>
    <TTGlyph name="aring" xMin="38" yMin="-11" xMax="457" yMax="838">
      <component glyphName="a" x="0" y="0" flags="0x204"/>
      <component glyphName="ring" x="25" y="3" flags="0x4"/>
    </TTGlyph>
    <TTGlyph name="aringacute" xMin="38" yMin="-11" xMax="457" yMax="1038">
      <contour>
        <pt x="347" y="0" on="1"/>
        <pt x="337" y="64" on="1"/>
        <pt x="303" y="30" on="0"/>
        <pt x="230" y="-11" on="0"/>
        <pt x="179" y="-11" on="1"/>
        <pt x="116" y="-11" on="0"/>
        <pt x="38" y="69" on="0"/>
        <pt x="38" y="141" on="1"/>
        <pt x="38" y="235" on="0"/>
        <pt x="182" y="331" on="0"/>
        <pt x="328" y="349" on="1"/>
        <pt x="328" y="369" on="1"/>
        <pt x="328" y="410" on="0"/>
        <pt x="286" y="447" on="0"/>
        <pt x="246" y="447" on="1"/>
        <pt x="205" y="447" on="0"/>
        <pt x="125" y="424" on="0"/>
        <pt x="85" y="404" on="1"/>
        <pt x="69" y="511" on="1"/>
        <pt x="111" y="529" on="0"/>
        <pt x="208" y="554" on="0"/>
        <pt x="265" y="554" on="1"/>
        <pt x="362" y="554" on="0"/>
        <pt x="457" y="469" on="0"/>
        <pt x="457" y="374" on="1"/>
        <pt x="457" y="0" on="1"/>
      </contour>
      <contour>
        <pt x="328" y="269" on="1"/>
        <pt x="280" y="261" on="0"/>
        <pt x="217" y="239" on="0"/>
        <pt x="179" y="209" on="0"/>
        <pt x="163" y="173" on="0"/>
        <pt x="163" y="153" on="1"/>
        <pt x="163" y="123" on="0"/>
        <pt x="195" y="89" on="0"/>
        <pt x="222" y="89" on="1"/>
        <pt x="249" y="89" on="0"/>
        <pt x="300" y="116" on="0"/>
        <pt x="328" y="141" on="1"/>
      </contour>
      <contour>
        <pt x="300" y="872" on="1"/>
        <pt x="213" y="872" on="1"/>
        <pt x="287" y="1038" on="1"/>
        <pt x="441" y="1007" on="1"/>
      </contour>
      <contour>
        <pt x="388" y="722" on="1"/>
        <pt x="388" y="671" on="0"/>
        <pt x="318" y="606" on="0"/>
        <pt x="261" y="606" on="1"/>
        <pt x="204" y="606" on="0"/>
        <pt x="134" y="671" on="0"/>
        <pt x="134" y="722" on="1"/>
        <pt x="134" y="773" on="0"/>
        <pt x="204" y="838" on="0"/>
        <pt x="261" y="838" on="1"/>
        <pt x="318" y="838" on="0"/>
        <pt x="388" y="773" on="0"/>
      </contour>
      <contour>
        <pt x="318" y="722" on="1"/>
        <pt x="318" y="749" on="0"/>
        <pt x="287" y="784" on="0"/>
        <pt x="261" y="784" on="1"/>
        <pt x="235" y="784" on="0"/>
        <pt x="204" y="749" on="0"/>
        <pt x="204" y="722" on="1"/>
        <pt x="204" y="696" on="0"/>
        <pt x="235" y="661" on="0"/>
        <pt x="261" y="661" on="1"/>
        <pt x="287" y="661" on="0"/>
        <pt x="318" y="696" on="0"/>
      </contour>
    </TTGlyph>
    <TTGlyph name="asciicircum" xMin="59" yMin="538" xMax="377" yMax="729">
      <contour>
        <pt x="290" y="538" on="1"/>
        <pt x="218" y="638" on="1"/>
        <pt x="146" y="538" on="1"/>
        <pt x="59" y="538" on="1"/>
        <pt x="168" y="729" on="1"/>
        <pt x="269" y="729" on="1"/>
        <pt x="377" y="538" on="1"/>
      </contour>
    </TTGlyph>
    <TTGlyph name="asciitilde" xMin="50" yMin="250" xMax="404" yMax="415">
      <contour>
        <pt x="404" y="402" on="1"/>
        <pt x="395" y="323" on="0"/>
        <pt x="347" y="255" on="0"/>
        <pt x="307" y="255" on="1"/>
        <pt x="286" y="255" on="0"/>
        <pt x="246" y="271" on="0"/>
        <pt x="223" y="283" on="1"/>
        <pt x="197" y="297" on="0"/>
        <pt x="167" y="310" on="0"/>
        <pt x="156" y="310" on="1"/>
        <pt x="144" y="310" on="0"/>
        <pt x="130" y="285" on="0"/>
        <pt x="123" y="250" on="1"/>
        <pt x="50" y="264" on="1"/>
        <pt x="58" y="342" on="0"/>
        <pt x="106" y="411" on="0"/>
        <pt x="147" y="411" on="1"/>
        <pt x="167" y="411" on="0"/>
        <pt x="207" y="395" on="0"/>
        <pt x="230" y="382" on="1"/>
        <pt x="256" y="368" on="0"/>
        <pt x="286" y="356" on="0"/>
        <pt x="297" y="356" on="1"/>
        <pt x="309" y="356" on="0"/>
        <pt x="323" y="380" on="0"/>
        <pt x="331" y="415" on="1"/>
      </contour>
    </TTGlyph>
    <TTGlyph name="asterisk" xMin="34" yMin="439" xMax="392" yMax="779">
      <contour>
        <pt x="280" y="575" on="1"/>
        <pt x="335" y="458" on="1"/>
        <pt x="305" y="439" on="1"/>
        <pt x="213" y="526" on="1"/>
        <pt x="119" y="439" on="1"/>
        <pt x="91" y="458" on="1"/>
        <pt x="145" y="575" on="1"/>
        <pt x="34" y="637" on="1"/>
        <pt x="44" y="670" on="1"/>
        <pt x="171" y="655" on="1"/>
        <pt x="194" y="779" on="1"/>
        <pt x="231" y="779" on="1"/>
        <pt x="254" y="655" on="1"/>
        <pt x="381" y="670" on="1"/>
        <pt x="392" y="637" on="1"/>
      </contour>
    </TTGlyph>
    <TTGlyph name="at" xMin="49" yMin="-155" xMax="819" yMax="707">
      <contour>
        <pt x="616" y="50" on="1"/>
        <pt x="564" y="50" on="0"/>
        <pt x="497" y="101" on="0"/>
        <pt x="488" y="146" on="1"/>
        <pt x="449" y="98" on="0"/>
        <pt x="381" y="50" on="0"/>
        <pt x="341" y="50" on="1"/>
        <pt x="294" y="50" on="0"/>
        <pt x="228" y="123" on="0"/>
        <pt x="228" y="194" on="1"/>
        <pt x="228" y="263" on="0"/>
        <pt x="270" y="379" on="0"/>
        <pt x="342" y="463" on="0"/>
        <pt x="437" y="511" on="0"/>
        <pt x="491" y="511" on="1"/>
        <pt x="530" y="511" on="0"/>
        <pt x="602" y="495" on="0"/>
        <pt x="634" y="481" on="1"/>
        <pt x="591" y="209" on="1"/>
        <pt x="589" y="200" on="0"/>
        <pt x="586" y="176" on="0"/>
        <pt x="586" y="165" on="1"/>
        <pt x="586" y="139" on="0"/>
        <pt x="613" y="109" on="0"/>
        <pt x="641" y="109" on="1"/>
        <pt x="667" y="109" on="0"/>
        <pt x="714" y="146" on="0"/>
        <pt x="750" y="213" on="0"/>
        <pt x="771" y="306" on="0"/>
        <pt x="771" y="362" on="1"/>
        <pt x="771" y="439" on="0"/>
        <pt x="729" y="553" on="0"/>
        <pt x="654" y="629" on="0"/>
        <pt x="551" y="667" on="0"/>
        <pt x="489" y="667" on="1"/>
        <pt x="410" y="667" on="0"/>
        <pt x="268" y="594" on="0"/>
        <pt x="160" y="468" on="0"/>
        <pt x="97" y="298" on="0"/>
        <pt x="97" y="201" on="1"/>
        <pt x="97" y="121" on="0"/>
        <pt x="140" y="2" on="0"/>
        <pt x="217" y="-76" on="0"/>
        <pt x="324" y="-115" on="0"/>
        <pt x="388" y="-115" on="1"/>
        <pt x="452" y="-115" on="0"/>
        <pt x="562" y="-85" on="0"/>
        <pt x="610" y="-59" on="1"/>
        <pt x="616" y="-100" on="1"/>
        <pt x="570" y="-123" on="0"/>
        <pt x="455" y="-155" on="0"/>
        <pt x="386" y="-155" on="1"/>
        <pt x="308" y="-155" on="0"/>
        <pt x="183" y="-107" on="0"/>
        <pt x="96" y="-16" on="0"/>
        <pt x="49" y="116" on="0"/>
        <pt x="49" y="200" on="1"/>
        <pt x="49" y="303" on="0"/>
        <pt x="119" y="488" on="0"/>
        <pt x="240" y="626" on="0"/>
        <pt x="401" y="707" on="0"/>
        <pt x="492" y="707" on="1"/>
        <pt x="564" y="707" on="0"/>
        <pt x="685" y="662" on="0"/>
        <pt x="771" y="574" on="0"/>
        <pt x="819" y="446" on="0"/>
        <pt x="819" y="364" on="1"/>
        <pt x="819" y="295" on="0"/>
        <pt x="790" y="179" on="0"/>
        <pt x="737" y="96" on="0"/>
        <pt x="662" y="50" on="0"/>
      </contour>
      <contour>
        <pt x="380" y="144" on="1"/>
        <pt x="402" y="144" on="0"/>
        <pt x="454" y="188" on="0"/>
        <pt x="486" y="228" on="1"/>
        <pt x="517" y="416" on="1"/>
        <pt x="508" y="419" on="0"/>
        <pt x="490" y="422" on="0"/>
        <pt x="476" y="422" on="1"/>
        <pt x="449" y="422" on="0"/>
        <pt x="398" y="388" on="0"/>
        <pt x="359" y="331" on="0"/>
        <pt x="335" y="255" on="0"/>
        <pt x="335" y="213" on="1"/>
        <pt x="335" y="177" on="0"/>
        <pt x="359" y="144" on="0"/>
      </contour>
    </TTGlyph>
    <TTGlyph name="atilde" xMin="38" yMin="-11" xMax="457" yMax="766">
      <component glyphName="a" x="0" y="0" flags="0x204"/>
      <component glyphName="tilde" x="28" y="3" flags="0x4"/>
    </TTGlyph>
    <TTGlyph name="b" xMin="66" yMin="-7" xMax="517" yMax="809">
      <contour>
        <pt x="517" y="288" on="1"/>
        <pt x="517" y="211" on="0"/>
        <pt x="480" y="100" on="0"/>
        <pt x="413" y="28" on="0"/>
        <pt x="319" y="-7" on="0"/>
        <pt x="263" y="-7" on="1"/>
        <pt x="206" y="-7" on="0"/>
        <pt x="111" y="14" on="0"/>
        <pt x="66" y="31" on="1"/>
        <pt x="66" y="789" on="1"/>
        <pt x="196" y="809" on="1"/>
        <pt x="196" y="492" on="1"/>
        <pt x="222" y="517" on="0"/>
        <pt x="285" y="555" on="0"/>
        <pt x="330" y="555" on="1"/>
        <pt x="369" y="555" on="0"/>
        <pt x="437" y="522" on="0"/>
        <pt x="488" y="456" on="0"/>
        <pt x="517" y="356" on="0"/>
      </contour>
      <contour>
        <pt x="386" y="280" on="1"/>
        <pt x="386" y="364" on="0"/>
        <pt x="333" y="440" on="0"/>
        <pt x="295" y="440" on="1"/>
        <pt x="268" y="440" on="0"/>
        <pt x="220" y="409" on="0"/>
        <pt x="196" y="383" on="1"/>
        <pt x="196" y="115" on="1"/>
        <pt x="213" y="108" on="0"/>
        <pt x="243" y="102" on="0"/>
        <pt x="263" y="102" on="1"/>
        <pt x="319" y="102" on="0"/>
        <pt x="386" y="185" on="0"/>
      </contour>
    </TTGlyph>
    <TTGlyph name="backslash" xMin="19" yMin="-143" xMax="514" yMax="783">
      <contour>
        <pt x="410" y="-143" on="1"/>
        <pt x="19" y="760" on="1"/>
        <pt x="124" y="783" on="1"/>
        <pt x="514" y="-120" on="1"/>
      </contour>
    </TTGlyph>
    <TTGlyph name="baht" xMin="-15" yMin="-131" xMax="508" yMax="777">
      <contour>
        <pt x="-15" y="-112" on="1"/>
        <pt x="72" y="57" on="1"/>
        <pt x="72" y="719" on="1"/>
        <pt x="256" y="719" on="1"/>
        <pt x="330" y="719" on="0"/>
        <pt x="384" y="696" on="1"/>
        <pt x="426" y="777" on="1"/>
        <pt x="501" y="758" on="1"/>
        <pt x="447" y="653" on="1"/>
        <pt x="467" y="631" on="0"/>
        <pt x="488" y="574" on="0"/>
        <pt x="488" y="539" on="1"/>
        <pt x="488" y="479" on="0"/>
        <pt x="429" y="400" on="0"/>
        <pt x="382" y="382" on="1"/>
        <pt x="439" y="362" on="0"/>
        <pt x="508" y="278" on="0"/>
        <pt x="508" y="208" on="1"/>
        <pt x="508" y="155" on="0"/>
        <pt x="471" y="77" on="0"/>
        <pt x="402" y="26" on="0"/>
        <pt x="306" y="0" on="0"/>
        <pt x="248" y="0" on="1"/>
        <pt x="128" y="0" on="1"/>
        <pt x="61" y="-131" on="1"/>
      </contour>
      <contour>
        <pt x="194" y="329" on="1"/>
        <pt x="194" y="100" on="1"/>
        <pt x="249" y="100" on="1"/>
        <pt x="315" y="100" on="0"/>
        <pt x="384" y="158" on="0"/>
        <pt x="384" y="213" on="1"/>
        <pt x="384" y="269" on="0"/>
        <pt x="315" y="329" on="0"/>
        <pt x="246" y="329" on="1"/>
      </contour>
      <contour>
        <pt x="194" y="619" on="1"/>
        <pt x="194" y="418" on="1"/>
        <pt x="248" y="418" on="1"/>
        <pt x="306" y="418" on="0"/>
        <pt x="366" y="474" on="0"/>
        <pt x="366" y="521" on="1"/>
        <pt x="366" y="565" on="0"/>
        <pt x="312" y="619" on="0"/>
        <pt x="251" y="619" on="1"/>
      </contour>
    </TTGlyph>
    <TTGlyph name="bar" xMin="96" yMin="-208" xMax="202" yMax="808">
      <contour>
        <pt x="96" y="-208" on="1"/>
        <pt x="96" y="792" on="1"/>
        <pt x="202" y="808" on="1"/>
        <pt x="202" y="-192" on="1"/>
      </contour>
    </TTGlyph>
    <TTGlyph name="bar.tab" xMin="79" yMin="-148" xMax="184" yMax="906">
      <contour>
        <pt x="79" y="-148" on="1"/>
        <pt x="79" y="889" on="1"/>
        <pt x="184" y="906" on="1"/>
        <pt x="184" y="-132" on="1"/>
      </contour>
    </TTGlyph>
    <TTGlyph name="braceleft" xMin="37" yMin="-109" xMax="464" yMax="780">
      <contour>
        <pt x="336" y="-109" on="1"/>
        <pt x="252" y="-109" on="0"/>
        <pt x="171" y="-34" on="0"/>
        <pt x="171" y="36" on="1"/>
        <pt x="171" y="75" on="0"/>
        <pt x="186" y="150" on="0"/>
        <pt x="186" y="189" on="1"/>
        <pt x="186" y="247" on="0"/>
        <pt x="127" y="292" on="0"/>
        <pt x="79" y="292" on="1"/>
        <pt x="51" y="292" on="1"/>
        <pt x="37" y="382" on="1"/>
        <pt x="78" y="382" on="1"/>
        <pt x="127" y="382" on="0"/>
        <pt x="186" y="425" on="0"/>
        <pt x="186" y="482" on="1"/>
        <pt x="186" y="521" on="0"/>
        <pt x="171" y="595" on="0"/>
        <pt x="171" y="634" on="1"/>
        <pt x="171" y="704" on="0"/>
        <pt x="252" y="780" on="0"/>
        <pt x="336" y="780" on="1"/>
        <pt x="459" y="780" on="1"/>
        <pt x="459" y="691" on="1"/>
        <pt x="369" y="691" on="1"/>
        <pt x="331" y="691" on="0"/>
        <pt x="296" y="657" on="0"/>
        <pt x="296" y="625" on="1"/>
        <pt x="296" y="591" on="0"/>
        <pt x="311" y="517" on="0"/>
        <pt x="311" y="479" on="1"/>
        <pt x="311" y="413" on="0"/>
        <pt x="248" y="350" on="0"/>
        <pt x="192" y="337" on="1"/>
        <pt x="192" y="335" on="1"/>
        <pt x="248" y="323" on="0"/>
        <pt x="311" y="259" on="0"/>
        <pt x="311" y="192" on="1"/>
        <pt x="311" y="156" on="0"/>
        <pt x="296" y="80" on="0"/>
        <pt x="296" y="47" on="1"/>
        <pt x="296" y="15" on="0"/>
        <pt x="330" y="-20" on="0"/>
        <pt x="368" y="-20" on="1"/>
        <pt x="450" y="-20" on="1"/>
        <pt x="464" y="-109" on="1"/>
      </contour>
    </TTGlyph>
    <TTGlyph name="braceleft.flat" xMin="43" yMin="-109" xMax="459" yMax="780">
      <contour>
        <pt x="336" y="-109" on="1"/>
        <pt x="252" y="-109" on="0"/>
        <pt x="171" y="-34" on="0"/>
        <pt x="171" y="36" on="1"/>
        <pt x="171" y="75" on="0"/>
        <pt x="186" y="150" on="0"/>
        <pt x="186" y="189" on="1"/>
        <pt x="186" y="247" on="0"/>
        <pt x="127" y="292" on="0"/>
        <pt x="79" y="292" on="1"/>
        <pt x="43" y="292" on="1"/>
        <pt x="43" y="382" on="1"/>
        <pt x="78" y="382" on="1"/>
        <pt x="127" y="382" on="0"/>
        <pt x="186" y="425" on="0"/>
        <pt x="186" y="482" on="1"/>
        <pt x="186" y="521" on="0"/>
        <pt x="171" y="595" on="0"/>
        <pt x="171" y="634" on="1"/>
        <pt x="171" y="704" on="0"/>
        <pt x="252" y="780" on="0"/>
        <pt x="336" y="780" on="1"/>
        <pt x="459" y="780" on="1"/>
        <pt x="459" y="691" on="1"/>
        <pt x="369" y="691" on="1"/>
        <pt x="331" y="691" on="0"/>
        <pt x="296" y="657" on="0"/>
        <pt x="296" y="625" on="1"/>
        <pt x="296" y="591" on="0"/>
        <pt x="311" y="517" on="0"/>
        <pt x="311" y="479" on="1"/>
        <pt x="311" y="413" on="0"/>
        <pt x="248" y="350" on="0"/>
        <pt x="192" y="337" on="1"/>
        <pt x="192" y="335" on="1"/>
        <pt x="248" y="323" on="0"/>
        <pt x="311" y="259" on="0"/>
        <pt x="311" y="192" on="1"/>
        <pt x="311" y="156" on="0"/>
        <pt x="296" y="80" on="0"/>
        <pt x="296" y="47" on="1"/>
        <pt x="296" y="15" on="0"/>
        <pt x="330" y="-20" on="0"/>
        <pt x="368" y="-20" on="1"/>
        <pt x="459" y="-20" on="1"/>
        <pt x="459" y="-109" on="1"/>
      </contour>
    </TTGlyph>
    <TTGlyph name="braceright" xMin="40" yMin="-109" xMax="468" yMax="780">
      <contour>
        <pt x="168" y="780" on="1"/>
        <pt x="252" y="780" on="0"/>
        <pt x="332" y="705" on="0"/>
        <pt x="332" y="635" on="1"/>
        <pt x="332" y="597" on="0"/>
        <pt x="317" y="521" on="0"/>
        <pt x="317" y="482" on="1"/>
        <pt x="317" y="424" on="0"/>
        <pt x="377" y="380" on="0"/>
        <pt x="425" y="380" on="1"/>
        <pt x="453" y="380" on="1"/>
        <pt x="468" y="291" on="1"/>
        <pt x="426" y="291" on="1"/>
        <pt x="377" y="291" on="0"/>
        <pt x="317" y="247" on="0"/>
        <pt x="317" y="189" on="1"/>
        <pt x="317" y="150" on="0"/>
        <pt x="332" y="76" on="0"/>
        <pt x="332" y="38" on="1"/>
        <pt x="332" y="-32" on="0"/>
        <pt x="251" y="-109" on="0"/>
        <pt x="168" y="-109" on="1"/>
        <pt x="46" y="-109" on="1"/>
        <pt x="46" y="-20" on="1"/>
        <pt x="136" y="-20" on="1"/>
        <pt x="173" y="-20" on="0"/>
        <pt x="208" y="15" on="0"/>
        <pt x="208" y="47" on="1"/>
        <pt x="208" y="81" on="0"/>
        <pt x="193" y="155" on="0"/>
        <pt x="193" y="192" on="1"/>
        <pt x="193" y="258" on="0"/>
        <pt x="256" y="322" on="0"/>
        <pt x="312" y="335" on="1"/>
        <pt x="312" y="337" on="1"/>
        <pt x="256" y="349" on="0"/>
        <pt x="193" y="413" on="0"/>
        <pt x="193" y="479" on="1"/>
        <pt x="193" y="516" on="0"/>
        <pt x="208" y="591" on="0"/>
        <pt x="208" y="625" on="1"/>
        <pt x="208" y="656" on="0"/>
        <pt x="174" y="691" on="0"/>
        <pt x="136" y="691" on="1"/>
        <pt x="54" y="691" on="1"/>
        <pt x="40" y="780" on="1"/>
      </contour>
    </TTGlyph>
    <TTGlyph name="braceright.flat" xMin="46" yMin="-109" xMax="460" yMax="780">
      <contour>
        <pt x="168" y="780" on="1"/>
        <pt x="252" y="780" on="0"/>
        <pt x="332" y="705" on="0"/>
        <pt x="332" y="635" on="1"/>
        <pt x="332" y="597" on="0"/>
        <pt x="317" y="521" on="0"/>
        <pt x="317" y="482" on="1"/>
        <pt x="317" y="424" on="0"/>
        <pt x="377" y="380" on="0"/>
        <pt x="425" y="380" on="1"/>
        <pt x="460" y="380" on="1"/>
        <pt x="460" y="291" on="1"/>
        <pt x="426" y="291" on="1"/>
        <pt x="377" y="291" on="0"/>
        <pt x="317" y="247" on="0"/>
        <pt x="317" y="189" on="1"/>
        <pt x="317" y="150" on="0"/>
        <pt x="332" y="76" on="0"/>
        <pt x="332" y="38" on="1"/>
        <pt x="332" y="-32" on="0"/>
        <pt x="251" y="-109" on="0"/>
        <pt x="168" y="-109" on="1"/>
        <pt x="46" y="-109" on="1"/>
        <pt x="46" y="-20" on="1"/>
        <pt x="136" y="-20" on="1"/>
        <pt x="173" y="-20" on="0"/>
        <pt x="208" y="15" on="0"/>
        <pt x="208" y="47" on="1"/>
        <pt x="208" y="81" on="0"/>
        <pt x="193" y="155" on="0"/>
        <pt x="193" y="192" on="1"/>
        <pt x="193" y="258" on="0"/>
        <pt x="256" y="322" on="0"/>
        <pt x="312" y="335" on="1"/>
        <pt x="312" y="337" on="1"/>
        <pt x="256" y="349" on="0"/>
        <pt x="193" y="413" on="0"/>
        <pt x="193" y="479" on="1"/>
        <pt x="193" y="516" on="0"/>
        <pt x="208" y="591" on="0"/>
        <pt x="208" y="625" on="1"/>
        <pt x="208" y="656" on="0"/>
        <pt x="174" y="691" on="0"/>
        <pt x="136" y="691" on="1"/>
        <pt x="46" y="691" on="1"/>
        <pt x="46" y="780" on="1"/>
      </contour>
    </TTGlyph>
    <TTGlyph name="bracketleft" xMin="90" yMin="-109" xMax="388" yMax="780">
      <contour>
        <pt x="90" y="-109" on="1"/>
        <pt x="90" y="780" on="1"/>
        <pt x="383" y="780" on="1"/>
        <pt x="383" y="691" on="1"/>
        <pt x="211" y="691" on="1"/>
        <pt x="211" y="-20" on="1"/>
        <pt x="374" y="-20" on="1"/>
        <pt x="388" y="-109" on="1"/>
      </contour>
    </TTGlyph>
    <TTGlyph name="bracketleft.flat" xMin="90" yMin="-109" xMax="383" yMax="780">
      <contour>
        <pt x="90" y="-109" on="1"/>
        <pt x="90" y="780" on="1"/>
        <pt x="383" y="780" on="1"/>
        <pt x="383" y="691" on="1"/>
        <pt x="211" y="691" on="1"/>
        <pt x="211" y="-20" on="1"/>
        <pt x="383" y="-20" on="1"/>
        <pt x="383" y="-109" on="1"/>
      </contour>
    </TTGlyph>
    <TTGlyph name="bracketright" xMin="39" yMin="-109" xMax="339" yMax="780">
      <contour>
        <pt x="339" y="780" on="1"/>
        <pt x="339" y="-109" on="1"/>
        <pt x="46" y="-109" on="1"/>
        <pt x="46" y="-20" on="1"/>
        <pt x="216" y="-20" on="1"/>
        <pt x="216" y="692" on="1"/>
        <pt x="54" y="692" on="1"/>
        <pt x="39" y="780" on="1"/>
      </contour>
    </TTGlyph>
    <TTGlyph name="bracketright.flat" xMin="46" yMin="-109" xMax="339" yMax="780">
      <contour>
        <pt x="339" y="780" on="1"/>
        <pt x="339" y="-109" on="1"/>
        <pt x="46" y="-109" on="1"/>
        <pt x="46" y="-20" on="1"/>
        <pt x="216" y="-20" on="1"/>
        <pt x="216" y="692" on="1"/>
        <pt x="46" y="692" on="1"/>
        <pt x="46" y="780" on="1"/>
      </contour>
    </TTGlyph>
    <TTGlyph name="breve" xMin="82" yMin="606" xMax="389" yMax="759">
      <contour>
        <pt x="389" y="745" on="1"/>
        <pt x="380" y="678" on="0"/>
        <pt x="304" y="606" on="0"/>
        <pt x="235" y="606" on="1"/>
        <pt x="168" y="606" on="0"/>
        <pt x="91" y="677" on="0"/>
        <pt x="82" y="745" on="1"/>
        <pt x="159" y="759" on="1"/>
        <pt x="167" y="724" on="0"/>
        <pt x="206" y="694" on="0"/>
        <pt x="235" y="694" on="1"/>
        <pt x="265" y="694" on="0"/>
        <pt x="303" y="724" on="0"/>
        <pt x="311" y="759" on="1"/>
      </contour>
    </TTGlyph>
    <TTGlyph name="breve.cap" xMin="76" yMin="568" xMax="366" yMax="712">
      <contour>
        <pt x="366" y="699" on="1"/>
        <pt x="357" y="636" on="0"/>
        <pt x="285" y="568" on="0"/>
        <pt x="221" y="568" on="1"/>
        <pt x="158" y="568" on="0"/>
        <pt x="85" y="635" on="0"/>
        <pt x="76" y="699" on="1"/>
        <pt x="150" y="712" on="1"/>
        <pt x="158" y="680" on="0"/>
        <pt x="193" y="652" on="0"/>
        <pt x="221" y="652" on="1"/>
        <pt x="249" y="652" on="0"/>
        <pt x="284" y="680" on="0"/>
        <pt x="292" y="712" on="1"/>
      </contour>
    </TTGlyph>
    <TTGlyph name="bullet" xMin="81" yMin="201" xMax="372" yMax="523">
      <contour>
        <pt x="350" y="221" on="1"/>
        <pt x="226" y="201" on="1"/>
        <pt x="103" y="221" on="1"/>
        <pt x="81" y="362" on="1"/>
        <pt x="103" y="503" on="1"/>
        <pt x="226" y="523" on="1"/>
        <pt x="350" y="503" on="1"/>
        <pt x="372" y="362" on="1"/>
      </contour>
    </TTGlyph>
    <TTGlyph name="c" xMin="41" yMin="-10" xMax="434" yMax="555">
      <contour>
        <pt x="434" y="35" on="1"/>
        <pt x="401" y="14" on="0"/>
        <pt x="325" y="-10" on="0"/>
        <pt x="278" y="-10" on="1"/>
        <pt x="224" y="-10" on="0"/>
        <pt x="136" y="28" on="0"/>
        <pt x="74" y="100" on="0"/>
        <pt x="41" y="204" on="0"/>
        <pt x="41" y="271" on="1"/>
        <pt x="41" y="339" on="0"/>
        <pt x="77" y="445" on="0"/>
        <pt x="142" y="517" on="0"/>
        <pt x="232" y="555" on="0"/>
        <pt x="287" y="555" on="1"/>
        <pt x="333" y="555" on="0"/>
        <pt x="403" y="534" on="0"/>
        <pt x="430" y="518" on="1"/>
        <pt x="410" y="400" on="1"/>
        <pt x="381" y="420" on="0"/>
        <pt x="327" y="442" on="0"/>
        <pt x="295" y="442" on="1"/>
        <pt x="239" y="442" on="0"/>
        <pt x="171" y="356" on="0"/>
        <pt x="171" y="273" on="1"/>
        <pt x="171" y="188" on="0"/>
        <pt x="244" y="104" on="0"/>
        <pt x="297" y="104" on="1"/>
        <pt x="328" y="104" on="0"/>
        <pt x="385" y="123" on="0"/>
        <pt x="417" y="146" on="1"/>
      </contour>
    </TTGlyph>
    <TTGlyph name="cacute" xMin="41" yMin="-10" xMax="451" yMax="776">
      <component glyphName="acute" x="95" y="3" flags="0x4"/>
      <component glyphName="c" x="0" y="0" flags="0x4"/>
    </TTGlyph>
    <TTGlyph name="caron" xMin="75" yMin="607" xMax="395" yMax="766">
      <contour>
        <pt x="160" y="766" on="1"/>
        <pt x="235" y="693" on="1"/>
        <pt x="311" y="766" on="1"/>
        <pt x="395" y="766" on="1"/>
        <pt x="293" y="607" on="1"/>
        <pt x="177" y="607" on="1"/>
        <pt x="75" y="766" on="1"/>
      </contour>
    </TTGlyph>
    <TTGlyph name="caron.alt" xMin="167" yMin="584" xMax="301" yMax="801">
      <contour>
        <pt x="283" y="801" on="1"/>
        <pt x="291" y="781" on="0"/>
        <pt x="301" y="743" on="0"/>
        <pt x="301" y="724" on="1"/>
        <pt x="301" y="686" on="0"/>
        <pt x="261" y="613" on="0"/>
        <pt x="229" y="584" on="1"/>
        <pt x="167" y="597" on="1"/>
        <pt x="184" y="627" on="0"/>
        <pt x="199" y="675" on="0"/>
        <pt x="199" y="700" on="1"/>
        <pt x="199" y="720" on="0"/>
        <pt x="186" y="761" on="0"/>
        <pt x="175" y="785" on="1"/>
      </contour>
    </TTGlyph>
    <TTGlyph name="caron.alt.cap" xMin="156" yMin="546" xMax="283" yMax="751">
      <contour>
        <pt x="267" y="751" on="1"/>
        <pt x="283" y="713" on="0"/>
        <pt x="283" y="678" on="1"/>
        <pt x="283" y="643" on="0"/>
        <pt x="246" y="575" on="0"/>
        <pt x="216" y="546" on="1"/>
        <pt x="156" y="559" on="1"/>
        <pt x="173" y="588" on="0"/>
        <pt x="186" y="632" on="0"/>
        <pt x="186" y="655" on="1"/>
        <pt x="186" y="675" on="0"/>
        <pt x="175" y="713" on="0"/>
        <pt x="164" y="736" on="1"/>
      </contour>
    </TTGlyph>
    <TTGlyph name="caron.cap" xMin="70" yMin="569" xMax="372" yMax="719">
      <contour>
        <pt x="150" y="719" on="1"/>
        <pt x="221" y="650" on="1"/>
        <pt x="291" y="719" on="1"/>
        <pt x="372" y="719" on="1"/>
        <pt x="276" y="569" on="1"/>
        <pt x="166" y="569" on="1"/>
        <pt x="70" y="719" on="1"/>
      </contour>
    </TTGlyph>
    <TTGlyph name="ccaron" xMin="41" yMin="-10" xMax="434" yMax="769">
      <component glyphName="caron" x="38" y="3" flags="0x4"/>
      <component glyphName="c" x="0" y="0" flags="0x4"/>
    </TTGlyph>
    <TTGlyph name="ccedilla" xMin="41" yMin="-207" xMax="434" yMax="555">
      <component glyphName="c" x="0" y="0" flags="0x204"/>
      <component glyphName="cedilla" x="13" y="0" flags="0x4"/>
    </TTGlyph>
    <TTGlyph name="cdotaccent" xMin="41" yMin="-10" xMax="434" yMax="740">
      <component glyphName="c" x="0" y="0" flags="0x204"/>
      <component glyphName="dotaccent" x="38" y="3" flags="0x4"/>
    </TTGlyph>
    <TTGlyph name="cedilla" xMin="121" yMin="-207" xMax="342" yMax="-56">
      <contour>
        <pt x="206" y="-207" on="1"/>
        <pt x="121" y="-207" on="1"/>
        <pt x="187" y="-56" on="1"/>
        <pt x="342" y="-88" on="1"/>
      </contour>
    </TTGlyph>
    <TTGlyph name="cedilla.cap" xMin="113" yMin="-194" xMax="322" yMax="-53">
      <contour>
        <pt x="194" y="-194" on="1"/>
        <pt x="113" y="-194" on="1"/>
        <pt x="174" y="-53" on="1"/>
        <pt x="322" y="-82" on="1"/>
      </contour>
    </TTGlyph>
    <TTGlyph name="cent" xMin="41" yMin="-11" xMax="431" yMax="727">
      <contour>
        <pt x="431" y="141" on="1"/>
        <pt x="398" y="120" on="0"/>
        <pt x="327" y="98" on="0"/>
        <pt x="284" y="96" on="1"/>
        <pt x="274" y="96" on="1"/>
        <pt x="257" y="-11" on="1"/>
        <pt x="184" y="5" on="1"/>
        <pt x="200" y="106" on="1"/>
        <pt x="128" y="126" on="0"/>
        <pt x="41" y="252" on="0"/>
        <pt x="41" y="357" on="1"/>
        <pt x="41" y="421" on="0"/>
        <pt x="77" y="519" on="0"/>
        <pt x="141" y="586" on="0"/>
        <pt x="227" y="620" on="0"/>
        <pt x="278" y="620" on="1"/>
        <pt x="280" y="620" on="1"/>
        <pt x="298" y="727" on="1"/>
        <pt x="370" y="711" on="1"/>
        <pt x="355" y="612" on="1"/>
        <pt x="376" y="607" on="0"/>
        <pt x="411" y="591" on="0"/>
        <pt x="427" y="582" on="1"/>
        <pt x="411" y="474" on="1"/>
        <pt x="394" y="486" on="0"/>
        <pt x="357" y="506" on="0"/>
        <pt x="334" y="511" on="1"/>
        <pt x="285" y="199" on="1"/>
        <pt x="288" y="200" on="1"/>
        <pt x="324" y="200" on="0"/>
        <pt x="385" y="221" on="0"/>
        <pt x="417" y="244" on="1"/>
      </contour>
      <contour>
        <pt x="161" y="359" on="1"/>
        <pt x="161" y="253" on="0"/>
        <pt x="222" y="216" on="1"/>
        <pt x="269" y="518" on="1"/>
        <pt x="265" y="518" on="0"/>
        <pt x="262" y="517" on="1"/>
        <pt x="214" y="510" on="0"/>
        <pt x="160" y="428" on="0"/>
      </contour>
    </TTGlyph>
    <TTGlyph name="cent.tab" xMin="64" yMin="-12" xMax="464" yMax="726">
      <contour>
        <pt x="464" y="144" on="1"/>
        <pt x="429" y="122" on="0"/>
        <pt x="358" y="100" on="0"/>
        <pt x="313" y="98" on="1"/>
        <pt x="303" y="98" on="1"/>
        <pt x="286" y="-12" on="1"/>
        <pt x="214" y="5" on="1"/>
        <pt x="230" y="107" on="1"/>
        <pt x="155" y="127" on="0"/>
        <pt x="64" y="254" on="0"/>
        <pt x="64" y="357" on="1"/>
        <pt x="64" y="420" on="0"/>
        <pt x="101" y="518" on="0"/>
        <pt x="165" y="584" on="0"/>
        <pt x="254" y="619" on="0"/>
        <pt x="305" y="619" on="1"/>
        <pt x="308" y="619" on="1"/>
        <pt x="325" y="726" on="1"/>
        <pt x="398" y="710" on="1"/>
        <pt x="382" y="612" on="1"/>
        <pt x="405" y="607" on="0"/>
        <pt x="443" y="591" on="0"/>
        <pt x="460" y="580" on="1"/>
        <pt x="444" y="472" on="1"/>
        <pt x="425" y="485" on="0"/>
        <pt x="385" y="505" on="0"/>
        <pt x="361" y="510" on="1"/>
        <pt x="314" y="200" on="1"/>
        <pt x="315" y="200" on="1"/>
        <pt x="353" y="200" on="0"/>
        <pt x="417" y="222" on="0"/>
        <pt x="451" y="245" on="1"/>
      </contour>
      <contour>
        <pt x="179" y="358" on="1"/>
        <pt x="179" y="246" on="0"/>
        <pt x="251" y="212" on="1"/>
        <pt x="297" y="517" on="1"/>
        <pt x="292" y="517" on="1"/>
        <pt x="238" y="512" on="0"/>
        <pt x="179" y="430" on="0"/>
      </contour>
    </TTGlyph>
    <TTGlyph name="circumflex" xMin="75" yMin="607" xMax="395" yMax="767">
      <contour>
        <pt x="311" y="607" on="1"/>
        <pt x="235" y="680" on="1"/>
        <pt x="160" y="607" on="1"/>
        <pt x="75" y="607" on="1"/>
        <pt x="177" y="767" on="1"/>
        <pt x="294" y="767" on="1"/>
        <pt x="395" y="607" on="1"/>
      </contour>
    </TTGlyph>
    <TTGlyph name="circumflex.cap" xMin="70" yMin="569" xMax="372" yMax="719">
      <contour>
        <pt x="291" y="569" on="1"/>
        <pt x="221" y="637" on="1"/>
        <pt x="150" y="569" on="1"/>
        <pt x="70" y="569" on="1"/>
        <pt x="166" y="719" on="1"/>
        <pt x="276" y="719" on="1"/>
        <pt x="372" y="569" on="1"/>
      </contour>
    </TTGlyph>
    <TTGlyph name="colon" xMin="59" yMin="0" xMax="198" yMax="545">
      <contour>
        <pt x="59" y="384" on="1"/>
        <pt x="59" y="545" on="1"/>
        <pt x="198" y="545" on="1"/>
        <pt x="198" y="384" on="1"/>
      </contour>
      <contour>
        <pt x="59" y="0" on="1"/>
        <pt x="59" y="161" on="1"/>
        <pt x="198" y="161" on="1"/>
        <pt x="198" y="0" on="1"/>
      </contour>
    </TTGlyph>
    <TTGlyph name="colon.tab" xMin="64" yMin="0" xMax="200" yMax="545">
      <contour>
        <pt x="64" y="383" on="1"/>
        <pt x="64" y="545" on="1"/>
        <pt x="200" y="545" on="1"/>
        <pt x="200" y="383" on="1"/>
      </contour>
      <contour>
        <pt x="64" y="0" on="1"/>
        <pt x="64" y="162" on="1"/>
        <pt x="200" y="162" on="1"/>
        <pt x="200" y="0" on="1"/>
      </contour>
    </TTGlyph>
    <TTGlyph name="colonmonetary" xMin="44" yMin="-126" xMax="531" yMax="798">
      <contour>
        <pt x="177" y="-110" on="1"/>
        <pt x="199" y="24" on="1"/>
        <pt x="123" y="62" on="0"/>
        <pt x="44" y="233" on="0"/>
        <pt x="44" y="355" on="1"/>
        <pt x="44" y="434" on="0"/>
        <pt x="79" y="565" on="0"/>
        <pt x="148" y="661" on="0"/>
        <pt x="247" y="717" on="0"/>
        <pt x="312" y="721" on="1"/>
        <pt x="325" y="798" on="1"/>
        <pt x="393" y="783" on="1"/>
        <pt x="382" y="718" on="1"/>
        <pt x="400" y="716" on="0"/>
        <pt x="432" y="706" on="0"/>
        <pt x="446" y="701" on="1"/>
        <pt x="462" y="798" on="1"/>
        <pt x="531" y="783" on="1"/>
        <pt x="422" y="116" on="1"/>
        <pt x="439" y="122" on="0"/>
        <pt x="473" y="140" on="0"/>
        <pt x="490" y="151" on="1"/>
        <pt x="507" y="46" on="1"/>
        <pt x="459" y="18" on="0"/>
        <pt x="404" y="5" on="1"/>
        <pt x="383" y="-126" on="1"/>
        <pt x="314" y="-110" on="1"/>
        <pt x="331" y="-4" on="1"/>
        <pt x="325" y="-4" on="1"/>
        <pt x="309" y="-4" on="0"/>
        <pt x="280" y="-1" on="0"/>
        <pt x="266" y="1" on="1"/>
        <pt x="246" y="-126" on="1"/>
      </contour>
      <contour>
        <pt x="165" y="346" on="1"/>
        <pt x="165" y="274" on="0"/>
        <pt x="194" y="171" on="0"/>
        <pt x="225" y="140" on="1"/>
        <pt x="303" y="616" on="1"/>
        <pt x="267" y="610" on="0"/>
        <pt x="215" y="565" on="0"/>
        <pt x="181" y="495" on="0"/>
        <pt x="165" y="401" on="0"/>
      </contour>
      <contour>
        <pt x="335" y="99" on="1"/>
        <pt x="342" y="99" on="0"/>
        <pt x="354" y="99" on="0"/>
        <pt x="360" y="100" on="1"/>
        <pt x="439" y="591" on="1"/>
        <pt x="402" y="610" on="0"/>
        <pt x="363" y="616" on="1"/>
        <pt x="280" y="107" on="1"/>
        <pt x="306" y="99" on="0"/>
      </contour>
    </TTGlyph>
    <TTGlyph name="comma" xMin="27" yMin="-145" xMax="215" yMax="161">
      <contour>
        <pt x="101" y="-145" on="1"/>
        <pt x="27" y="-128" on="1"/>
        <pt x="68" y="161" on="1"/>
        <pt x="215" y="161" on="1"/>
      </contour>
    </TTGlyph>
    <TTGlyph name="comma.alt" xMin="20" yMin="-147" xMax="202" yMax="161">
      <contour>
        <pt x="193" y="161" on="1"/>
        <pt x="197" y="143" on="0"/>
        <pt x="202" y="105" on="0"/>
        <pt x="202" y="86" on="1"/>
        <pt x="202" y="23" on="0"/>
        <pt x="147" y="-90" on="0"/>
        <pt x="93" y="-147" on="1"/>
        <pt x="20" y="-124" on="1"/>
        <pt x="49" y="-70" on="0"/>
        <pt x="72" y="20" on="0"/>
        <pt x="72" y="64" on="1"/>
        <pt x="72" y="87" on="0"/>
        <pt x="66" y="134" on="0"/>
        <pt x="60" y="161" on="1"/>
      </contour>
    </TTGlyph>
    <TTGlyph name="comma.tab" xMin="35" yMin="-151" xMax="224" yMax="163">
      <contour>
        <pt x="112" y="-151" on="1"/>
        <pt x="35" y="-136" on="1"/>
        <pt x="81" y="163" on="1"/>
        <pt x="224" y="163" on="1"/>
      </contour>
    </TTGlyph>
    <TTGlyph name="comma.tab_alt" xMin="30" yMin="-151" xMax="212" yMax="163">
      <contour>
        <pt x="202" y="163" on="1"/>
        <pt x="207" y="145" on="0"/>
        <pt x="212" y="105" on="0"/>
        <pt x="212" y="86" on="1"/>
        <pt x="212" y="23" on="0"/>
        <pt x="155" y="-92" on="0"/>
        <pt x="99" y="-151" on="1"/>
        <pt x="30" y="-127" on="1"/>
        <pt x="59" y="-72" on="0"/>
        <pt x="84" y="19" on="0"/>
        <pt x="84" y="64" on="1"/>
        <pt x="84" y="88" on="0"/>
        <pt x="77" y="135" on="0"/>
        <pt x="71" y="163" on="1"/>
      </contour>
    </TTGlyph>
    <TTGlyph name="commaaccent" xMin="148" yMin="-270" xMax="310" yMax="-56">
      <contour>
        <pt x="269" y="-56" on="1"/>
        <pt x="289" y="-77" on="0"/>
        <pt x="310" y="-119" on="0"/>
        <pt x="310" y="-143" on="1"/>
        <pt x="310" y="-173" on="0"/>
        <pt x="271" y="-235" on="0"/>
        <pt x="226" y="-270" on="1"/>
        <pt x="148" y="-253" on="1"/>
        <pt x="172" y="-222" on="0"/>
        <pt x="194" y="-177" on="0"/>
        <pt x="194" y="-156" on="1"/>
        <pt x="194" y="-137" on="0"/>
        <pt x="177" y="-104" on="0"/>
        <pt x="158" y="-82" on="1"/>
      </contour>
    </TTGlyph>
    <TTGlyph name="commaaccent.cap" xMin="138" yMin="-253" xMax="292" yMax="-53">
      <contour>
        <pt x="254" y="-53" on="1"/>
        <pt x="273" y="-73" on="0"/>
        <pt x="292" y="-111" on="0"/>
        <pt x="292" y="-134" on="1"/>
        <pt x="292" y="-163" on="0"/>
        <pt x="255" y="-220" on="0"/>
        <pt x="213" y="-253" on="1"/>
        <pt x="138" y="-238" on="1"/>
        <pt x="161" y="-209" on="0"/>
        <pt x="182" y="-166" on="0"/>
        <pt x="182" y="-146" on="1"/>
        <pt x="182" y="-129" on="0"/>
        <pt x="166" y="-97" on="0"/>
        <pt x="148" y="-77" on="1"/>
      </contour>
    </TTGlyph>
    <TTGlyph name="commaaccent.rot" xMin="175" yMin="606" xMax="337" yMax="819">
      <contour>
        <pt x="216" y="606" on="1"/>
        <pt x="196" y="627" on="0"/>
        <pt x="175" y="668" on="0"/>
        <pt x="175" y="692" on="1"/>
        <pt x="175" y="722" on="0"/>
        <pt x="214" y="784" on="0"/>
        <pt x="259" y="819" on="1"/>
        <pt x="337" y="803" on="1"/>
        <pt x="313" y="772" on="0"/>
        <pt x="291" y="727" on="0"/>
        <pt x="291" y="705" on="1"/>
        <pt x="291" y="687" on="0"/>
        <pt x="308" y="653" on="0"/>
        <pt x="327" y="631" on="1"/>
      </contour>
    </TTGlyph>
    <TTGlyph name="copyright" xMin="53" yMin="-19" xMax="708" yMax="743">
      <contour>
        <pt x="708" y="363" on="1"/>
        <pt x="708" y="278" on="0"/>
        <pt x="660" y="138" on="0"/>
        <pt x="574" y="37" on="0"/>
        <pt x="453" y="-19" on="0"/>
        <pt x="380" y="-19" on="1"/>
        <pt x="306" y="-19" on="0"/>
        <pt x="186" y="36" on="0"/>
        <pt x="100" y="136" on="0"/>
        <pt x="53" y="276" on="0"/>
        <pt x="53" y="361" on="1"/>
        <pt x="53" y="446" on="0"/>
        <pt x="101" y="587" on="0"/>
        <pt x="187" y="688" on="0"/>
        <pt x="308" y="743" on="0"/>
        <pt x="381" y="743" on="1"/>
        <pt x="454" y="743" on="0"/>
        <pt x="575" y="688" on="0"/>
        <pt x="661" y="588" on="0"/>
        <pt x="708" y="448" on="0"/>
      </contour>
      <contour>
        <pt x="663" y="362" on="1"/>
        <pt x="663" y="444" on="0"/>
        <pt x="619" y="572" on="0"/>
        <pt x="542" y="660" on="0"/>
        <pt x="439" y="706" on="0"/>
        <pt x="381" y="706" on="1"/>
        <pt x="321" y="706" on="0"/>
        <pt x="218" y="660" on="0"/>
        <pt x="142" y="572" on="0"/>
        <pt x="98" y="444" on="0"/>
        <pt x="98" y="362" on="1"/>
        <pt x="98" y="281" on="0"/>
        <pt x="142" y="153" on="0"/>
        <pt x="218" y="66" on="0"/>
        <pt x="322" y="20" on="0"/>
        <pt x="381" y="20" on="1"/>
        <pt x="440" y="20" on="0"/>
        <pt x="543" y="66" on="0"/>
        <pt x="619" y="153" on="0"/>
        <pt x="663" y="281" on="0"/>
      </contour>
      <contour>
        <pt x="511" y="183" on="1"/>
        <pt x="485" y="166" on="0"/>
        <pt x="428" y="148" on="0"/>
        <pt x="395" y="148" on="1"/>
        <pt x="311" y="148" on="0"/>
        <pt x="214" y="263" on="0"/>
        <pt x="214" y="365" on="1"/>
        <pt x="214" y="415" on="0"/>
        <pt x="240" y="495" on="0"/>
        <pt x="288" y="552" on="0"/>
        <pt x="355" y="583" on="0"/>
        <pt x="397" y="583" on="1"/>
        <pt x="429" y="583" on="0"/>
        <pt x="480" y="569" on="0"/>
        <pt x="504" y="555" on="1"/>
        <pt x="492" y="470" on="1"/>
        <pt x="467" y="487" on="0"/>
        <pt x="427" y="501" on="0"/>
        <pt x="403" y="501" on="1"/>
        <pt x="359" y="501" on="0"/>
        <pt x="308" y="428" on="0"/>
        <pt x="308" y="366" on="1"/>
        <pt x="308" y="303" on="0"/>
        <pt x="359" y="230" on="0"/>
        <pt x="405" y="230" on="1"/>
        <pt x="428" y="230" on="0"/>
        <pt x="472" y="247" on="0"/>
        <pt x="499" y="264" on="1"/>
      </contour>
    </TTGlyph>
    <TTGlyph name="d" xMin="42" yMin="-11" xMax="497" yMax="809">
      <contour>
        <pt x="387" y="0" on="1"/>
        <pt x="376" y="66" on="1"/>
        <pt x="348" y="35" on="0"/>
        <pt x="278" y="-11" on="0"/>
        <pt x="230" y="-11" on="1"/>
        <pt x="190" y="-11" on="0"/>
        <pt x="122" y="22" on="0"/>
        <pt x="71" y="89" on="0"/>
        <pt x="42" y="190" on="0"/>
        <pt x="42" y="258" on="1"/>
        <pt x="42" y="334" on="0"/>
        <pt x="79" y="445" on="0"/>
        <pt x="142" y="516" on="0"/>
        <pt x="223" y="550" on="0"/>
        <pt x="268" y="550" on="1"/>
        <pt x="297" y="550" on="0"/>
        <pt x="345" y="541" on="0"/>
        <pt x="366" y="534" on="1"/>
        <pt x="366" y="789" on="1"/>
        <pt x="497" y="809" on="1"/>
        <pt x="497" y="0" on="1"/>
      </contour>
      <contour>
        <pt x="366" y="425" on="1"/>
        <pt x="346" y="435" on="0"/>
        <pt x="311" y="443" on="0"/>
        <pt x="286" y="443" on="1"/>
        <pt x="237" y="443" on="0"/>
        <pt x="172" y="357" on="0"/>
        <pt x="172" y="265" on="1"/>
        <pt x="172" y="181" on="0"/>
        <pt x="225" y="105" on="0"/>
        <pt x="264" y="105" on="1"/>
        <pt x="293" y="105" on="0"/>
        <pt x="342" y="138" on="0"/>
        <pt x="366" y="165" on="1"/>
      </contour>
    </TTGlyph>
    <TTGlyph name="dagger" xMin="54" yMin="-107" xMax="463" yMax="725">
      <contour>
        <pt x="275" y="516" on="1"/>
        <pt x="243" y="516" on="1"/>
        <pt x="209" y="649" on="1"/>
        <pt x="209" y="725" on="1"/>
        <pt x="309" y="725" on="1"/>
        <pt x="309" y="649" on="1"/>
      </contour>
      <contour>
        <pt x="423" y="430" on="1"/>
        <pt x="298" y="462" on="1"/>
        <pt x="298" y="493" on="1"/>
        <pt x="423" y="527" on="1"/>
        <pt x="463" y="527" on="1"/>
        <pt x="463" y="430" on="1"/>
      </contour>
      <contour>
        <pt x="94" y="430" on="1"/>
        <pt x="54" y="430" on="1"/>
        <pt x="54" y="527" on="1"/>
        <pt x="94" y="527" on="1"/>
        <pt x="220" y="493" on="1"/>
        <pt x="220" y="462" on="1"/>
      </contour>
      <contour>
        <pt x="273" y="-107" on="1"/>
        <pt x="244" y="-107" on="1"/>
        <pt x="214" y="27" on="1"/>
        <pt x="214" y="313" on="1"/>
        <pt x="243" y="440" on="1"/>
        <pt x="275" y="440" on="1"/>
        <pt x="303" y="313" on="1"/>
        <pt x="303" y="27" on="1"/>
      </contour>
    </TTGlyph>
    <TTGlyph name="daggerdbl" xMin="60" yMin="-176" xMax="467" yMax="725">
      <contour>
        <pt x="280" y="516" on="1"/>
        <pt x="248" y="516" on="1"/>
        <pt x="214" y="649" on="1"/>
        <pt x="214" y="725" on="1"/>
        <pt x="313" y="725" on="1"/>
        <pt x="313" y="649" on="1"/>
      </contour>
      <contour>
        <pt x="428" y="430" on="1"/>
        <pt x="302" y="462" on="1"/>
        <pt x="302" y="493" on="1"/>
        <pt x="428" y="526" on="1"/>
        <pt x="467" y="526" on="1"/>
        <pt x="467" y="430" on="1"/>
      </contour>
      <contour>
        <pt x="99" y="430" on="1"/>
        <pt x="60" y="430" on="1"/>
        <pt x="60" y="526" on="1"/>
        <pt x="99" y="526" on="1"/>
        <pt x="225" y="493" on="1"/>
        <pt x="225" y="462" on="1"/>
      </contour>
      <contour>
        <pt x="280" y="111" on="1"/>
        <pt x="248" y="111" on="1"/>
        <pt x="218" y="237" on="1"/>
        <pt x="218" y="313" on="1"/>
        <pt x="248" y="440" on="1"/>
        <pt x="280" y="440" on="1"/>
        <pt x="309" y="313" on="1"/>
        <pt x="309" y="237" on="1"/>
      </contour>
      <contour>
        <pt x="428" y="24" on="1"/>
        <pt x="302" y="57" on="1"/>
        <pt x="302" y="88" on="1"/>
        <pt x="428" y="120" on="1"/>
        <pt x="467" y="120" on="1"/>
        <pt x="467" y="24" on="1"/>
      </contour>
      <contour>
        <pt x="99" y="24" on="1"/>
        <pt x="60" y="24" on="1"/>
        <pt x="60" y="120" on="1"/>
        <pt x="99" y="120" on="1"/>
        <pt x="225" y="88" on="1"/>
        <pt x="225" y="57" on="1"/>
      </contour>
      <contour>
        <pt x="214" y="-176" on="1"/>
        <pt x="214" y="-99" on="1"/>
        <pt x="248" y="34" on="1"/>
        <pt x="280" y="34" on="1"/>
        <pt x="313" y="-99" on="1"/>
        <pt x="313" y="-176" on="1"/>
      </contour>
    </TTGlyph>
    <TTGlyph name="dcaron" xMin="42" yMin="-11" xMax="667" yMax="810">
      <component glyphName="caron.alt" x="366" y="9" flags="0x4"/>
      <component glyphName="d" x="0" y="0" flags="0x4"/>
    </TTGlyph>
    <TTGlyph name="dcroat" xMin="42" yMin="-11" xMax="565" yMax="809">
      <contour>
        <pt x="387" y="0" on="1"/>
        <pt x="376" y="66" on="1"/>
        <pt x="349" y="35" on="0"/>
        <pt x="278" y="-11" on="0"/>
        <pt x="229" y="-11" on="1"/>
        <pt x="190" y="-11" on="0"/>
        <pt x="121" y="22" on="0"/>
        <pt x="71" y="89" on="0"/>
        <pt x="42" y="190" on="0"/>
        <pt x="42" y="258" on="1"/>
        <pt x="42" y="334" on="0"/>
        <pt x="79" y="445" on="0"/>
        <pt x="142" y="516" on="0"/>
        <pt x="223" y="550" on="0"/>
        <pt x="268" y="550" on="1"/>
        <pt x="297" y="550" on="0"/>
        <pt x="345" y="541" on="0"/>
        <pt x="366" y="534" on="1"/>
        <pt x="366" y="626" on="1"/>
        <pt x="243" y="626" on="1"/>
        <pt x="229" y="717" on="1"/>
        <pt x="366" y="717" on="1"/>
        <pt x="366" y="789" on="1"/>
        <pt x="497" y="809" on="1"/>
        <pt x="497" y="717" on="1"/>
        <pt x="565" y="717" on="1"/>
        <pt x="565" y="626" on="1"/>
        <pt x="497" y="626" on="1"/>
        <pt x="497" y="0" on="1"/>
      </contour>
      <contour>
        <pt x="366" y="425" on="1"/>
        <pt x="346" y="435" on="0"/>
        <pt x="311" y="443" on="0"/>
        <pt x="286" y="443" on="1"/>
        <pt x="237" y="443" on="0"/>
        <pt x="172" y="358" on="0"/>
        <pt x="172" y="266" on="1"/>
        <pt x="172" y="182" on="0"/>
        <pt x="225" y="106" on="0"/>
        <pt x="264" y="106" on="1"/>
        <pt x="293" y="106" on="0"/>
        <pt x="342" y="139" on="0"/>
        <pt x="366" y="166" on="1"/>
      </contour>
    </TTGlyph>
    <TTGlyph name="dcroat.flat" xMin="42" yMin="-11" xMax="565" yMax="809">
      <contour>
        <pt x="387" y="0" on="1"/>
        <pt x="376" y="66" on="1"/>
        <pt x="349" y="35" on="0"/>
        <pt x="278" y="-11" on="0"/>
        <pt x="229" y="-11" on="1"/>
        <pt x="190" y="-11" on="0"/>
        <pt x="121" y="22" on="0"/>
        <pt x="71" y="89" on="0"/>
        <pt x="42" y="190" on="0"/>
        <pt x="42" y="258" on="1"/>
        <pt x="42" y="334" on="0"/>
        <pt x="79" y="445" on="0"/>
        <pt x="142" y="516" on="0"/>
        <pt x="223" y="550" on="0"/>
        <pt x="268" y="550" on="1"/>
        <pt x="297" y="550" on="0"/>
        <pt x="345" y="541" on="0"/>
        <pt x="366" y="534" on="1"/>
        <pt x="366" y="626" on="1"/>
        <pt x="236" y="626" on="1"/>
        <pt x="236" y="717" on="1"/>
        <pt x="366" y="717" on="1"/>
        <pt x="366" y="789" on="1"/>
        <pt x="497" y="809" on="1"/>
        <pt x="497" y="717" on="1"/>
        <pt x="565" y="717" on="1"/>
        <pt x="565" y="626" on="1"/>
        <pt x="497" y="626" on="1"/>
        <pt x="497" y="0" on="1"/>
      </contour>
      <contour>
        <pt x="366" y="425" on="1"/>
        <pt x="346" y="435" on="0"/>
        <pt x="311" y="443" on="0"/>
        <pt x="286" y="443" on="1"/>
        <pt x="237" y="443" on="0"/>
        <pt x="172" y="358" on="0"/>
        <pt x="172" y="266" on="1"/>
        <pt x="172" y="182" on="0"/>
        <pt x="225" y="106" on="0"/>
        <pt x="264" y="106" on="1"/>
        <pt x="293" y="106" on="0"/>
        <pt x="342" y="139" on="0"/>
        <pt x="366" y="166" on="1"/>
      </contour>
    </TTGlyph>
    <TTGlyph name="degree" xMin="46" yMin="395" xMax="376" yMax="725">
      <contour>
        <pt x="376" y="559" on="1"/>
        <pt x="376" y="523" on="0"/>
        <pt x="351" y="463" on="0"/>
        <pt x="308" y="420" on="0"/>
        <pt x="247" y="395" on="0"/>
        <pt x="211" y="395" on="1"/>
        <pt x="175" y="395" on="0"/>
        <pt x="115" y="420" on="0"/>
        <pt x="71" y="463" on="0"/>
        <pt x="46" y="523" on="0"/>
        <pt x="46" y="559" on="1"/>
        <pt x="46" y="595" on="0"/>
        <pt x="71" y="655" on="0"/>
        <pt x="114" y="700" on="0"/>
        <pt x="175" y="725" on="0"/>
        <pt x="211" y="725" on="1"/>
        <pt x="247" y="725" on="0"/>
        <pt x="308" y="700" on="0"/>
        <pt x="351" y="655" on="0"/>
        <pt x="376" y="595" on="0"/>
      </contour>
      <contour>
        <pt x="297" y="559" on="1"/>
        <pt x="297" y="598" on="0"/>
        <pt x="249" y="650" on="0"/>
        <pt x="211" y="650" on="1"/>
        <pt x="173" y="650" on="0"/>
        <pt x="125" y="598" on="0"/>
        <pt x="125" y="559" on="1"/>
        <pt x="125" y="520" on="0"/>
        <pt x="173" y="469" on="0"/>
        <pt x="211" y="469" on="1"/>
        <pt x="249" y="469" on="0"/>
        <pt x="297" y="521" on="0"/>
      </contour>
    </TTGlyph>
    <TTGlyph name="degree.tab" xMin="80" yMin="359" xMax="449" yMax="727">
      <contour>
        <pt x="449" y="542" on="1"/>
        <pt x="449" y="502" on="0"/>
        <pt x="422" y="435" on="0"/>
        <pt x="372" y="386" on="0"/>
        <pt x="304" y="359" on="0"/>
        <pt x="264" y="359" on="1"/>
        <pt x="224" y="359" on="0"/>
        <pt x="156" y="386" on="0"/>
        <pt x="107" y="435" on="0"/>
        <pt x="80" y="502" on="0"/>
        <pt x="80" y="542" on="1"/>
        <pt x="80" y="582" on="0"/>
        <pt x="108" y="650" on="0"/>
        <pt x="157" y="699" on="0"/>
        <pt x="224" y="727" on="0"/>
        <pt x="264" y="727" on="1"/>
        <pt x="304" y="727" on="0"/>
        <pt x="372" y="699" on="0"/>
        <pt x="422" y="650" on="0"/>
        <pt x="449" y="582" on="0"/>
      </contour>
      <contour>
        <pt x="160" y="542" on="1"/>
        <pt x="160" y="494" on="0"/>
        <pt x="218" y="434" on="0"/>
        <pt x="264" y="434" on="1"/>
        <pt x="310" y="434" on="0"/>
        <pt x="369" y="494" on="0"/>
        <pt x="369" y="542" on="1"/>
        <pt x="369" y="589" on="0"/>
        <pt x="310" y="652" on="0"/>
        <pt x="264" y="652" on="1"/>
        <pt x="218" y="652" on="0"/>
        <pt x="160" y="589" on="0"/>
      </contour>
    </TTGlyph>
    <TTGlyph name="dieresis" xMin="80" yMin="610" xMax="391" yMax="737">
      <contour>
        <pt x="80" y="610" on="1"/>
        <pt x="80" y="737" on="1"/>
        <pt x="199" y="737" on="1"/>
        <pt x="199" y="610" on="1"/>
      </contour>
      <contour>
        <pt x="271" y="610" on="1"/>
        <pt x="271" y="737" on="1"/>
        <pt x="391" y="737" on="1"/>
        <pt x="391" y="610" on="1"/>
      </contour>
    </TTGlyph>
    <TTGlyph name="dieresis.cap" xMin="74" yMin="572" xMax="368" yMax="692">
      <contour>
        <pt x="74" y="572" on="1"/>
        <pt x="74" y="692" on="1"/>
        <pt x="187" y="692" on="1"/>
        <pt x="187" y="572" on="1"/>
      </contour>
      <contour>
        <pt x="255" y="572" on="1"/>
        <pt x="255" y="692" on="1"/>
        <pt x="368" y="692" on="1"/>
        <pt x="368" y="572" on="1"/>
      </contour>
    </TTGlyph>
    <TTGlyph name="divide" xMin="54" yMin="118" xMax="485" yMax="600">
      <contour>
        <pt x="213" y="482" on="1"/>
        <pt x="213" y="600" on="1"/>
        <pt x="326" y="600" on="1"/>
        <pt x="326" y="482" on="1"/>
      </contour>
      <contour>
        <pt x="54" y="310" on="1"/>
        <pt x="54" y="407" on="1"/>
        <pt x="485" y="407" on="1"/>
        <pt x="485" y="310" on="1"/>
      </contour>
      <contour>
        <pt x="213" y="118" on="1"/>
        <pt x="213" y="236" on="1"/>
        <pt x="326" y="236" on="1"/>
        <pt x="326" y="118" on="1"/>
      </contour>
    </TTGlyph>
    <TTGlyph name="divide.tab" xMin="49" yMin="118" xMax="480" yMax="600">
      <contour>
        <pt x="208" y="482" on="1"/>
        <pt x="208" y="600" on="1"/>
        <pt x="321" y="600" on="1"/>
        <pt x="321" y="482" on="1"/>
      </contour>
      <contour>
        <pt x="49" y="310" on="1"/>
        <pt x="49" y="407" on="1"/>
        <pt x="480" y="407" on="1"/>
        <pt x="480" y="310" on="1"/>
      </contour>
      <contour>
        <pt x="208" y="118" on="1"/>
        <pt x="208" y="236" on="1"/>
        <pt x="321" y="236" on="1"/>
        <pt x="321" y="118" on="1"/>
      </contour>
    </TTGlyph>
    <TTGlyph name="dollar" xMin="32" yMin="-130" xMax="491" yMax="801">
      <contour>
        <pt x="365" y="714" on="1"/>
        <pt x="424" y="701" on="0"/>
        <pt x="471" y="674" on="1"/>
        <pt x="452" y="561" on="1"/>
        <pt x="401" y="595" on="0"/>
        <pt x="344" y="610" on="1"/>
        <pt x="314" y="415" on="1"/>
        <pt x="358" y="395" on="0"/>
        <pt x="425" y="354" on="0"/>
        <pt x="469" y="305" on="0"/>
        <pt x="491" y="242" on="0"/>
        <pt x="491" y="201" on="1"/>
        <pt x="491" y="150" on="0"/>
        <pt x="456" y="72" on="0"/>
        <pt x="393" y="21" on="0"/>
        <pt x="307" y="-5" on="0"/>
        <pt x="257" y="-5" on="1"/>
        <pt x="254" y="-5" on="1"/>
        <pt x="234" y="-130" on="1"/>
        <pt x="163" y="-114" on="1"/>
        <pt x="181" y="2" on="1"/>
        <pt x="138" y="10" on="0"/>
        <pt x="62" y="39" on="0"/>
        <pt x="32" y="57" on="1"/>
        <pt x="50" y="169" on="1"/>
        <pt x="86" y="146" on="0"/>
        <pt x="162" y="113" on="0"/>
        <pt x="202" y="105" on="1"/>
        <pt x="235" y="319" on="1"/>
        <pt x="191" y="338" on="0"/>
        <pt x="124" y="378" on="0"/>
        <pt x="78" y="426" on="0"/>
        <pt x="55" y="488" on="0"/>
        <pt x="55" y="529" on="1"/>
        <pt x="55" y="575" on="0"/>
        <pt x="88" y="646" on="0"/>
        <pt x="147" y="696" on="0"/>
        <pt x="230" y="722" on="0"/>
        <pt x="280" y="722" on="1"/>
        <pt x="292" y="722" on="1"/>
        <pt x="304" y="801" on="1"/>
        <pt x="375" y="785" on="1"/>
      </contour>
      <contour>
        <pt x="376" y="191" on="1"/>
        <pt x="376" y="222" on="0"/>
        <pt x="344" y="269" on="0"/>
        <pt x="295" y="293" on="1"/>
        <pt x="266" y="99" on="1"/>
        <pt x="271" y="99" on="1"/>
        <pt x="322" y="101" on="0"/>
        <pt x="376" y="149" on="0"/>
      </contour>
      <contour>
        <pt x="170" y="538" on="1"/>
        <pt x="170" y="508" on="0"/>
        <pt x="204" y="466" on="0"/>
        <pt x="253" y="442" on="1"/>
        <pt x="280" y="619" on="1"/>
        <pt x="270" y="619" on="1"/>
        <pt x="222" y="619" on="0"/>
        <pt x="170" y="575" on="0"/>
      </contour>
    </TTGlyph>
    <TTGlyph name="dollar.tab" xMin="34" yMin="-129" xMax="485" yMax="800">
      <contour>
        <pt x="162" y="-114" on="1"/>
        <pt x="179" y="1" on="1"/>
        <pt x="139" y="8" on="0"/>
        <pt x="67" y="34" on="0"/>
        <pt x="34" y="51" on="1"/>
        <pt x="52" y="162" on="1"/>
        <pt x="91" y="139" on="0"/>
        <pt x="162" y="109" on="0"/>
        <pt x="199" y="101" on="1"/>
        <pt x="231" y="321" on="1"/>
        <pt x="185" y="338" on="0"/>
        <pt x="118" y="376" on="0"/>
        <pt x="75" y="424" on="0"/>
        <pt x="54" y="485" on="0"/>
        <pt x="54" y="524" on="1"/>
        <pt x="54" y="616" on="0"/>
        <pt x="169" y="722" on="0"/>
        <pt x="269" y="722" on="1"/>
        <pt x="284" y="722" on="1"/>
        <pt x="295" y="800" on="1"/>
        <pt x="366" y="785" on="1"/>
        <pt x="355" y="714" on="1"/>
        <pt x="389" y="707" on="0"/>
        <pt x="442" y="685" on="0"/>
        <pt x="465" y="674" on="1"/>
        <pt x="447" y="563" on="1"/>
        <pt x="422" y="577" on="0"/>
        <pt x="366" y="604" on="0"/>
        <pt x="336" y="613" on="1"/>
        <pt x="307" y="415" on="1"/>
        <pt x="355" y="397" on="0"/>
        <pt x="423" y="355" on="0"/>
        <pt x="465" y="305" on="0"/>
        <pt x="485" y="244" on="0"/>
        <pt x="485" y="205" on="1"/>
        <pt x="485" y="155" on="0"/>
        <pt x="452" y="77" on="0"/>
        <pt x="391" y="23" on="0"/>
        <pt x="305" y="-5" on="0"/>
        <pt x="253" y="-5" on="1"/>
        <pt x="251" y="-5" on="1"/>
        <pt x="233" y="-129" on="1"/>
      </contour>
      <contour>
        <pt x="163" y="535" on="1"/>
        <pt x="163" y="502" on="0"/>
        <pt x="197" y="457" on="0"/>
        <pt x="247" y="435" on="1"/>
        <pt x="275" y="623" on="1"/>
        <pt x="265" y="623" on="1"/>
        <pt x="263" y="623" on="1"/>
        <pt x="215" y="623" on="0"/>
        <pt x="163" y="573" on="0"/>
      </contour>
      <contour>
        <pt x="374" y="195" on="1"/>
        <pt x="374" y="227" on="0"/>
        <pt x="340" y="278" on="0"/>
        <pt x="291" y="300" on="1"/>
        <pt x="261" y="95" on="1"/>
        <pt x="263" y="95" on="1"/>
        <pt x="317" y="95" on="0"/>
        <pt x="374" y="150" on="0"/>
      </contour>
    </TTGlyph>
    <TTGlyph name="dotaccent" xMin="173" yMin="610" xMax="297" yMax="737">
      <contour>
        <pt x="173" y="610" on="1"/>
        <pt x="173" y="737" on="1"/>
        <pt x="297" y="737" on="1"/>
        <pt x="297" y="610" on="1"/>
      </contour>
    </TTGlyph>
    <TTGlyph name="dotaccent.cap" xMin="162" yMin="572" xMax="279" yMax="692">
      <contour>
        <pt x="162" y="572" on="1"/>
        <pt x="162" y="692" on="1"/>
        <pt x="279" y="692" on="1"/>
        <pt x="279" y="572" on="1"/>
      </contour>
    </TTGlyph>
    <TTGlyph name="dotlessi" xMin="72" yMin="0" xMax="202" yMax="545">
      <contour>
        <pt x="72" y="0" on="1"/>
        <pt x="72" y="545" on="1"/>
        <pt x="202" y="545" on="1"/>
        <pt x="202" y="0" on="1"/>
      </contour>
    </TTGlyph>
    <TTGlyph name="e" xMin="40" yMin="-10" xMax="480" yMax="556">
      <contour>
        <pt x="479" y="50" on="1"/>
        <pt x="441" y="24" on="0"/>
        <pt x="344" y="-10" on="0"/>
        <pt x="284" y="-10" on="1"/>
        <pt x="228" y="-10" on="0"/>
        <pt x="138" y="25" on="0"/>
        <pt x="75" y="95" on="0"/>
        <pt x="40" y="202" on="0"/>
        <pt x="40" y="273" on="1"/>
        <pt x="40" y="336" on="0"/>
        <pt x="72" y="440" on="0"/>
        <pt x="131" y="515" on="0"/>
        <pt x="215" y="556" on="0"/>
        <pt x="266" y="556" on="1"/>
        <pt x="322" y="556" on="0"/>
        <pt x="403" y="513" on="0"/>
        <pt x="455" y="438" on="0"/>
        <pt x="480" y="337" on="0"/>
        <pt x="480" y="279" on="1"/>
        <pt x="480" y="272" on="0"/>
        <pt x="479" y="245" on="0"/>
        <pt x="479" y="240" on="1"/>
        <pt x="169" y="240" on="1"/>
        <pt x="174" y="166" on="0"/>
        <pt x="242" y="94" on="0"/>
        <pt x="301" y="94" on="1"/>
        <pt x="343" y="94" on="0"/>
        <pt x="422" y="125" on="0"/>
        <pt x="463" y="153" on="1"/>
      </contour>
      <contour>
        <pt x="264" y="461" on="1"/>
        <pt x="227" y="461" on="0"/>
        <pt x="177" y="393" on="0"/>
        <pt x="170" y="327" on="1"/>
        <pt x="354" y="327" on="1"/>
        <pt x="350" y="391" on="0"/>
        <pt x="306" y="461" on="0"/>
      </contour>
    </TTGlyph>
    <TTGlyph name="eacute" xMin="40" yMin="-10" xMax="480" yMax="776">
      <component glyphName="acute" x="93" y="3" flags="0x4"/>
      <component glyphName="e" x="0" y="0" flags="0x4"/>
    </TTGlyph>
    <TTGlyph name="ebreve" xMin="40" yMin="-10" xMax="480" yMax="762">
      <component glyphName="e" x="0" y="0" flags="0x204"/>
      <component glyphName="breve" x="36" y="3" flags="0x4"/>
    </TTGlyph>
    <TTGlyph name="ecaron" xMin="40" yMin="-10" xMax="480" yMax="769">
      <component glyphName="caron" x="36" y="3" flags="0x4"/>
      <component glyphName="e" x="0" y="0" flags="0x4"/>
    </TTGlyph>
    <TTGlyph name="ecircumflex" xMin="40" yMin="-10" xMax="480" yMax="770">
      <component glyphName="circumflex" x="36" y="3" flags="0x4"/>
      <component glyphName="e" x="0" y="0" flags="0x4"/>
    </TTGlyph>
    <TTGlyph name="edieresis" xMin="40" yMin="-10" xMax="480" yMax="740">
      <component glyphName="dieresis" x="36" y="3" flags="0x4"/>
      <component glyphName="e" x="0" y="0" flags="0x4"/>
    </TTGlyph>
    <TTGlyph name="edotaccent" xMin="40" yMin="-10" xMax="480" yMax="740">
      <component glyphName="e" x="0" y="0" flags="0x204"/>
      <component glyphName="dotaccent" x="36" y="3" flags="0x4"/>
    </TTGlyph>
    <TTGlyph name="egrave" xMin="40" yMin="-10" xMax="480" yMax="776">
      <component glyphName="e" x="0" y="0" flags="0x204"/>
      <component glyphName="grave" x="-22" y="3" flags="0x4"/>
    </TTGlyph>
    <TTGlyph name="eight" xMin="42" yMin="-14" xMax="529" yMax="731">
      <contour>
        <pt x="42" y="186" on="1"/>
        <pt x="42" y="246" on="0"/>
        <pt x="111" y="340" on="0"/>
        <pt x="170" y="375" on="1"/>
        <pt x="119" y="405" on="0"/>
        <pt x="63" y="487" on="0"/>
        <pt x="63" y="545" on="1"/>
        <pt x="63" y="587" on="0"/>
        <pt x="96" y="655" on="0"/>
        <pt x="155" y="704" on="0"/>
        <pt x="238" y="731" on="0"/>
        <pt x="288" y="731" on="1"/>
        <pt x="338" y="731" on="0"/>
        <pt x="420" y="704" on="0"/>
        <pt x="478" y="656" on="0"/>
        <pt x="509" y="588" on="0"/>
        <pt x="509" y="548" on="1"/>
        <pt x="509" y="494" on="0"/>
        <pt x="451" y="411" on="0"/>
        <pt x="400" y="379" on="1"/>
        <pt x="461" y="347" on="0"/>
        <pt x="529" y="259" on="0"/>
        <pt x="529" y="189" on="1"/>
        <pt x="529" y="145" on="0"/>
        <pt x="495" y="71" on="0"/>
        <pt x="432" y="17" on="0"/>
        <pt x="341" y="-14" on="0"/>
        <pt x="285" y="-14" on="1"/>
        <pt x="226" y="-14" on="0"/>
        <pt x="136" y="17" on="0"/>
        <pt x="74" y="71" on="0"/>
        <pt x="42" y="144" on="0"/>
      </contour>
      <contour>
        <pt x="169" y="194" on="1"/>
        <pt x="169" y="144" on="0"/>
        <pt x="235" y="84" on="0"/>
        <pt x="287" y="84" on="1"/>
        <pt x="338" y="84" on="0"/>
        <pt x="402" y="142" on="0"/>
        <pt x="402" y="189" on="1"/>
        <pt x="402" y="213" on="0"/>
        <pt x="386" y="251" on="0"/>
        <pt x="352" y="284" on="0"/>
        <pt x="297" y="314" on="0"/>
        <pt x="258" y="331" on="1"/>
        <pt x="217" y="303" on="0"/>
        <pt x="169" y="234" on="0"/>
      </contour>
      <contour>
        <pt x="186" y="548" on="1"/>
        <pt x="186" y="506" on="0"/>
        <pt x="243" y="451" on="0"/>
        <pt x="309" y="421" on="1"/>
        <pt x="344" y="447" on="0"/>
        <pt x="386" y="506" on="0"/>
        <pt x="386" y="542" on="1"/>
        <pt x="386" y="584" on="0"/>
        <pt x="330" y="636" on="0"/>
        <pt x="285" y="636" on="1"/>
        <pt x="240" y="636" on="0"/>
        <pt x="186" y="586" on="0"/>
      </contour>
    </TTGlyph>
    <TTGlyph name="eight.den" xMin="36" yMin="-10" xMax="316" yMax="382">
      <component glyphName="eight.num" x="0" y="-347" flags="0x204"/>
    </TTGlyph>
    <TTGlyph name="eight.inf" xMin="36" yMin="-168" xMax="316" yMax="224">
      <component glyphName="eight.num" x="0" y="-505" flags="0x204"/>
    </TTGlyph>
    <TTGlyph name="eight.num" xMin="36" yMin="337" xMax="316" yMax="729">
      <contour>
        <pt x="36" y="443" on="1"/>
        <pt x="36" y="503" on="0"/>
        <pt x="103" y="542" on="1"/>
        <pt x="73" y="558" on="0"/>
        <pt x="46" y="601" on="0"/>
        <pt x="46" y="627" on="1"/>
        <pt x="46" y="672" on="0"/>
        <pt x="118" y="729" on="0"/>
        <pt x="177" y="729" on="1"/>
        <pt x="234" y="729" on="0"/>
        <pt x="306" y="676" on="0"/>
        <pt x="306" y="633" on="1"/>
        <pt x="306" y="602" on="0"/>
        <pt x="273" y="559" on="0"/>
        <pt x="247" y="543" on="1"/>
        <pt x="284" y="526" on="0"/>
        <pt x="316" y="478" on="0"/>
        <pt x="316" y="446" on="1"/>
        <pt x="316" y="400" on="0"/>
        <pt x="241" y="337" on="0"/>
        <pt x="175" y="337" on="1"/>
        <pt x="107" y="337" on="0"/>
        <pt x="36" y="398" on="0"/>
      </contour>
      <contour>
        <pt x="232" y="448" on="1"/>
        <pt x="232" y="471" on="0"/>
        <pt x="198" y="504" on="0"/>
        <pt x="158" y="519" on="1"/>
        <pt x="120" y="488" on="0"/>
        <pt x="120" y="451" on="1"/>
        <pt x="120" y="427" on="0"/>
        <pt x="151" y="398" on="0"/>
        <pt x="176" y="398" on="1"/>
        <pt x="202" y="398" on="0"/>
        <pt x="232" y="426" on="0"/>
      </contour>
      <contour>
        <pt x="127" y="626" on="1"/>
        <pt x="127" y="607" on="0"/>
        <pt x="156" y="579" on="0"/>
        <pt x="194" y="564" on="1"/>
        <pt x="224" y="592" on="0"/>
        <pt x="224" y="623" on="1"/>
        <pt x="224" y="644" on="0"/>
        <pt x="198" y="670" on="0"/>
        <pt x="175" y="670" on="1"/>
        <pt x="152" y="670" on="0"/>
        <pt x="127" y="645" on="0"/>
      </contour>
    </TTGlyph>
    <TTGlyph name="eight.sup" xMin="36" yMin="435" xMax="316" yMax="827">
      <component glyphName="eight.num" x="0" y="98" flags="0x204"/>
    </TTGlyph>
    <TTGlyph name="eight.tab" xMin="37" yMin="-11" xMax="489" yMax="732">
      <contour>
        <pt x="489" y="189" on="1"/>
        <pt x="489" y="147" on="0"/>
        <pt x="458" y="74" on="0"/>
        <pt x="400" y="20" on="0"/>
        <pt x="317" y="-11" on="0"/>
        <pt x="264" y="-11" on="1"/>
        <pt x="209" y="-11" on="0"/>
        <pt x="125" y="20" on="0"/>
        <pt x="67" y="74" on="0"/>
        <pt x="37" y="145" on="0"/>
        <pt x="37" y="186" on="1"/>
        <pt x="37" y="247" on="0"/>
        <pt x="98" y="343" on="0"/>
        <pt x="155" y="380" on="1"/>
        <pt x="107" y="409" on="0"/>
        <pt x="55" y="491" on="0"/>
        <pt x="55" y="545" on="1"/>
        <pt x="55" y="586" on="0"/>
        <pt x="85" y="655" on="0"/>
        <pt x="141" y="704" on="0"/>
        <pt x="218" y="732" on="0"/>
        <pt x="266" y="732" on="1"/>
        <pt x="313" y="732" on="0"/>
        <pt x="389" y="705" on="0"/>
        <pt x="443" y="656" on="0"/>
        <pt x="473" y="589" on="0"/>
        <pt x="473" y="549" on="1"/>
        <pt x="473" y="490" on="0"/>
        <pt x="413" y="406" on="0"/>
        <pt x="371" y="377" on="1"/>
        <pt x="432" y="342" on="0"/>
        <pt x="489" y="250" on="0"/>
      </contour>
      <contour>
        <pt x="368" y="191" on="1"/>
        <pt x="368" y="215" on="0"/>
        <pt x="355" y="255" on="0"/>
        <pt x="324" y="291" on="0"/>
        <pt x="274" y="323" on="0"/>
        <pt x="237" y="340" on="1"/>
        <pt x="198" y="312" on="0"/>
        <pt x="158" y="239" on="0"/>
        <pt x="158" y="197" on="1"/>
        <pt x="158" y="144" on="0"/>
        <pt x="219" y="86" on="0"/>
        <pt x="265" y="86" on="1"/>
        <pt x="312" y="86" on="0"/>
        <pt x="368" y="144" on="0"/>
      </contour>
      <contour>
        <pt x="173" y="545" on="1"/>
        <pt x="173" y="503" on="0"/>
        <pt x="225" y="445" on="0"/>
        <pt x="289" y="416" on="1"/>
        <pt x="354" y="467" on="0"/>
        <pt x="354" y="542" on="1"/>
        <pt x="354" y="586" on="0"/>
        <pt x="306" y="637" on="0"/>
        <pt x="264" y="637" on="1"/>
        <pt x="222" y="637" on="0"/>
        <pt x="173" y="585" on="0"/>
      </contour>
    </TTGlyph>
    <TTGlyph name="ellipsis" xMin="60" yMin="0" xMax="686" yMax="160">
      <contour>
        <pt x="549" y="0" on="1"/>
        <pt x="549" y="160" on="1"/>
        <pt x="686" y="160" on="1"/>
        <pt x="686" y="0" on="1"/>
      </contour>
      <contour>
        <pt x="304" y="0" on="1"/>
        <pt x="304" y="160" on="1"/>
        <pt x="441" y="160" on="1"/>
        <pt x="441" y="0" on="1"/>
      </contour>
      <contour>
        <pt x="60" y="0" on="1"/>
        <pt x="60" y="160" on="1"/>
        <pt x="197" y="160" on="1"/>
        <pt x="197" y="0" on="1"/>
      </contour>
    </TTGlyph>
    <TTGlyph name="emacron" xMin="40" yMin="-10" xMax="480" yMax="723">
      <component glyphName="e" x="0" y="0" flags="0x204"/>
      <component glyphName="macron" x="36" y="3" flags="0x4"/>
    </TTGlyph>
    <TTGlyph name="emdash" xMin="49" yMin="263" xMax="858" yMax="384">
      <contour>
        <pt x="49" y="263" on="1"/>
        <pt x="49" y="384" on="1"/>
        <pt x="858" y="384" on="1"/>
        <pt x="858" y="263" on="1"/>
      </contour>
    </TTGlyph>
    <TTGlyph name="endash" xMin="49" yMin="263" xMax="425" yMax="385">
      <contour>
        <pt x="49" y="263" on="1"/>
        <pt x="49" y="385" on="1"/>
        <pt x="425" y="385" on="1"/>
        <pt x="425" y="263" on="1"/>
      </contour>
    </TTGlyph>
    <TTGlyph name="eogonek" xMin="40" yMin="-212" xMax="480" yMax="556">
      <contour>
        <pt x="372" y="-212" on="1"/>
        <pt x="326" y="-212" on="0"/>
        <pt x="274" y="-169" on="0"/>
        <pt x="274" y="-127" on="1"/>
        <pt x="274" y="-98" on="0"/>
        <pt x="306" y="-38" on="0"/>
        <pt x="336" y="-6" on="1"/>
        <pt x="324" y="-8" on="0"/>
        <pt x="298" y="-10" on="0"/>
        <pt x="284" y="-10" on="1"/>
        <pt x="228" y="-10" on="0"/>
        <pt x="138" y="25" on="0"/>
        <pt x="75" y="95" on="0"/>
        <pt x="40" y="202" on="0"/>
        <pt x="40" y="273" on="1"/>
        <pt x="40" y="336" on="0"/>
        <pt x="72" y="440" on="0"/>
        <pt x="131" y="515" on="0"/>
        <pt x="215" y="556" on="0"/>
        <pt x="266" y="556" on="1"/>
        <pt x="322" y="556" on="0"/>
        <pt x="403" y="513" on="0"/>
        <pt x="455" y="438" on="0"/>
        <pt x="480" y="337" on="0"/>
        <pt x="480" y="279" on="1"/>
        <pt x="480" y="276" on="0"/>
        <pt x="480" y="265" on="0"/>
        <pt x="479" y="252" on="0"/>
        <pt x="479" y="241" on="0"/>
        <pt x="479" y="240" on="1"/>
        <pt x="169" y="240" on="1"/>
        <pt x="174" y="166" on="0"/>
        <pt x="242" y="94" on="0"/>
        <pt x="301" y="94" on="1"/>
        <pt x="343" y="94" on="0"/>
        <pt x="422" y="125" on="0"/>
        <pt x="463" y="153" on="1"/>
        <pt x="478" y="60" on="1"/>
        <pt x="425" y="-4" on="1"/>
        <pt x="396" y="-38" on="0"/>
        <pt x="374" y="-80" on="0"/>
        <pt x="374" y="-97" on="1"/>
        <pt x="374" y="-131" on="0"/>
        <pt x="416" y="-131" on="1"/>
        <pt x="428" y="-131" on="0"/>
        <pt x="450" y="-127" on="0"/>
        <pt x="463" y="-125" on="1"/>
        <pt x="463" y="-193" on="1"/>
        <pt x="441" y="-202" on="0"/>
        <pt x="396" y="-212" on="0"/>
      </contour>
      <contour>
        <pt x="354" y="327" on="1"/>
        <pt x="350" y="391" on="0"/>
        <pt x="306" y="461" on="0"/>
        <pt x="264" y="461" on="1"/>
        <pt x="228" y="461" on="0"/>
        <pt x="178" y="393" on="0"/>
        <pt x="170" y="327" on="1"/>
      </contour>
    </TTGlyph>
    <TTGlyph name="equal" xMin="67" yMin="202" xMax="482" yMax="516">
      <contour>
        <pt x="67" y="417" on="1"/>
        <pt x="67" y="516" on="1"/>
        <pt x="482" y="516" on="1"/>
        <pt x="482" y="417" on="1"/>
      </contour>
      <contour>
        <pt x="67" y="202" on="1"/>
        <pt x="67" y="302" on="1"/>
        <pt x="482" y="302" on="1"/>
        <pt x="482" y="202" on="1"/>
      </contour>
    </TTGlyph>
    <TTGlyph name="equal.tab" xMin="57" yMin="202" xMax="472" yMax="516">
      <contour>
        <pt x="57" y="417" on="1"/>
        <pt x="57" y="516" on="1"/>
        <pt x="472" y="516" on="1"/>
        <pt x="472" y="417" on="1"/>
      </contour>
      <contour>
        <pt x="57" y="202" on="1"/>
        <pt x="57" y="302" on="1"/>
        <pt x="472" y="302" on="1"/>
        <pt x="472" y="202" on="1"/>
      </contour>
    </TTGlyph>
    <TTGlyph name="eth" xMin="41" yMin="-12" xMax="519" yMax="809">
      <contour>
        <pt x="179" y="565" on="1"/>
        <pt x="242" y="661" on="1"/>
        <pt x="198" y="685" on="0"/>
        <pt x="143" y="703" on="1"/>
        <pt x="160" y="809" on="1"/>
        <pt x="238" y="790" on="0"/>
        <pt x="304" y="753" on="1"/>
        <pt x="341" y="809" on="1"/>
        <pt x="429" y="791" on="1"/>
        <pt x="370" y="706" on="1"/>
        <pt x="441" y="646" on="0"/>
        <pt x="519" y="465" on="0"/>
        <pt x="519" y="337" on="1"/>
        <pt x="519" y="233" on="0"/>
        <pt x="471" y="92" on="0"/>
        <pt x="429" y="50" on="1"/>
        <pt x="398" y="19" on="0"/>
        <pt x="322" y="-12" on="0"/>
        <pt x="272" y="-12" on="1"/>
        <pt x="224" y="-12" on="0"/>
        <pt x="139" y="22" on="0"/>
        <pt x="77" y="88" on="0"/>
        <pt x="41" y="183" on="0"/>
        <pt x="41" y="244" on="1"/>
        <pt x="41" y="302" on="0"/>
        <pt x="71" y="399" on="0"/>
        <pt x="126" y="469" on="0"/>
        <pt x="203" y="508" on="0"/>
        <pt x="249" y="508" on="1"/>
        <pt x="290" y="508" on="0"/>
        <pt x="356" y="483" on="0"/>
        <pt x="383" y="461" on="1"/>
        <pt x="375" y="509" on="0"/>
        <pt x="335" y="584" on="0"/>
        <pt x="305" y="614" on="1"/>
        <pt x="270" y="565" on="1"/>
      </contour>
      <contour>
        <pt x="278" y="95" on="1"/>
        <pt x="328" y="95" on="0"/>
        <pt x="392" y="209" on="0"/>
        <pt x="392" y="329" on="1"/>
        <pt x="392" y="333" on="0"/>
        <pt x="392" y="348" on="0"/>
        <pt x="391" y="357" on="1"/>
        <pt x="339" y="403" on="0"/>
        <pt x="280" y="403" on="1"/>
        <pt x="227" y="403" on="0"/>
        <pt x="170" y="319" on="0"/>
        <pt x="170" y="245" on="1"/>
        <pt x="170" y="178" on="0"/>
        <pt x="228" y="95" on="0"/>
      </contour>
    </TTGlyph>
    <TTGlyph name="exclam" xMin="67" yMin="0" xMax="217" yMax="725">
      <contour>
        <pt x="180" y="246" on="1"/>
        <pt x="105" y="230" on="1"/>
        <pt x="67" y="725" on="1"/>
        <pt x="217" y="725" on="1"/>
      </contour>
      <contour>
        <pt x="76" y="0" on="1"/>
        <pt x="76" y="152" on="1"/>
        <pt x="208" y="152" on="1"/>
        <pt x="208" y="0" on="1"/>
      </contour>
    </TTGlyph>
    <TTGlyph name="exclam.flat" xMin="67" yMin="0" xMax="217" yMax="725">
      <contour>
        <pt x="179" y="238" on="1"/>
        <pt x="105" y="238" on="1"/>
        <pt x="67" y="725" on="1"/>
        <pt x="217" y="725" on="1"/>
      </contour>
      <contour>
        <pt x="76" y="0" on="1"/>
        <pt x="76" y="152" on="1"/>
        <pt x="208" y="152" on="1"/>
        <pt x="208" y="0" on="1"/>
      </contour>
    </TTGlyph>
    <TTGlyph name="exclamdown" xMin="67" yMin="0" xMax="217" yMax="725">
      <contour>
        <pt x="76" y="573" on="1"/>
        <pt x="76" y="725" on="1"/>
        <pt x="208" y="725" on="1"/>
        <pt x="208" y="573" on="1"/>
      </contour>
      <contour>
        <pt x="67" y="0" on="1"/>
        <pt x="104" y="479" on="1"/>
        <pt x="179" y="495" on="1"/>
        <pt x="217" y="0" on="1"/>
      </contour>
    </TTGlyph>
    <TTGlyph name="exclamdown.flat" xMin="67" yMin="0" xMax="217" yMax="725">
      <contour>
        <pt x="76" y="573" on="1"/>
        <pt x="76" y="725" on="1"/>
        <pt x="208" y="725" on="1"/>
        <pt x="208" y="573" on="1"/>
      </contour>
      <contour>
        <pt x="67" y="0" on="1"/>
        <pt x="105" y="487" on="1"/>
        <pt x="179" y="487" on="1"/>
        <pt x="217" y="0" on="1"/>
      </contour>
    </TTGlyph>
    <TTGlyph name="f" xMin="26" yMin="0" xMax="343" yMax="801">
      <contour>
        <pt x="343" y="688" on="1"/>
        <pt x="333" y="690" on="0"/>
        <pt x="306" y="693" on="0"/>
        <pt x="291" y="693" on="1"/>
        <pt x="259" y="693" on="0"/>
        <pt x="227" y="661" on="0"/>
        <pt x="227" y="626" on="1"/>
        <pt x="227" y="545" on="1"/>
        <pt x="320" y="545" on="1"/>
        <pt x="338" y="436" on="1"/>
        <pt x="227" y="436" on="1"/>
        <pt x="227" y="0" on="1"/>
        <pt x="99" y="0" on="1"/>
        <pt x="99" y="436" on="1"/>
        <pt x="26" y="436" on="1"/>
        <pt x="26" y="545" on="1"/>
        <pt x="99" y="545" on="1"/>
        <pt x="99" y="641" on="1"/>
        <pt x="99" y="726" on="0"/>
        <pt x="193" y="801" on="0"/>
        <pt x="271" y="801" on="1"/>
        <pt x="287" y="801" on="0"/>
        <pt x="315" y="798" on="0"/>
        <pt x="326" y="796" on="1"/>
      </contour>
    </TTGlyph>
    <TTGlyph name="f.flat" xMin="26" yMin="0" xMax="343" yMax="801">
      <contour>
        <pt x="343" y="688" on="1"/>
        <pt x="333" y="690" on="0"/>
        <pt x="306" y="693" on="0"/>
        <pt x="291" y="693" on="1"/>
        <pt x="259" y="693" on="0"/>
        <pt x="227" y="661" on="0"/>
        <pt x="227" y="626" on="1"/>
        <pt x="227" y="545" on="1"/>
        <pt x="329" y="545" on="1"/>
        <pt x="329" y="436" on="1"/>
        <pt x="227" y="436" on="1"/>
        <pt x="227" y="0" on="1"/>
        <pt x="99" y="0" on="1"/>
        <pt x="99" y="436" on="1"/>
        <pt x="26" y="436" on="1"/>
        <pt x="26" y="545" on="1"/>
        <pt x="99" y="545" on="1"/>
        <pt x="99" y="641" on="1"/>
        <pt x="99" y="726" on="0"/>
        <pt x="193" y="801" on="0"/>
        <pt x="271" y="801" on="1"/>
        <pt x="287" y="801" on="0"/>
        <pt x="315" y="798" on="0"/>
        <pt x="326" y="796" on="1"/>
      </contour>
    </TTGlyph>
    <TTGlyph name="f_f" xMin="26" yMin="0" xMax="687" yMax="801">
      <component glyphName="f" x="0" y="0" flags="0x4"/>
      <component glyphName="f" x="344" y="0" flags="0x4"/>
    </TTGlyph>
    <TTGlyph name="f_f.flat" xMin="26" yMin="0" xMax="685" yMax="801">
      <component glyphName="f.flat" x="0" y="0" flags="0x4"/>
      <component glyphName="f.flat" x="342" y="0" flags="0x4"/>
    </TTGlyph>
    <TTGlyph name="f_f_i" xMin="26" yMin="0" xMax="897" yMax="801">
      <component glyphName="i" x="683" y="0" flags="0x4"/>
      <component glyphName="f" x="0" y="0" flags="0x4"/>
      <component glyphName="f" x="344" y="0" flags="0x4"/>
    </TTGlyph>
</ttFont>
